<svg width="18" height="22" viewBox="0 0 18 22" fill="none" xmlns="http://www.w3.org/2000/svg">
<path d="M14.25 10.832H12.75V12.332H14.25V10.832Z" fill="#919EAB"/>
<path d="M9.75 10.832H3.75V12.332H9.75V10.832Z" fill="#919EAB"/>
<path d="M14.25 7.83203H12.75V9.33203H14.25V7.83203Z" fill="#919EAB"/>
<path d="M9.75 7.83203H3.75V9.33203H9.75V7.83203Z" fill="#919EAB"/>
<path d="M14.25 4.83203H3.75V6.33203H14.25V4.83203Z" fill="#919EAB"/>
<path d="M15.75 0.332031H2.25C1.8523 0.332428 1.471 0.490591 1.18978 0.77181C0.90856 1.05303 0.750397 1.43433 0.75 1.83203V20.582C0.75 20.7809 0.829018 20.9717 0.96967 21.1124C1.11032 21.253 1.30109 21.332 1.5 21.332H2.25C2.36645 21.3321 2.48131 21.305 2.58546 21.253C2.68962 21.2009 2.78019 21.1252 2.85 21.032L4.5 18.8323L6.15 21.032C6.22284 21.1207 6.31443 21.1921 6.41817 21.2412C6.52192 21.2902 6.63525 21.3156 6.75 21.3156C6.86475 21.3156 6.97808 21.2902 7.08183 21.2412C7.18557 21.1921 7.27716 21.1207 7.35 21.032L9 18.8323L10.65 21.032C10.7228 21.1207 10.8144 21.1921 10.9182 21.2412C11.0219 21.2902 11.1352 21.3156 11.25 21.3156C11.3648 21.3156 11.4781 21.2902 11.5818 21.2412C11.6856 21.1921 11.7772 21.1207 11.85 21.032L13.5 18.8323L15.15 21.032C15.2198 21.1252 15.3104 21.2008 15.4146 21.2529C15.5187 21.305 15.6336 21.3321 15.75 21.332H16.5C16.6989 21.332 16.8897 21.253 17.0303 21.1124C17.171 20.9717 17.25 20.7809 17.25 20.582V1.83203C17.2495 1.43435 17.0914 1.05308 16.8102 0.771875C16.5289 0.49067 16.1477 0.332488 15.75 0.332031ZM15.75 19.3318L14.1 17.132C14.0272 17.0434 13.9356 16.9719 13.8318 16.9229C13.7281 16.8739 13.6148 16.8484 13.5 16.8484C13.3852 16.8484 13.2719 16.8739 13.1682 16.9229C13.0644 16.9719 12.9728 17.0434 12.9 17.132L11.25 19.3318L9.6 17.132C9.52716 17.0434 9.43557 16.9719 9.33183 16.9229C9.22808 16.8739 9.11475 16.8484 9 16.8484C8.88525 16.8484 8.77192 16.8739 8.66817 16.9229C8.56443 16.9719 8.47284 17.0434 8.4 17.132L6.75 19.3318L5.1 17.132C5.02716 17.0434 4.93557 16.9719 4.83183 16.9229C4.72808 16.8739 4.61475 16.8484 4.5 16.8484C4.38525 16.8484 4.27192 16.8739 4.16817 16.9229C4.06443 16.9719 3.97284 17.0434 3.9 17.132L2.25 19.3318V1.83203H15.75V19.3318Z" fill="#919EAB"/>
</svg>
