<svg width="19" height="22" viewBox="0 0 19 22" fill="none" xmlns="http://www.w3.org/2000/svg">
<path d="M17 21.5H2C1.60218 21.5 1.22064 21.342 0.93934 21.0607C0.658035 20.7794 0.5 20.3978 0.5 20V11C0.5 10.6022 0.658035 10.2206 0.93934 9.93934C1.22064 9.65804 1.60218 9.5 2 9.5H4.25V11H2V20H17V11H14.75V9.5H17C17.3978 9.5 17.7794 9.65804 18.0607 9.93934C18.342 10.2206 18.5 10.6022 18.5 11V20C18.5 20.3978 18.342 20.7794 18.0607 21.0607C17.7794 21.342 17.3978 21.5 17 21.5Z" fill="white"/>
<path d="M11.75 14H7.25V15.5H11.75V14Z" fill="white"/>
<path d="M12.9425 5.4425L10.25 8.1275V0.5H8.75V8.1275L6.0575 5.4425L5 6.5L9.5 11L14 6.5L12.9425 5.4425Z" fill="white"/>
</svg>
