<svg width="20" height="24" viewBox="0 0 20 24" fill="none" xmlns="http://www.w3.org/2000/svg">
<path d="M19.3779 6.10218L10.3779 0.852178C10.2632 0.785261 10.1328 0.75 10 0.75C9.8672 0.75 9.73678 0.785261 9.62208 0.852178L0.622075 6.10218C0.50885 6.16823 0.414914 6.26281 0.34963 6.37648C0.284346 6.49015 0.249995 6.61894 0.25 6.75003V17.25C0.249995 17.3811 0.284346 17.5099 0.34963 17.6236C0.414914 17.7372 0.50885 17.8318 0.622075 17.8979L9.62208 23.1479C9.73678 23.2148 9.8672 23.2501 10 23.2501C10.1328 23.2501 10.2632 23.2148 10.3779 23.1479L19.3779 17.8979C19.4911 17.8318 19.5851 17.7372 19.6504 17.6236C19.7157 17.5099 19.75 17.3811 19.75 17.25V6.75003C19.75 6.61894 19.7157 6.49015 19.6504 6.37648C19.5851 6.26281 19.4911 6.16823 19.3779 6.10218ZM10 2.3683L17.5117 6.75003L10 11.1318L2.4883 6.75003L10 2.3683ZM1.75 8.05593L9.25 12.4307V21.1941L1.75 16.8194V8.05593ZM10.75 21.1941V12.4307L18.25 8.05593V16.8194L10.75 21.1941Z" fill="#919EAB"/>
</svg>
