<svg width="14" height="12" viewBox="0 0 14 12" fill="none" xmlns="http://www.w3.org/2000/svg">
<path d="M4.45 11.5876C5.50571 11.5942 6.55224 11.3912 7.52887 10.9902C8.50551 10.5893 9.39282 9.99842 10.1393 9.25191C10.8858 8.50539 11.4767 7.61808 11.8777 6.64145C12.2786 5.66481 12.4816 4.61828 12.475 3.56257C12.475 3.43757 12.475 3.31882 12.475 3.19382C13.0222 2.79288 13.4959 2.30018 13.875 1.73757C13.3597 1.96294 12.8144 2.11242 12.2563 2.18132C12.8481 1.82868 13.2921 1.27361 13.5063 0.618822C12.9547 0.949722 12.3499 1.18234 11.7188 1.30632C11.2937 0.853426 10.7313 0.553231 10.1184 0.452188C9.50558 0.351144 8.87653 0.454884 8.32859 0.747355C7.78065 1.03983 7.34437 1.50473 7.08725 2.07012C6.83014 2.63551 6.76652 3.26988 6.90625 3.87507C5.78502 3.82004 4.68794 3.52946 3.68647 3.02226C2.685 2.51507 1.80159 1.80262 1.09375 0.931322C0.736827 1.55081 0.628642 2.28277 0.7911 2.97902C0.953558 3.67527 1.37452 4.28377 1.96875 4.68132C1.53038 4.66441 1.10216 4.54451 0.71875 4.33132V4.36257C0.714855 5.00997 0.932951 5.63914 1.33669 6.14524C1.74043 6.65134 2.30542 7.00378 2.9375 7.14382C2.52977 7.25348 2.10268 7.27057 1.6875 7.19382C1.87049 7.74594 2.2198 8.22793 2.68753 8.57369C3.15526 8.91945 3.71849 9.11205 4.3 9.12507C3.30576 9.9254 2.07006 10.3659 0.79375 10.3751C0.569971 10.3686 0.346717 10.3498 0.125 10.3188C1.41685 11.1419 2.91825 11.5758 4.45 11.5688" fill="#00AAEC"/>
</svg>
