<svg width="36" height="29" viewBox="0 0 36 29" fill="none" xmlns="http://www.w3.org/2000/svg">
<path d="M12 13.5H3.165C3.44378 11.6435 4.10668 9.86557 5.11138 8.27975C6.11608 6.69392 7.44049 5.33508 9 4.29L11.685 2.49L10.035 0L7.35 1.8C5.08992 3.30611 3.23656 5.34684 1.9544 7.74108C0.672234 10.1353 0.00091063 12.8091 0 15.525V25.5C0 26.2957 0.31607 27.0587 0.87868 27.6213C1.44129 28.1839 2.20435 28.5 3 28.5H12C12.7956 28.5 13.5587 28.1839 14.1213 27.6213C14.6839 27.0587 15 26.2957 15 25.5V16.5C15 15.7044 14.6839 14.9413 14.1213 14.3787C13.5587 13.8161 12.7956 13.5 12 13.5Z" fill="#919EAB"/>
<path d="M33 13.5H24.165C24.4438 11.6435 25.1067 9.86557 26.1114 8.27975C27.1161 6.69392 28.4405 5.33508 30 4.29L32.685 2.49L31.05 0L28.35 1.8C26.0899 3.30611 24.2366 5.34684 22.9544 7.74108C21.6722 10.1353 21.0009 12.8091 21 15.525V25.5C21 26.2957 21.3161 27.0587 21.8787 27.6213C22.4413 28.1839 23.2043 28.5 24 28.5H33C33.7957 28.5 34.5587 28.1839 35.1213 27.6213C35.6839 27.0587 36 26.2957 36 25.5V16.5C36 15.7044 35.6839 14.9413 35.1213 14.3787C34.5587 13.8161 33.7957 13.5 33 13.5Z" fill="#919EAB"/>
</svg>
