<svg width="36" height="36" viewBox="0 0 36 36" fill="none" xmlns="http://www.w3.org/2000/svg">
<rect width="36" height="36" rx="18" fill="#212B36" fill-opacity="0.24"/>
<path d="M22.0315 11.75C22.4865 11.7496 22.9371 11.8401 23.3567 12.0161C23.7763 12.1921 24.1566 12.4501 24.4752 12.775C25.1317 13.4415 25.4997 14.3395 25.4997 15.275C25.4997 16.2105 25.1317 17.1085 24.4752 17.775L18.0002 24.3313L11.5252 17.775C10.8687 17.1085 10.5007 16.2105 10.5007 15.275C10.5007 14.3395 10.8687 13.4415 11.5252 12.775C11.844 12.4503 12.2243 12.1925 12.6439 12.0164C13.0635 11.8404 13.514 11.7497 13.969 11.7497C14.424 11.7497 14.8744 11.8404 15.294 12.0164C15.7136 12.1925 16.0939 12.4503 16.4127 12.775L18.0002 14.4L19.5815 12.7875C19.8991 12.4587 20.2798 12.1974 20.7008 12.0192C21.1217 11.8409 21.5743 11.7493 22.0315 11.75ZM22.0315 10.5C21.41 10.4995 20.7947 10.623 20.2215 10.8634C19.6484 11.1038 19.1291 11.4563 18.694 11.9L18.0002 12.6L17.3065 11.9C16.8708 11.4571 16.3513 11.1053 15.7783 10.8651C15.2053 10.625 14.5903 10.5013 13.969 10.5013C13.3477 10.5013 12.7326 10.625 12.1596 10.8651C11.5866 11.1053 11.0671 11.4571 10.6315 11.9C9.74515 12.8023 9.24854 14.0165 9.24854 15.2813C9.24854 16.546 9.74515 17.7602 10.6315 18.6625L18.0002 26.125L25.369 18.6625C26.2553 17.7602 26.7519 16.546 26.7519 15.2813C26.7519 14.0165 26.2553 12.8023 25.369 11.9C24.9334 11.4568 24.414 11.1048 23.841 10.8644C23.268 10.6241 22.6529 10.5002 22.0315 10.5Z" fill="white"/>
</svg>
