<svg width="36" height="36" viewBox="0 0 36 36" fill="none" xmlns="http://www.w3.org/2000/svg">
<path d="M22.0037 14.8965C22.5007 14.8965 22.9037 14.4936 22.9037 13.9965C22.9037 13.4995 22.5007 13.0965 22.0037 13.0965C21.5066 13.0965 21.1037 13.4995 21.1037 13.9965C21.1037 14.4936 21.5066 14.8965 22.0037 14.8965Z" fill="#E02D69"/>
<path d="M18.0004 14.1486C17.2387 14.1486 16.494 14.3745 15.8607 14.7977C15.2273 15.2209 14.7337 15.8224 14.4422 16.5261C14.1507 17.2299 14.0744 18.0043 14.223 18.7513C14.3716 19.4984 14.7384 20.1847 15.2771 20.7233C15.8157 21.2619 16.5019 21.6287 17.249 21.7774C17.9961 21.926 18.7705 21.8497 19.4742 21.5582C20.178 21.2667 20.7795 20.773 21.2027 20.1397C21.6259 19.5063 21.8518 18.7617 21.8518 18C21.8518 16.9785 21.446 15.9989 20.7237 15.2766C20.0014 14.5544 19.0218 14.1486 18.0004 14.1486ZM18.0004 20.5C17.5059 20.5 17.0226 20.3534 16.6115 20.0787C16.2003 19.804 15.8799 19.4135 15.6907 18.9567C15.5015 18.4999 15.452 17.9972 15.5484 17.5123C15.6449 17.0273 15.883 16.5818 16.2326 16.2322C16.5823 15.8826 17.0277 15.6445 17.5127 15.548C17.9976 15.4516 18.5003 15.5011 18.9571 15.6903C19.4139 15.8795 19.8044 16.1999 20.0791 16.6111C20.3538 17.0222 20.5004 17.5055 20.5004 18C20.5004 18.663 20.237 19.2989 19.7682 19.7677C19.2993 20.2366 18.6634 20.5 18.0004 20.5Z" fill="#E02D69"/>
<path d="M18 11.8514C20.0026 11.8514 20.2398 11.859 21.0306 11.8951C21.5062 11.9008 21.9773 11.9881 22.4233 12.1534C22.7467 12.2782 23.0405 12.4693 23.2856 12.7144C23.5308 12.9596 23.7219 13.2533 23.8467 13.5768C24.0119 14.0228 24.0993 14.4938 24.1049 14.9694C24.141 15.7603 24.1487 15.9975 24.1487 18.0001C24.1487 20.0026 24.1411 20.2399 24.1049 21.0307C24.0993 21.5063 24.0119 21.9774 23.8467 22.4234C23.7219 22.7468 23.5308 23.0405 23.2856 23.2857C23.0405 23.5308 22.7467 23.7219 22.4233 23.8467C21.9773 24.012 21.5062 24.0993 21.0306 24.105C20.2399 24.1411 20.0027 24.1487 18 24.1487C15.9972 24.1487 15.7601 24.1411 14.9694 24.105C14.4938 24.0993 14.0227 24.012 13.5767 23.8467C13.2532 23.7219 12.9595 23.5308 12.7144 23.2857C12.4692 23.0405 12.2781 22.7468 12.1533 22.4234C11.9881 21.9774 11.9007 21.5063 11.8951 21.0307C11.859 20.2399 11.8513 20.0026 11.8513 18.0001C11.8513 15.9975 11.8589 15.7603 11.8951 14.9694C11.9007 14.4938 11.9881 14.0228 12.1533 13.5768C12.2781 13.2533 12.4692 12.9596 12.7144 12.7144C12.9595 12.4693 13.2532 12.2781 13.5767 12.1533C14.0227 11.9881 14.4938 11.9007 14.9694 11.8951C15.7602 11.859 15.9974 11.8514 18 11.8514ZM18 10.5C15.9631 10.5 15.7077 10.5086 14.9077 10.5451C14.2857 10.5576 13.6702 10.6755 13.0875 10.8938C12.5892 11.0864 12.1367 11.3811 11.7589 11.7589C11.3811 12.1367 11.0864 12.5892 10.8938 13.0875C10.6755 13.6703 10.5576 14.2859 10.5451 14.9081C10.5086 15.7077 10.5 15.9631 10.5 18C10.5 20.0369 10.5086 20.2923 10.5451 21.0922C10.5576 21.7144 10.6755 22.33 10.8938 22.9128C11.0864 23.4111 11.3811 23.8636 11.7589 24.2414C12.1367 24.6192 12.5892 24.9139 13.0875 25.1066C13.6703 25.3249 14.2859 25.4427 14.9081 25.4552C15.7077 25.4914 15.9631 25.5 18 25.5C20.0369 25.5 20.2923 25.4914 21.0922 25.4549C21.7144 25.4424 22.33 25.3245 22.9128 25.1062C23.4111 24.9136 23.8636 24.6189 24.2414 24.2411C24.6192 23.8633 24.9139 23.4108 25.1066 22.9125C25.3248 22.3297 25.4427 21.7141 25.4552 21.0919C25.4914 20.2923 25.5 20.0369 25.5 18C25.5 15.9631 25.4914 15.7077 25.4549 14.9077C25.4424 14.2857 25.3245 13.6702 25.1062 13.0875C24.9135 12.5893 24.6188 12.1368 24.2411 11.7591C23.8633 11.3814 23.4108 11.0867 22.9125 10.8941C22.3297 10.6758 21.7141 10.5579 21.0919 10.5454C20.2923 10.5086 20.0369 10.5 18 10.5Z" fill="#E02D69"/>
</svg>
