<svg width="18" height="17" viewBox="0 0 18 17" fill="none" xmlns="http://www.w3.org/2000/svg">
<path d="M13.6331 16.5C13.4999 16.5005 13.3684 16.4691 13.2498 16.4083L8.9998 14.1833L4.7498 16.4083C4.6118 16.4809 4.4562 16.5133 4.3007 16.5018C4.1452 16.4903 3.99603 16.4355 3.87016 16.3435C3.74429 16.2514 3.64675 16.126 3.58865 15.9813C3.53054 15.8366 3.5142 15.6785 3.54147 15.525L4.3748 10.8333L0.941469 7.49997C0.83435 7.39307 0.758362 7.25902 0.721659 7.11221C0.684955 6.9654 0.688923 6.81136 0.733135 6.66663C0.781435 6.51853 0.870282 6.38693 0.989594 6.28677C1.10891 6.1866 1.2539 6.12189 1.40814 6.09997L6.15814 5.4083L8.2498 1.1333C8.31804 0.992407 8.42458 0.873585 8.55723 0.790444C8.68987 0.707304 8.84326 0.663208 8.9998 0.663208C9.15635 0.663208 9.30973 0.707304 9.44238 0.790444C9.57502 0.873585 9.68156 0.992407 9.7498 1.1333L11.8665 5.39997L16.6165 6.09163C16.7707 6.11356 16.9157 6.17827 17.035 6.27843C17.1543 6.3786 17.2432 6.5102 17.2915 6.6583C17.3357 6.80303 17.3396 6.95707 17.3029 7.10388C17.2662 7.25069 17.1903 7.38474 17.0831 7.49163L13.6498 10.825L14.4831 15.5166C14.5129 15.6729 14.4973 15.8343 14.4382 15.982C14.3792 16.1297 14.2791 16.2574 14.1498 16.35C13.9989 16.4557 13.8172 16.5085 13.6331 16.5Z" fill="#FFC81A"/>
</svg>
