<svg width="93" height="26" viewBox="0 0 93 26" fill="none" xmlns="http://www.w3.org/2000/svg">
<path d="M21.6447 0H3.27666C1.99666 0 0.972656 1.024 0.972656 2.304V23.296C0.972656 24.576 1.99666 25.6 3.27666 25.6H21.6447C22.9247 25.6 23.9487 24.576 23.9487 23.296V2.304C23.9487 1.024 22.9247 0 21.6447 0ZM22.6687 23.296C22.6687 23.872 22.2207 24.32 21.6447 24.32H3.27666C2.70066 24.32 2.25266 23.872 2.25266 23.296V2.304C2.25266 1.728 2.70066 1.28 3.27666 1.28H21.6447C22.2207 1.28 22.6687 1.728 22.6687 2.304V23.296ZM6.73266 21.76L9.61267 19.2L6.73266 16.64V21.76ZM17.1007 11.392C16.5887 10.88 15.6287 10.24 14.0287 10.24C12.3007 10.24 10.5087 10.688 9.22867 11.136V3.84H6.73266V14.912L8.52467 14.08C8.52467 14.08 11.4687 12.736 14.0287 12.736C15.3087 12.736 15.6287 13.44 15.6287 14.08V21.76H18.1887V14.08C18.1887 13.888 18.1887 12.48 17.1007 11.392ZM13.7087 8H16.2687C17.4207 6.656 17.9967 5.312 18.1887 3.84H15.6287C15.3727 5.312 14.7327 6.656 13.7087 8ZM84.4288 14.016V8.32H86.9888V13.952C86.9888 15.232 87.4368 15.872 88.4608 15.872C89.4848 15.872 89.8688 15.296 89.8688 13.952V8.32H92.3648V14.016C92.3648 16.512 91.1488 17.984 88.3968 17.984C85.6448 17.984 84.4288 16.512 84.4288 14.016ZM73.6768 8.384H76.2368V11.84L78.8608 8.384H81.8048L78.6048 12.096L82.0608 17.856H79.1808L76.9408 14.08L76.2368 14.912V17.856H73.6768V8.384ZM61.5167 13.056C61.5167 9.6 63.8847 8.128 66.1887 8.128C68.4928 8.128 70.8607 9.6 70.8607 13.056C70.8607 16.512 68.4928 17.984 66.1887 17.984C63.8847 17.984 61.5167 16.576 61.5167 13.056ZM68.2367 13.056C68.2367 11.328 67.4688 10.24 66.1247 10.24C64.7807 10.24 64.0127 11.328 64.0127 13.056C64.0127 14.784 64.7807 15.936 66.1247 15.936C67.4688 15.936 68.2367 14.848 68.2367 13.056ZM51.2127 8.384H54.9247C57.3567 8.384 58.8287 9.216 58.8287 11.456C58.8287 12.928 58.1887 13.824 56.9727 14.208L58.9567 17.856H56.2687L54.4127 14.592H53.7087V17.856H51.2127V8.384ZM54.8607 12.608C55.8847 12.608 56.3967 12.288 56.3967 11.52C56.3967 10.752 55.9487 10.432 54.8607 10.432H53.7727V12.608H54.8607ZM41.4207 8.384H48.2047V10.496H43.9807V12.032H46.9887V14.016H43.9807V15.744H48.3967V17.792H41.4207V8.384ZM29.8367 8.384H32.3967V11.904H35.5327V8.384H38.0927V17.856H35.5327V14.016H32.3967V17.856H29.8367V8.384Z" fill="#919EAB"/>
</svg>
