<svg width="106" height="21" viewBox="0 0 106 21" fill="none" xmlns="http://www.w3.org/2000/svg">
<path d="M13.1037 3.8716L7.03817 7.74321L13.1037 11.6148L7.03817 15.4864L0.972656 11.5826L7.03817 7.71095L0.972656 3.8716L7.03817 0L13.1037 3.8716ZM7.00591 16.7124L13.0714 12.8408L19.1369 16.7124L13.0714 20.584L7.00591 16.7124ZM13.1037 11.5826L19.1692 7.71095L13.1037 3.8716L19.1369 0L25.2024 3.8716L19.1369 7.74321L25.2024 11.6148L19.1369 15.4864L13.1037 11.5826Z" fill="#919EAB"/>
<path d="M29.9451 3.87221H34.8491C37.9787 3.87221 40.5597 5.67896 40.5597 9.80867V10.6798C40.5597 14.8418 38.14 16.713 34.9459 16.713H29.9451V3.87221ZM32.6875 6.19517V14.3578H34.7846C36.5591 14.3578 37.7528 13.1963 37.7528 10.6153V9.93772C37.7528 7.35665 36.4945 6.19517 34.6878 6.19517H32.6875ZM42.0116 6.32423H44.2055L44.5604 8.74398C44.9798 7.09855 46.0445 6.22744 47.9803 6.22744H48.6579V9.00209H47.5286C45.3025 9.00209 44.754 9.77641 44.754 11.9703V16.7453H42.0438V6.32423H42.0116ZM49.2063 11.7445V11.4541C49.2063 7.96966 51.4325 6.06612 54.4653 6.06612C57.5626 6.06612 59.7242 7.96966 59.7242 11.4541V11.7445C59.7242 15.1644 57.6271 17.0034 54.4653 17.0034C51.1099 16.9711 49.2063 15.1644 49.2063 11.7445ZM56.9496 11.7122V11.4541C56.9496 9.5183 55.9816 8.35682 54.433 8.35682C52.9166 8.35682 51.9165 9.42151 51.9165 11.4541V11.7122C51.9165 13.5835 52.8844 14.6482 54.433 14.6482C55.9816 14.6159 56.9496 13.5835 56.9496 11.7122ZM61.1438 6.32423H63.4022L63.6603 8.29229C64.2088 6.96949 65.3703 6.06612 67.0803 6.06612C69.7259 6.06612 71.4681 7.96966 71.4681 11.4864V11.7767C71.4681 15.1967 69.5323 17.0034 67.0803 17.0034C65.4348 17.0034 64.3056 16.2613 63.7571 15.0676V20.3265H61.1115L61.1438 6.32423ZM68.7257 11.7122V11.4864C68.7257 9.42151 67.661 8.38908 66.2414 8.38908C64.725 8.38908 63.7249 9.55056 63.7249 11.4864V11.6799C63.7249 13.519 64.6928 14.6804 66.2092 14.6804C67.7578 14.6482 68.7257 13.648 68.7257 11.7122ZM75.4688 14.8095L75.2429 16.713H72.9199V2.83978H75.5655V8.16324C76.1463 6.80818 77.3078 6.06612 78.9532 6.06612C81.4375 6.09838 83.2765 7.80834 83.2765 11.2605V11.5832C83.2765 15.0353 81.5343 17.0034 78.8887 17.0034C77.1464 16.9711 76.0172 16.1646 75.4688 14.8095ZM80.5018 11.5832V11.325C80.5018 9.42151 79.4694 8.35682 78.0176 8.35682C76.5334 8.35682 75.501 9.55056 75.501 11.3573V11.5832C75.501 13.519 76.5012 14.6482 77.9853 14.6482C79.5662 14.6482 80.5018 13.648 80.5018 11.5832ZM84.438 11.7445V11.4541C84.438 7.96966 86.6642 6.06612 89.6969 6.06612C92.7942 6.06612 94.9559 7.96966 94.9559 11.4541V11.7445C94.9559 15.1644 92.8265 17.0034 89.6969 17.0034C86.3415 16.9711 84.438 15.1644 84.438 11.7445ZM92.2135 11.7122V11.4541C92.2135 9.5183 91.2456 8.35682 89.6969 8.35682C88.1805 8.35682 87.1804 9.42151 87.1804 11.4541V11.7122C87.1804 13.5835 88.1483 14.6482 89.6969 14.6482C91.2456 14.6159 92.2135 13.5835 92.2135 11.7122ZM98.5048 11.325L94.8591 6.32423H97.9886L100.086 9.45377L102.215 6.32423H105.312L101.602 11.2928L105.506 16.713H102.441L100.053 13.2609L97.7305 16.713H94.5364L98.5048 11.325Z" fill="#919EAB"/>
</svg>
