<svg width="103" height="22" viewBox="0 0 103 22" fill="none" xmlns="http://www.w3.org/2000/svg">
<path d="M101.825 14.5554C101.507 14.5554 101.249 14.8134 101.249 15.131C101.249 15.4487 101.507 15.7066 101.825 15.7066C102.142 15.7066 102.4 15.4487 102.4 15.131C102.4 14.8134 102.142 14.5554 101.825 14.5554ZM101.825 15.6154C101.557 15.6154 101.34 15.3975 101.34 15.131C101.34 14.8633 101.558 14.6467 101.825 14.6467C102.092 14.6467 102.31 14.8645 102.31 15.131C102.31 15.3975 102.092 15.6154 101.825 15.6154ZM102.012 15.0325C102.012 14.9278 101.938 14.8657 101.828 14.8657H101.644V15.3902H101.734V15.2004H101.833L101.928 15.3902H102.025L101.921 15.181C101.977 15.1554 102.012 15.1042 102.012 15.0325ZM101.825 15.1189H101.736V14.9449H101.825C101.885 14.9449 101.922 14.9753 101.922 15.0313C101.922 15.0885 101.884 15.1189 101.825 15.1189ZM32.4685 8.73003V7.33788H30.3341V15.6202H32.4685V10.654C32.4685 9.7547 33.0454 9.31294 33.9447 9.31294H35.1129V7.33791H34.115C33.3338 7.33788 32.6547 7.74554 32.4685 8.73003ZM37.1123 4.06195C36.3822 4.06195 35.8224 4.63878 35.8224 5.36893C35.8224 6.08204 36.3822 6.65887 37.1123 6.65887C37.8425 6.65887 38.4023 6.08204 38.4023 5.36893C38.4022 4.63875 37.8425 4.06195 37.1123 4.06195ZM36.0475 15.6202H38.1771V7.33788H36.0475V15.6202ZM48.3214 11.479C48.3214 13.8435 46.4047 15.7602 44.0402 15.7602C43.0861 15.7602 42.2209 15.4475 41.5273 14.9193V18.0517H39.3977V7.33788H41.5273V8.03881C42.2209 7.51068 43.0861 7.19793 44.0402 7.19793C46.4047 7.19793 48.3214 9.11459 48.3214 11.479ZM46.1784 11.479C46.1784 10.1952 45.1367 9.15351 43.8528 9.15351C42.569 9.15351 41.5273 10.1952 41.5273 11.479C41.5273 12.7629 42.569 13.8046 43.8528 13.8046C45.1367 13.8046 46.1784 12.7641 46.1784 11.479ZM85.3352 10.7526L84.0927 10.4118C83.275 10.1988 82.9574 9.94817 82.9574 9.51617C82.9574 9.09511 83.4052 8.80062 84.0453 8.80062C84.655 8.80062 85.1332 9.19976 85.1332 9.71086V9.7583H87.0961V9.71086C87.0961 8.20794 85.8707 7.1979 84.0453 7.1979C82.2382 7.1979 80.9251 8.20672 80.9251 9.59766C80.9251 10.6795 81.6419 11.4948 82.8929 11.8331L84.083 12.1581C84.9872 12.4087 85.3231 12.6862 85.3231 13.184C85.3231 13.7085 84.8375 14.0613 84.1146 14.0613C83.3613 14.0613 82.8539 13.5843 82.8539 12.8761V12.8286H80.7705V12.8761C80.7705 14.5749 82.1384 15.7626 84.0976 15.7626C85.9851 15.7626 87.3553 14.6029 87.3553 13.0063C87.3553 12.2226 87.0048 11.198 85.3352 10.7526ZM55.876 7.33788H58.0056V15.6202H55.876V14.9193C55.1824 15.4474 54.3171 15.7602 53.3631 15.7602C50.9986 15.7602 49.082 13.8435 49.082 11.479C49.082 9.11452 50.9986 7.1979 53.3631 7.1979C54.3171 7.1979 55.1824 7.51065 55.876 8.03878V7.33788ZM55.876 11.479C55.876 10.194 54.8343 9.15351 53.5505 9.15351C52.2666 9.15351 51.225 10.1952 51.225 11.479C51.225 12.7629 52.2666 13.8046 53.5505 13.8046C54.8355 13.8046 55.876 12.7641 55.876 11.479ZM65.6954 4.39051H67.825V15.6214H65.6954V14.9205C65.0017 15.4486 64.1365 15.7614 63.1824 15.7614C60.8179 15.7614 58.9013 13.8447 58.9013 11.4802C58.9013 9.11575 60.8179 7.19912 63.1824 7.19912C64.1365 7.19912 65.0017 7.51187 65.6954 8.04V4.39051ZM65.6954 11.479C65.6954 10.1952 64.6536 9.15351 63.3698 9.15351C62.086 9.15351 61.0443 10.1952 61.0443 11.479C61.0443 12.7629 62.0847 13.8046 63.3698 13.8046C64.6536 13.8046 65.6954 12.7641 65.6954 11.479ZM77.7124 15.6202H79.842V7.33788H77.7124V15.6202ZM78.7772 4.06195C78.0471 4.06195 77.4873 4.63878 77.4873 5.36893C77.4873 6.08204 78.0471 6.65887 78.7772 6.65887C79.5074 6.65887 80.0672 6.08204 80.0672 5.36893C80.0672 4.63875 79.5074 4.06195 78.7772 4.06195ZM96.5601 11.479C96.5601 13.8435 94.6435 15.7602 92.2789 15.7602C89.9145 15.7602 87.9978 13.8435 87.9978 11.479C87.9978 9.11456 89.9145 7.19793 92.2789 7.19793C94.6435 7.19793 96.5601 9.11459 96.5601 11.479ZM94.6045 11.479C94.6045 10.1952 93.5628 9.15351 92.279 9.15351C90.9951 9.15351 89.9534 10.1952 89.9534 11.479C89.9534 12.7629 90.9939 13.8046 92.279 13.8046C93.5628 13.8046 94.6045 12.7641 94.6045 11.479ZM23.209 4.39051V6.29013H26.233V15.6202H28.3554V6.29013H31.3794V4.39051H23.209ZM72.6914 13.3519L70.7967 7.33791H68.56L71.4015 15.6202H73.9643L76.8228 7.33791H74.5861L72.6914 13.3519ZM99.6803 8.73003V7.33788H97.5458V15.6202H99.6803V10.654C99.6803 9.7547 100.257 9.31294 101.156 9.31294H102.325V7.33791H101.327C100.545 7.33788 99.8677 7.74554 99.6803 8.73003Z" fill="#919EAB"/>
<path fill-rule="evenodd" clip-rule="evenodd" d="M4.15564 11.736C4.15564 13.2376 5.37252 14.4545 6.87422 14.4545C8.37588 14.4545 9.5928 13.2376 9.5928 11.736C9.5928 10.2343 8.37588 9.01735 6.87422 9.01735C5.37255 9.01735 4.15564 10.2343 4.15564 11.736ZM6.87422 13.161C7.66155 13.161 8.29922 12.5233 8.29922 11.736C8.29922 10.9486 7.66155 10.3097 6.87422 10.3109C6.08689 10.3109 5.44921 10.9486 5.44921 11.736C5.44921 12.5233 6.08689 13.161 6.87422 13.161Z" fill="#919EAB"/>
<path d="M7.87452 7.6763C9.5916 8.33223 10.8925 9.86796 10.8925 11.6569C10.8925 9.868 12.1934 8.33345 13.9092 7.6763C12.9807 7.28808 11.9609 7.0727 10.8913 7.0727C9.82158 7.0727 8.80302 7.28808 7.87452 7.6763Z" fill="#919EAB"/>
<path fill-rule="evenodd" clip-rule="evenodd" d="M12.1909 11.736C12.1909 13.2376 13.4078 14.4545 14.9095 14.4545C16.4112 14.4545 17.6281 13.2376 17.6281 11.736C17.6281 10.2343 16.4112 9.01735 14.9095 9.01735C13.4078 9.01735 12.1909 10.2343 12.1909 11.736ZM13.4845 11.7347C13.4845 10.9474 14.1222 10.3097 14.9095 10.3097C15.6969 10.3097 16.3345 10.9486 16.3345 11.7347C16.3345 12.5221 15.6969 13.1597 14.9095 13.1597C14.1222 13.1597 13.4845 12.5221 13.4845 11.7347Z" fill="#919EAB"/>
<path fill-rule="evenodd" clip-rule="evenodd" d="M21.7828 10.8914C21.7828 16.9066 16.9066 21.7828 10.8914 21.7828C4.87625 21.7828 0 16.9066 0 10.8914C0 4.87625 4.87625 0 10.8914 0C16.9066 0 21.7828 4.87625 21.7828 10.8914ZM18.9327 7.33678L17.6184 8.76667C18.424 9.50048 18.929 10.5592 18.9278 11.736C18.9278 13.9544 17.1268 15.753 14.9083 15.753C13.8545 15.753 12.8956 15.3478 12.1788 14.6833L10.8913 16.084L9.60379 14.6821C8.88701 15.3465 7.92688 15.753 6.87303 15.753C4.65459 15.753 2.85596 13.9544 2.85596 11.736C2.85596 10.5604 3.36098 9.50167 4.16657 8.76667L2.85229 7.33678H5.77411C7.23077 6.34136 8.98797 5.75964 10.8913 5.75964C12.7969 5.75964 14.5591 6.3401 16.0181 7.33678H18.9327Z" fill="#919EAB"/>
</svg>
