<svg width="80" height="26" viewBox="0 0 80 26" fill="none" xmlns="http://www.w3.org/2000/svg">
<path d="M10.3002 0H10.9976C13.419 0.0526384 15.8009 1.02645 17.5117 2.75036C16.88 3.39518 16.2352 4.01368 15.6167 4.6585C14.656 3.78997 13.498 3.11883 12.2346 2.88195C10.366 2.48716 8.35255 2.84247 6.78656 3.9084C5.0758 5.02697 3.91776 6.92195 3.66772 8.94853C3.39137 10.9488 3.95723 13.0543 5.26004 14.6072C6.5102 16.1205 8.41835 17.068 10.3923 17.1338C12.2346 17.2391 14.1559 16.6732 15.4982 15.3836C16.551 14.4756 17.0379 13.0938 17.1958 11.7515C15.0113 11.7515 12.8268 11.7647 10.6423 11.7515V9.04065H19.8409C20.3147 11.9489 19.6304 15.2257 17.4195 17.3049C15.9457 18.7788 13.9059 19.6473 11.8267 19.8184C9.81327 20.0158 7.73405 19.6341 5.94434 18.6603C3.79932 17.5154 2.08857 15.581 1.24635 13.3044C0.456773 11.212 0.443613 8.84325 1.18055 6.73772C1.85169 4.81642 3.14134 3.11883 4.79945 1.93446C6.39177 0.763257 8.32623 0.118436 10.3002 0Z" fill="#919EAB"/>
<path d="M63.0701 0.684245H65.8862V19.4762C64.9518 19.4762 64.0044 19.4893 63.0701 19.463C63.0832 13.2122 63.0701 6.94823 63.0701 0.684245Z" fill="#919EAB"/>
<path d="M26.1048 7.19831C27.8419 6.86932 29.7237 7.23779 31.1581 8.2774C32.4609 9.19857 33.3689 10.6461 33.6453 12.2253C34.0006 14.0545 33.5532 16.0547 32.3688 17.5023C31.0923 19.1209 28.9999 19.9894 26.9602 19.8578C25.0915 19.7526 23.2755 18.8182 22.17 17.2917C20.9199 15.6073 20.6172 13.2912 21.3015 11.3173C21.9858 9.19857 23.9203 7.57994 26.1048 7.19831ZM26.4996 9.69863C25.789 9.88287 25.131 10.2908 24.6572 10.8698C23.3807 12.3964 23.4597 14.8835 24.8678 16.3048C25.6705 17.1206 26.8812 17.5023 27.9998 17.2786C29.0394 17.0943 29.9474 16.3969 30.4475 15.4757C31.316 13.9097 31.066 11.7515 29.7369 10.5277C28.8815 9.73811 27.6313 9.40912 26.4996 9.69863Z" fill="#919EAB"/>
<path d="M40.054 7.1983C42.0411 6.81667 44.2124 7.36938 45.6995 8.7643C48.1208 10.9356 48.384 15.002 46.318 17.5023C45.0678 19.0814 43.0412 19.95 41.041 19.8579C39.1328 19.8052 37.251 18.8577 36.1193 17.2917C34.8428 15.5678 34.5665 13.1991 35.2902 11.1857C36.014 9.13277 37.909 7.56677 40.054 7.1983ZM40.4488 9.69863C39.7382 9.88287 39.0802 10.2908 38.6065 10.8567C37.3431 12.3569 37.3958 14.8046 38.7512 16.239C39.5539 17.0943 40.8041 17.5155 41.9621 17.2786C42.9886 17.0812 43.9098 16.3969 44.4098 15.4757C45.2652 13.8966 45.0152 11.7384 43.6729 10.5145C42.8175 9.72495 41.5674 9.40912 40.4488 9.69863Z" fill="#919EAB"/>
<path d="M51.8845 7.96152C53.3978 7.01402 55.4112 6.75083 57.043 7.56673C57.5563 7.79044 57.9774 8.17207 58.3853 8.5537C58.3985 8.19839 58.3853 7.82992 58.3985 7.46145C59.2802 7.47461 60.1619 7.46145 61.0567 7.47461V19.0814C61.0435 20.8316 60.5961 22.6871 59.3328 23.9636C57.951 25.3717 55.8323 25.806 53.9242 25.5165C51.8845 25.2138 50.1079 23.7267 49.3183 21.8449C50.1079 21.4633 50.937 21.1606 51.7529 20.8053C52.2134 21.8844 53.1478 22.8056 54.319 23.0161C55.4902 23.2267 56.8456 22.9372 57.6089 21.9634C58.4248 20.9632 58.4248 19.5946 58.3853 18.3708C57.78 18.963 57.0825 19.4893 56.2403 19.6867C54.4111 20.2 52.3977 19.5683 50.9896 18.3313C49.5684 17.0943 48.7261 15.1862 48.8051 13.2912C48.8446 11.1461 50.0553 9.08008 51.8845 7.96152ZM54.6085 9.64595C53.8058 9.77754 53.0557 10.225 52.5424 10.8435C51.3054 12.3174 51.3054 14.6729 52.5556 16.1205C53.2662 16.9759 54.4111 17.4496 55.5165 17.3312C56.5561 17.2259 57.5168 16.5679 58.03 15.6599C58.8985 14.1202 58.7538 12.0278 57.5826 10.6856C56.8588 9.8565 55.7007 9.44855 54.6085 9.64595Z" fill="#919EAB"/>
<path d="M69.2685 8.63274C70.8476 7.15885 73.2822 6.65879 75.3088 7.43521C77.2301 8.15899 78.4539 9.98818 79.0725 11.87C76.2168 13.0544 73.3743 14.2256 70.5186 15.41C70.9134 16.1601 71.5188 16.8444 72.3347 17.1207C73.4796 17.5287 74.8482 17.3839 75.8088 16.6207C76.1905 16.3311 76.4931 15.9495 76.7827 15.581C77.5064 16.0679 78.2302 16.5417 78.954 17.0286C77.9276 18.5683 76.2036 19.6474 74.3481 19.8184C72.2952 20.0685 70.1107 19.2789 68.7815 17.6734C66.597 15.1468 66.8076 10.9094 69.2685 8.63274ZM70.6766 11.0673C70.2291 11.7121 70.0449 12.5017 70.058 13.2781C71.9662 12.4885 73.8744 11.6989 75.7825 10.8962C75.4667 10.1593 74.7034 9.71183 73.927 9.59339C72.6768 9.36968 71.374 10.0408 70.6766 11.0673Z" fill="#919EAB"/>
</svg>
