<svg width="85" height="18" viewBox="0 0 85 18" fill="none" xmlns="http://www.w3.org/2000/svg">
<path fill-rule="evenodd" clip-rule="evenodd" d="M3.97362 14.319H12.1956V17.7674H0.306641V0H3.97362V14.319ZM23.7506 13.5625C22.2281 14.7323 21.3582 15.0113 19.9698 15.0113C18.7203 15.0113 17.742 14.6086 17.0523 13.9023L26.3008 9.91912C26.0989 8.43482 25.5562 7.10874 24.7213 6.10048C23.5061 4.63539 21.7075 3.86021 19.5175 3.86021C15.5398 3.86021 12.5404 6.90667 12.5404 10.9305C12.5404 15.0587 15.547 18 19.9163 18C22.3644 18 24.8674 16.7955 26.0383 15.3882L23.7506 13.5625ZM35.5132 3.86092C33.9964 3.86092 32.2714 4.59082 31.2175 6.05221L31.2181 6.04939L31.2175 6.05009L31.2181 4.0903H27.6005V17.7674H31.2175V9.98501C31.2175 8.5844 32.2635 7.09535 34.2004 7.09535C35.6971 7.09535 37.2461 8.17637 37.2461 9.98501V17.7674H40.8637V9.28911C40.8637 6.14329 38.6958 3.86092 35.5132 3.86092ZM66.5736 4.0911L63.3033 13.4075L60.0329 4.0911H55.9004L61.3209 17.7638H65.285L70.7054 4.0911H66.5736ZM19.5842 6.84814C18.399 6.84814 17.4176 7.35236 16.8016 8.21123C16.2396 8.99451 15.8953 10.0872 16.0679 11.4842L22.3881 8.76196C21.8768 7.62103 20.8878 6.84814 19.5842 6.84814ZM77.2035 7.07854C75.1833 7.07854 73.7162 8.66801 73.7162 10.9291C73.7162 13.0879 75.2702 14.7796 77.252 14.7796C79.273 14.7796 80.7391 13.1464 80.7391 10.9291C80.7391 8.7702 79.1859 7.07854 77.2035 7.07854ZM70.1463 10.9291C70.1463 14.938 73.2463 17.9981 77.2026 17.9981C81.1859 17.9981 84.3066 14.8922 84.3066 10.9291C84.3066 6.92005 81.2075 3.86021 77.2512 3.86021C73.2677 3.86021 70.1463 6.96516 70.1463 10.9291ZM49.3489 7.07854C47.3286 7.07854 45.8624 8.66801 45.8624 10.9291C45.8624 13.0879 47.4157 14.7796 49.3981 14.7796C51.4183 14.7796 52.8845 13.1464 52.8845 10.9291C52.8845 8.7702 51.3313 7.07854 49.3489 7.07854ZM42.2966 10.9292C42.2966 14.9381 45.3958 17.9981 49.3521 17.9981C53.3356 17.9981 56.4568 14.8923 56.4568 10.9292C56.4568 6.92012 53.3569 3.86028 49.4013 3.86028C45.4172 3.86028 42.2966 6.96522 42.2966 10.9292Z" fill="#919EAB"/>
</svg>
