<svg width="94" height="29" viewBox="0 0 94 29" fill="none" xmlns="http://www.w3.org/2000/svg">
<path fill-rule="evenodd" clip-rule="evenodd" d="M27.0538 20.1181C27.1019 20.236 27.15 20.3539 27.1981 20.4686C27.5753 21.5356 27.6913 22.5442 27.4608 23.553C27.1413 25.6865 25.7194 27.5308 23.6875 28.3386C22.9621 28.656 22.1497 28.8 21.337 28.8C21.1048 28.8 20.8143 28.7715 20.582 28.7421C19.6244 28.6269 18.638 28.3101 17.6798 27.7624C16.5188 27.0991 15.3579 26.1481 14.0811 24.7643C12.8042 26.1481 11.6723 27.0991 10.4824 27.7624C9.5244 28.3101 8.53774 28.6269 7.57979 28.7421C7.34726 28.7712 7.05733 28.8 6.82509 28.8C6.01268 28.8 5.22898 28.656 4.47428 28.3386C2.47139 27.5308 1.02054 25.7153 0.701323 23.553C0.555774 22.5148 0.672039 21.5057 1.04954 20.4392C1.19451 20.0646 1.33947 19.7187 1.48444 19.4013C1.58766 19.1709 1.69094 18.9461 1.79165 18.727C1.91754 18.453 2.03942 18.1877 2.15217 17.9311L2.18145 17.8738C4.18405 13.5496 6.36061 9.16772 8.59544 4.84377L8.68271 4.6704C8.92028 4.22155 9.15234 3.76985 9.37885 3.31539C9.66879 2.79614 9.9883 2.24837 10.4238 1.72969C11.3812 0.634451 12.687 0 14.1385 0C15.5603 0 16.8955 0.634451 17.8241 1.78758C18.2523 2.26619 18.5321 2.76852 18.8008 3.25085L18.8691 3.37328C19.095 3.82802 19.3271 4.27973 19.5652 4.72829L19.6522 4.90166C21.9163 9.22561 24.0636 13.6072 26.0665 17.9317L26.0955 17.9605C26.2089 18.2184 26.3315 18.4856 26.4583 18.7618C26.5581 18.9792 26.6605 19.2022 26.7629 19.4307C26.8598 19.6428 26.9568 19.8805 27.0538 20.1181ZM49.6026 7.23649C49.6026 8.27442 48.7606 9.11018 47.7157 9.11018C46.6707 9.11018 45.8293 8.27442 45.8293 7.23649C45.8293 6.19856 46.642 5.3628 47.7157 5.3628C48.7902 5.3916 49.6026 6.22765 49.6026 7.23649ZM41.8237 11.0131V11.4744C41.8237 11.4744 40.9243 10.3207 39.0087 10.3207C35.8455 10.3207 33.3781 12.7137 33.3781 16.0288C33.3781 19.3154 35.8165 21.7368 39.0087 21.7368C40.9533 21.7368 41.8237 20.5549 41.8237 20.5549V21.0448C41.8237 21.2755 41.9982 21.448 42.2302 21.448H44.5807V10.6082H42.2302C41.9982 10.609 41.8237 10.8112 41.8237 11.0131ZM39.4746 19.1427C40.5193 19.1427 41.3902 18.5949 41.8251 17.9605V14.0973C41.4192 13.492 40.4906 12.9154 39.4746 12.9154C37.6173 12.9154 36.1948 14.0685 36.1948 16.0289C36.1948 17.9896 37.6173 19.1427 39.4746 19.1427ZM46.3238 10.6091H49.1098V21.4489H46.3238V10.6091ZM85.1273 11.4743C85.1273 11.4743 86.0272 10.3206 87.9428 10.3206C91.0771 10.3206 93.5438 12.7432 93.5438 16.0298C93.5438 19.3163 91.0771 21.7372 87.9133 21.7372C85.9982 21.7372 85.0983 20.5553 85.0983 20.5553V21.0452C85.0983 21.2471 84.9246 21.4489 84.6923 21.4489H82.3412V5.39154H85.1273V11.4743ZM87.4784 19.1136C86.4041 19.1136 85.5627 18.5664 85.1273 17.9317V14.0685C85.5627 13.492 86.4914 12.8866 87.4784 12.8866C89.3357 12.8866 90.7578 14.0397 90.7578 16.0001C90.7578 17.9605 89.336 19.1136 87.4784 19.1136ZM80.8894 21.4776V15.0202C80.8894 13.2039 80.5116 12.1662 79.5252 11.359C78.7125 10.6672 77.6966 10.3207 76.4774 10.3207C75.4037 10.3207 74.3301 10.6381 73.5174 11.4744V11.0131C73.5174 10.8112 73.3432 10.6093 73.1109 10.6093H70.9059V21.4491H73.6914V13.8959C74.2437 13.2614 75.1147 12.8289 75.9561 12.8289C77.5223 12.8289 78.1028 13.55 78.1028 15.337V21.4776H80.8894ZM64.1436 10.3206C62.2286 10.3206 61.3286 11.4743 61.3286 11.4743V5.39154H58.5426V21.4489H60.8931C61.1254 21.4489 61.2996 21.2471 61.2996 21.0452V20.5553C61.2996 20.5553 62.1996 21.7372 64.1146 21.7372C67.2784 21.7372 69.7452 19.3163 69.7452 16.0298C69.7742 12.7429 67.3074 10.3206 64.1436 10.3206ZM61.3286 17.9317C61.7641 18.5664 62.6055 19.1136 63.6792 19.1136C65.5371 19.1136 66.9589 17.9605 66.9589 16.0001C66.9589 14.0397 65.5371 12.8866 63.6792 12.8866C62.6928 12.8866 61.7641 13.492 61.3286 14.0685V17.9317ZM56.1335 10.3206C56.9749 10.3206 57.4104 10.4651 57.4104 10.4651V13.0306C57.4104 13.0306 55.0886 12.2521 53.6378 13.8957V21.4775H50.8512V10.6091H53.2023C53.4345 10.6091 53.6082 10.811 53.6082 11.0129V11.4743C54.1312 10.8686 55.2631 10.3206 56.1335 10.3206ZM14.1092 21.9676C12.5418 20.0072 11.5258 18.1624 11.1779 16.606C11.0329 15.9428 11.0037 15.3662 11.0909 14.8473C11.1486 14.3859 11.3232 13.9821 11.5554 13.6362C12.1069 12.8584 13.0355 12.3679 14.1095 12.3679C15.1837 12.3679 16.1413 12.8293 16.6638 13.6362C16.8961 13.9821 17.07 14.3862 17.1286 14.8473C17.2153 15.3665 17.1863 15.9716 17.0413 16.606C16.6919 18.1336 15.676 19.9787 14.1092 21.9676ZM23.0479 26.6959C24.4698 26.1193 25.4857 24.8216 25.6887 23.3226C25.805 22.5733 25.718 21.8521 25.4863 21.1034C25.4258 20.9027 25.3372 20.7023 25.24 20.4828C25.1975 20.3866 25.1533 20.2867 25.1091 20.1815C24.9933 19.9511 24.8848 19.7067 24.7762 19.4623C24.6671 19.2166 24.558 18.9708 24.4414 18.7392V18.7104C22.4052 14.3468 20.2861 10.0218 18.0854 5.73771L17.9981 5.56434C17.8845 5.35245 17.7707 5.13349 17.6568 4.91433C17.5385 4.68668 17.4202 4.45881 17.3017 4.23841C17.0694 3.77791 16.8085 3.34534 16.489 2.96951C15.8795 2.27832 15.0671 1.90307 14.1672 1.90307C13.2672 1.90307 12.4548 2.27832 11.8453 2.96951C11.5258 3.34448 11.2649 3.77704 11.0327 4.23841C10.9201 4.4484 10.8074 4.66518 10.6946 4.88209C10.5752 5.112 10.4556 5.34206 10.3359 5.56434L10.249 5.73771C8.01412 10.0041 5.86655 14.3859 3.86425 18.6816L3.83496 18.7389C3.60243 19.2288 3.37077 19.7193 3.16753 20.1806C3.12302 20.2868 3.07846 20.3875 3.03557 20.4845C2.93874 20.7034 2.8504 20.9031 2.79032 21.1031C2.4998 21.9103 2.44211 22.6309 2.52909 23.3514C2.73204 24.8504 3.74798 26.1481 5.16983 26.7247C5.83727 26.9839 6.59227 27.0994 7.37568 27.0127C8.1011 26.9266 8.82623 26.6959 9.58094 26.2633C10.6259 25.6868 11.6998 24.7928 12.8897 23.4666C11.0034 21.1316 9.81347 18.9693 9.37827 17.0671C9.14603 16.202 9.11733 15.3662 9.2333 14.6163C9.34928 13.8957 9.6108 13.2325 10.017 12.6559C10.9167 11.3876 12.4261 10.6091 14.1089 10.6091C15.7917 10.6091 17.3011 11.3582 18.2014 12.6559C18.6076 13.2325 18.8691 13.8957 18.9848 14.6163C19.0723 15.3662 19.043 16.1732 18.8398 17.0671C18.4043 18.9693 17.2434 21.1031 15.3281 23.4378C16.5473 24.7643 17.5919 25.6574 18.6368 26.2345C19.391 26.6665 20.117 26.8972 20.8424 26.9839C21.5965 27.0706 22.3515 26.9839 23.0479 26.6959Z" fill="#919EAB"/>
</svg>
