<svg width="97" height="20" viewBox="0 0 97 20" fill="none" xmlns="http://www.w3.org/2000/svg">
<path fill-rule="evenodd" clip-rule="evenodd" d="M49.8326 9.3252C49.0383 9.3252 48.4658 9.58786 47.8852 9.85546V15.9106C48.4413 15.964 48.7601 15.964 49.2877 15.964C51.1942 15.964 51.4555 15.0836 51.4555 13.8542V10.9622C51.4555 10.0544 51.1568 9.3252 49.8326 9.3252ZM37.1692 8.9947C35.8464 8.9947 35.5446 9.72701 35.5446 10.634V11.1436H38.7921V10.634C38.7921 9.72701 38.4902 8.9947 37.1692 8.9947ZM12.6411 15.2972C12.6411 16.0147 12.9768 16.3874 13.7177 16.3874C14.5124 16.3874 14.983 16.1261 15.5632 15.8576V14.4212H13.8254C13.0026 14.4212 12.6411 14.5757 12.6411 15.2972ZM62.1458 9.3252C60.8208 9.3252 60.3617 10.0544 60.3617 10.9622V14.2754C60.3617 15.1855 60.8208 15.9169 62.1458 15.9169C63.4672 15.9169 63.9298 15.1855 63.9298 14.2754V10.9622C63.9294 10.0544 63.4668 9.3252 62.1458 9.3252ZM6.14772 19.0122H2.25278V9.50521H0.306641V6.22935H2.25322V4.26185C2.25322 1.58899 3.35162 0 6.47363 0H9.07293V3.27676H7.44826C6.23276 3.27676 6.15262 3.73473 6.15262 4.58917L6.14772 6.2289H9.09074L8.74657 9.50476H6.14772V19.0122ZM19.4604 19.0369H16.2142L16.0739 18.209C14.5917 19.0369 13.2689 19.1711 12.3963 19.1711C10.0156 19.1711 8.74842 17.5673 8.74842 15.3493C8.74842 12.7326 10.2271 11.7987 12.8722 11.7987H15.5646V11.2329C15.5646 9.89717 15.4127 9.5052 13.3758 9.5052H10.0454L10.3709 6.22934H14.0111C18.4804 6.22934 19.4604 7.6531 19.4604 11.2594V19.0369ZM30.4978 9.74542C28.4777 9.3961 27.8976 9.31933 26.9256 9.31933C25.1799 9.31933 24.6523 9.70771 24.6523 11.2029V14.0311C24.6523 15.5262 25.1799 15.9164 26.9256 15.9164C27.8976 15.9164 28.4777 15.8383 30.4978 15.4876V18.6831C28.7284 19.0832 27.5757 19.1882 26.6015 19.1882C22.4198 19.1882 20.7578 16.9706 20.7578 13.7671V11.4723C20.7578 8.26599 22.4198 6.04436 26.6015 6.04436C27.5757 6.04436 28.7284 6.14987 30.4978 6.55172V9.74542ZM42.6854 13.7671H35.5429V14.0311C35.5429 15.5262 36.0709 15.9164 37.8163 15.9164C39.3853 15.9164 40.343 15.8383 42.3595 15.4876V18.6831C40.4147 19.0832 39.4013 19.1882 37.4935 19.1882C33.3113 19.1882 31.6484 16.9707 31.6484 13.7671V11.1432C31.6484 8.34009 32.8821 6.04438 37.1676 6.04438C41.453 6.04438 42.6854 8.31359 42.6854 11.1432V13.7671ZM55.3479 13.8277C55.3479 16.9239 54.4703 19.1824 49.1541 19.1824C47.2343 19.1824 46.1083 19.0122 43.9894 18.6835V0.984195L47.883 0.329113V6.5203C48.7245 6.2051 49.8135 6.04481 50.8046 6.04481C54.6987 6.04481 55.3474 7.80532 55.3474 10.6344L55.3479 13.8277ZM67.8292 13.895C67.8292 16.5661 66.7357 19.1568 62.1604 19.1568C57.5829 19.1568 56.469 16.5661 56.469 13.895V11.316C56.469 8.64359 57.5829 6.05244 62.1604 6.05244C66.7357 6.05244 67.8292 8.64359 67.8292 11.316V13.895ZM80.3033 13.895C80.3033 16.566 79.2085 19.1567 74.6341 19.1567C70.0566 19.1567 68.9426 16.566 68.9426 13.895V11.3159C68.9426 8.64351 70.0566 6.05237 74.6341 6.05237C79.2085 6.05237 80.3033 8.64351 80.3033 11.3159V13.895ZM93.104 19.0121H88.8836L85.3141 13.0032V19.0121H81.4192V0.983635L85.3141 0.328552V11.9346L88.8836 6.22924H93.104L89.2073 12.4554L93.104 19.0121ZM74.6195 9.32516C73.2967 9.32516 72.8377 10.0543 72.8377 10.9622V14.2753C72.8377 15.1854 73.2967 15.9168 74.6195 15.9168C75.9406 15.9168 76.4081 15.1854 76.4081 14.2753V10.9622C76.4081 10.0543 75.9406 9.32516 74.6195 9.32516ZM95.3238 16.77C95.9797 16.77 96.5019 17.3093 96.5019 17.9828C96.5019 18.6666 95.9792 19.2 95.3189 19.2C94.6618 19.2 94.1288 18.6666 94.1288 17.9828C94.1288 17.3093 94.6618 16.77 95.3189 16.77H95.3238ZM95.319 16.9585C94.7905 16.9585 94.3582 17.4169 94.3582 17.9827C94.3582 18.5587 94.791 19.0113 95.3239 19.0113C95.8573 19.0167 96.2834 18.5587 96.2834 17.9881C96.2834 17.4174 95.8573 16.9585 95.3239 16.9585H95.319ZM95.0984 18.6885H94.8846V17.3352C94.9968 17.3195 95.1037 17.3038 95.264 17.3038C95.467 17.3038 95.5997 17.3469 95.6812 17.4057C95.76 17.4654 95.8023 17.5565 95.8023 17.6854C95.8023 17.8641 95.6856 17.9714 95.5418 18.015V18.0253C95.6589 18.0473 95.7386 18.1542 95.7658 18.3531C95.7969 18.5636 95.8294 18.644 95.8503 18.688H95.6264C95.5948 18.644 95.5623 18.5205 95.5356 18.3423C95.5044 18.1703 95.418 18.1057 95.2471 18.1057H95.0988L95.0984 18.6885ZM95.0952 17.9396H95.2501C95.4256 17.9396 95.5747 17.8745 95.5747 17.707C95.5747 17.5885 95.4901 17.4704 95.2501 17.4704C95.1802 17.4704 95.1317 17.4758 95.0952 17.4807V17.9396Z" fill="#919EAB"/>
</svg>
