<svg width="85" height="24" viewBox="0 0 85 24" fill="none" xmlns="http://www.w3.org/2000/svg">
<path fill-rule="evenodd" clip-rule="evenodd" d="M22.4158 4.93806C22.6872 5.0917 23.1077 5.2088 23.522 5.24586C23.7572 5.26671 24.2483 5.25333 24.4861 5.21935C25.299 5.10303 25.9717 4.76408 26.6016 4.1531C27.195 3.57738 27.5334 3.00424 27.6362 2.39995C27.6804 2.13924 27.6652 1.77096 27.6008 1.55709C27.4698 1.12086 27.1307 0.639075 26.7572 0.359064C26.3623 0.0628402 25.8958 -0.0434505 25.2504 0.0157429C24.2005 0.111996 23.2372 0.595838 22.4238 1.43484C21.9878 1.88445 21.7319 2.3266 21.6358 2.79629C21.5885 3.02637 21.5838 3.48756 21.6262 3.73C21.6802 4.04192 21.787 4.31241 21.9325 4.51032C22.0341 4.6475 22.2659 4.85313 22.4158 4.93806ZM70.8489 22.4145C71.8686 23.3716 73.1619 23.8853 74.8249 23.9945C75.0748 24.0107 76.1182 23.9888 76.3844 23.961C78.4488 23.7507 80.1601 22.9799 81.6581 21.585C82.6281 20.6822 83.4984 19.4865 84.0282 18.3284C84.6206 17.0346 84.9269 15.6739 84.969 14.1493C85.015 12.478 84.6222 11.0141 83.8287 9.89975C83.4997 9.43727 83.0554 8.96604 82.6979 8.69915C82.1045 8.257 81.3955 7.94637 80.6253 7.79118C80.0797 7.68128 79.6147 7.645 78.9298 7.65915C77.3201 7.69184 75.9182 8.02641 74.5897 8.69452C73.4238 9.28131 72.4762 10.0253 71.478 11.1395C71.0113 11.6604 70.7176 12.0359 70.3894 12.5323C69.576 13.761 69.1012 15.055 68.9593 16.4314C68.905 16.9535 68.9063 17.6981 68.9619 18.2211L68.9725 18.3214L68.5662 18.4949C66.5706 19.3468 64.8725 19.8092 63.1398 19.9727C62.726 20.0113 61.8472 20.0267 61.6058 19.9999C60.9757 19.9284 60.4706 19.704 60.0622 19.3128C59.9351 19.191 59.7304 18.9561 59.7521 18.9561C59.7872 18.9561 60.3352 18.8475 60.6311 18.7821C62.7929 18.3044 64.6944 17.3746 66.2367 16.0422C67.5502 14.9075 68.3597 13.8348 68.7164 12.7565C68.8764 12.2729 68.9239 11.9466 68.9089 11.437C68.895 10.9521 68.8125 10.5048 68.6634 10.1023C68.2064 8.86798 67.1803 8.16152 65.5396 7.95126C64.675 7.84059 63.5034 7.88898 62.5078 8.07685C60.071 8.53701 57.9033 9.87736 56.0855 12.0469C55.4637 12.7894 54.9958 13.499 54.604 14.2932C54.0295 15.4577 53.7568 16.5469 53.7258 17.8062C53.7159 18.1958 53.7382 18.8282 53.7666 18.9473C53.7731 18.9769 53.7428 19.0037 53.6076 19.0902C53.3745 19.2394 53.1406 19.3588 52.9708 19.4155C52.8323 19.4618 52.8152 19.4633 52.5557 19.4541C52.2486 19.443 52.0949 19.4093 51.9181 19.3161C51.678 19.1882 51.5805 18.9862 51.535 18.5209C51.4774 17.9336 51.5492 17.4801 52.0393 15.3265C52.4296 13.6125 52.5722 12.7475 52.6188 11.8199C52.6834 10.5267 52.413 9.61459 51.7625 8.93232C51.3401 8.48863 50.7351 8.22972 49.9483 8.15509C49.6759 8.12935 49.1321 8.14273 48.8116 8.18314C47.4803 8.35094 46.2588 8.95008 45.1029 10.0022C44.8155 10.2637 44.3381 10.7529 44.0926 11.0378C43.9649 11.1858 43.7811 11.367 43.5782 11.5446L43.2621 11.8212L43.2505 11.4491C43.2257 10.6744 43.1104 10.1249 42.8657 9.61665C42.7418 9.35456 42.5738 9.11553 42.3689 8.90993C41.8246 8.36458 41.0285 8.11056 39.9688 8.14376C38.8311 8.17954 37.6879 8.5051 36.6574 9.08674C36.4506 9.20358 35.9831 9.51293 35.7796 9.66786C35.0534 10.2207 34.4015 10.8968 33.9371 11.5783C33.8701 11.6766 33.8151 11.7471 33.8151 11.7353C33.8151 11.7234 33.8293 11.6349 33.8461 11.5386C33.8934 11.2689 33.8885 10.6175 33.8368 10.2842C33.7417 9.67173 33.537 9.14285 33.202 8.64356C32.8771 8.15946 32.4845 7.87637 31.9839 7.76544C31.9079 7.74846 31.7644 7.73687 31.623 7.7361C31.4245 7.73482 31.3692 7.74099 31.2638 7.77574C31.0231 7.855 30.7396 8.02049 30.3739 8.29406C29.8916 8.6554 29.545 8.96166 28.3837 10.0524C27.4339 10.9446 26.6422 11.6794 26.4858 11.8145C26.4297 11.8632 26.383 11.9079 26.3819 11.9141C26.3809 11.9229 27.2573 12.9284 27.3641 13.0411C27.3832 13.0617 27.431 13.0347 27.6463 12.8821C28.1674 12.5127 28.5429 12.284 28.722 12.2258C28.9795 12.1424 29.1842 12.3097 29.2095 12.6244C29.2206 12.7621 29.1868 13.3355 29.1405 13.7985C29.0834 14.3704 28.9867 15.0372 28.7986 16.1616C28.7009 16.7448 28.5951 17.4201 28.5641 17.6621C28.5329 17.904 28.5039 18.1199 28.4995 18.142C28.4848 18.2174 27.6132 18.884 27.2108 19.1277C26.9885 19.2626 26.7066 19.3957 26.5709 19.4309C26.3362 19.4919 25.9904 19.4525 25.7489 19.3383C25.6471 19.2899 25.5799 19.2399 25.4776 19.1375C25.2051 18.8647 25.0785 18.4951 25.0526 17.8981C25.0423 17.6603 25.0452 17.6348 25.1522 16.9705C25.475 14.9747 25.7691 13.3206 26.0568 11.8871C26.2119 11.1148 26.2393 10.9526 26.2535 10.7133C26.3039 9.87813 26.1341 9.14954 25.7593 8.58849C25.3478 7.97313 24.7518 7.6993 23.8919 7.7307C23.6619 7.73945 23.581 7.74974 23.4481 7.78835C22.7609 7.98883 21.942 8.57124 20.5347 9.86063C20.1928 10.1738 19.8749 10.4644 19.8283 10.5066L19.7436 10.5828L19.7317 10.4345C19.6084 8.89604 19.0426 8.00222 17.9715 7.65375C17.1837 7.39741 15.9467 7.4548 15.0359 7.78989C14.6203 7.94302 14.1471 8.21248 13.7919 8.49867C13.5792 8.67007 13.2194 9.03861 13.0375 9.27153C12.5355 9.91416 12.1522 10.6543 11.8255 11.6125C11.7713 11.7721 11.7289 11.9118 11.7317 11.9226C11.7348 11.9352 11.8049 11.9172 11.9191 11.8742C12.3259 11.7214 12.6831 11.6544 13.0902 11.6544C13.4378 11.6544 13.5846 11.682 13.803 11.789C14.0731 11.9213 14.2461 12.1409 14.3386 12.4695C14.3655 12.5665 14.3711 12.6515 14.3706 12.9727C14.3699 13.3047 14.3639 13.3852 14.3288 13.5466C14.1882 14.1931 13.7919 15.0375 13.138 16.0865C12.3445 17.3586 11.7661 17.9876 11.3613 18.0185C11.2717 18.0249 11.2412 18.0185 11.1417 17.9696C10.7718 17.7882 10.4244 17.0665 10.1119 15.8296C9.84934 14.7899 9.68082 13.8896 9.28278 11.3927C9.13003 10.4356 9.0848 10.2006 8.98478 9.84853C8.56607 8.37488 7.79326 7.68 6.62966 7.73121C6.16727 7.75129 5.77286 7.90648 5.14996 8.31388C4.56713 8.69478 4.06209 9.10398 3.19107 9.90104C2.55498 10.4813 1.91597 11.0584 1.27405 11.6323C0.990256 11.885 0.956139 11.9213 0.978109 11.9468C1.12694 12.137 1.27478 12.328 1.42163 12.5197C1.68992 12.8679 1.8481 13.0589 1.86205 13.0512C1.87368 13.0442 1.97448 12.9755 2.08562 12.898C2.48366 12.6208 2.94811 12.3233 3.10914 12.2425C3.26318 12.1661 3.27921 12.1612 3.37845 12.1712C3.62322 12.1957 3.91218 12.4214 4.14273 12.7683C4.44281 13.2192 4.78656 14.0513 5.04813 14.9585C5.33039 15.9879 5.61005 17.018 5.8871 18.0489C6.40661 19.9739 6.68006 20.9548 6.73486 21.095C7.38386 22.7519 8.13237 23.6599 9.03389 23.8838C9.23807 23.9348 9.64231 23.9376 9.91395 23.8897C11.3686 23.6349 13.0178 22.3903 14.9398 20.0977C15.9214 18.926 17.0648 17.3643 17.8134 16.1709C18.4929 15.0877 19.0816 13.9131 19.3499 13.1057L19.3983 12.96L19.727 12.7258C20.1129 12.4512 20.2706 12.3496 20.4696 12.2479C20.604 12.1792 20.6257 12.1735 20.7505 12.1751C21.1956 12.1813 21.4543 12.5514 21.4595 13.1886C21.461 13.3834 21.4551 13.4182 21.3597 13.7906C21.2385 14.2636 21.04 14.9914 20.7505 16.0278C20.3476 17.4693 20.1739 18.1696 20.0038 19.0374C19.7449 20.3595 19.712 21.2126 19.893 21.9114C19.9868 22.2743 20.0902 22.5121 20.2763 22.7931C20.7436 23.4988 21.4616 23.8442 22.4628 23.8442C23.1421 23.8442 23.91 23.7124 24.612 23.4754C25.8821 23.0466 27.0785 22.2951 28.3974 21.0978C28.4894 21.0142 28.5675 20.9493 28.5711 20.9532C28.5921 21.0116 28.6105 21.0708 28.6264 21.1308C28.7763 21.6548 29.0345 22.1461 29.3338 22.4768C29.7743 22.9635 30.4139 23.3202 31.2077 23.5209C31.7435 23.6565 32.2227 23.7142 32.9567 23.7304C33.4473 23.7415 33.4602 23.7412 33.4473 23.7078C33.3545 23.4671 33.2589 23.0098 33.2126 22.5864C33.1263 21.7968 33.1255 20.5978 33.211 19.756C33.369 18.2007 33.8236 16.6764 34.5563 15.2462C35.2149 13.9602 35.8417 13.1978 36.4286 12.9675C36.5455 12.9217 36.5992 12.9119 36.7662 12.9055C36.904 12.9001 37.0053 12.9063 37.097 12.9256C37.5496 13.0213 37.8047 13.3111 37.9145 13.8541C37.9484 14.0204 37.943 14.6427 37.9052 14.9762C37.8378 15.5692 37.7357 16.0893 37.5243 16.9167C37.2955 17.8116 37.1903 18.4228 37.1373 19.1633C37.0603 20.238 37.1242 20.9612 37.3555 21.6308C37.7391 22.7421 38.6189 23.3626 40.1727 23.6185C40.602 23.6892 40.9952 23.7199 41.6186 23.7312C42.1787 23.7417 42.1942 23.7412 42.1833 23.7078C42.1774 23.689 42.1358 23.5683 42.091 23.4401C41.9954 23.1652 41.9137 22.7774 41.8701 22.3888C41.8316 22.0452 41.8264 20.9854 41.8615 20.6096C42.0301 18.8125 42.6511 17.0637 43.7832 15.2009C44.6038 13.8505 45.3324 13.0898 45.9608 12.9274C46.1125 12.8882 46.4182 12.898 46.5382 12.9464C46.8762 13.0818 47.0659 13.3757 47.143 13.8845C47.1776 14.1143 47.1776 14.6085 47.1422 14.9456C47.083 15.5141 46.921 16.3958 46.7356 17.1556C46.3885 18.5839 46.304 19.0019 46.2058 19.7832C46.0414 21.0896 46.1241 21.9991 46.4679 22.6683C46.7669 23.2509 47.2926 23.6257 48.0168 23.7718C48.5371 23.8774 49.2812 23.8632 49.976 23.7345C51.4169 23.4684 52.8718 22.7169 54.2737 21.5148L54.5296 21.2955L54.6144 21.4422C54.742 21.6549 54.8823 21.8599 55.0344 22.056C55.1858 22.2485 55.6573 22.7061 55.8558 22.8538C56.649 23.444 57.6296 23.7873 58.8366 23.8985C59.3791 23.9484 60.2651 23.9368 61.0198 23.8699C63.3791 23.6619 65.7156 22.9434 67.9857 21.7276C68.3318 21.5426 69.1467 21.0765 69.4168 20.9092C69.5393 20.8333 69.6453 20.7715 69.652 20.7715C69.6592 20.7715 69.7001 20.8418 69.7427 20.9282C69.996 21.4373 70.4341 22.0254 70.8489 22.4145ZM78.9714 18.1508C78.1515 19.5107 77.1919 20.2612 76.105 20.3924C75.7372 20.4364 75.4092 20.4063 75.1872 20.3075C74.8915 20.1762 74.6186 19.8787 74.4082 19.46C74.1074 18.8606 73.9895 18.2234 74.0378 17.4564C74.1283 16.0229 74.5333 14.749 75.3022 13.4809C75.8959 12.5024 76.5299 11.8714 77.2963 11.498C77.6995 11.3011 78.1151 11.1917 78.5876 11.1582C79.0042 11.1284 79.203 11.1801 79.4216 11.3744C79.6276 11.5579 79.7811 11.8294 79.9316 12.2785C80.097 12.7714 80.1709 13.2141 80.1869 13.8086C80.2262 15.2735 79.8109 16.7585 78.9714 18.1508ZM59.3319 17.2381C61.0042 16.5726 62.5157 15.3944 63.4087 14.0604C63.6868 13.6448 63.8625 13.2508 63.9179 12.9185C63.9445 12.761 63.9313 12.463 63.8907 12.2942C63.8587 12.1596 63.7762 11.9912 63.7007 11.9058C63.6255 11.8209 63.4885 11.7362 63.3536 11.6922C63.2187 11.6477 62.8388 11.6387 62.6633 11.6757C61.9171 11.833 61.1823 12.4015 60.4431 13.3949C59.64 14.4735 59.2012 15.4911 59.0998 16.51C59.0735 16.7725 59.075 17.321 59.1022 17.321C59.1135 17.3212 59.2169 17.2837 59.3319 17.2381Z" fill="#919EAB"/>
</svg>
