<svg width="86" height="26" viewBox="0 0 86 26" fill="none" xmlns="http://www.w3.org/2000/svg">
<path d="M13.1069 0C6.03765 0 0.306641 5.73085 0.306641 12.8001C0.306641 19.8696 6.03765 25.6 13.1069 25.6C20.1769 25.6 25.9073 19.8696 25.9073 12.8001C25.9073 5.73131 20.1769 0.000611402 13.1067 0.000611402L13.1069 0ZM18.977 18.4614C18.9224 18.5509 18.8506 18.6287 18.7659 18.6905C18.6811 18.7522 18.585 18.7967 18.4831 18.8212C18.3811 18.8458 18.2754 18.85 18.1718 18.8336C18.0682 18.8173 17.9689 18.7806 17.8795 18.7258C14.8741 16.8901 11.0908 16.4743 6.63514 17.4923C6.42883 17.5392 6.21233 17.5023 6.03322 17.3897C5.85411 17.277 5.72706 17.0979 5.67998 16.8916C5.65653 16.7895 5.65345 16.6837 5.67094 16.5804C5.68842 16.4771 5.72611 16.3782 5.78185 16.2895C5.83759 16.2007 5.91029 16.1238 5.99578 16.0632C6.08127 16.0026 6.17788 15.9595 6.28007 15.9363C11.156 14.8223 15.3385 15.3019 18.7125 17.3639C19.0886 17.5947 19.2078 18.0854 18.977 18.4614ZM20.5437 14.9761C20.2548 15.4456 19.6403 15.5939 19.1711 15.305C15.7304 13.1902 10.4856 12.5777 6.41596 13.813C5.88816 13.9724 5.33071 13.675 5.17052 13.1481C5.09409 12.8948 5.12122 12.6215 5.24598 12.3882C5.37074 12.1549 5.58294 11.9806 5.83604 11.9035C10.4847 10.4929 16.2639 11.1762 20.2151 13.6042C20.6843 13.8931 20.8326 14.5076 20.5437 14.9762V14.9761ZM20.6782 11.3468C16.5527 8.89641 9.74628 8.6711 5.80746 9.86655C5.17496 10.0584 4.50608 9.70132 4.3144 9.06882C4.22224 8.76494 4.25453 8.4369 4.40418 8.15683C4.55383 7.87676 4.80859 7.66759 5.11244 7.57531C9.63393 6.20271 17.1504 6.4679 21.9001 9.28755C22.0355 9.36763 22.1537 9.47363 22.2481 9.59948C22.3424 9.72532 22.411 9.86854 22.4499 10.0209C22.4888 10.1733 22.4972 10.3319 22.4748 10.4876C22.4523 10.6432 22.3993 10.7929 22.3189 10.9281C21.9826 11.497 21.2459 11.6846 20.6788 11.3468H20.6782ZM35.1318 11.8163C32.9216 11.2893 32.5288 10.9194 32.5288 10.1421C32.5288 9.40785 33.2197 8.91368 34.2483 8.91368C35.2449 8.91368 36.2324 9.28893 37.2687 10.0614C37.2993 10.0848 37.339 10.0941 37.3772 10.088C37.3964 10.0853 37.4149 10.0786 37.4315 10.0685C37.448 10.0583 37.4623 10.0449 37.4735 10.029L38.5526 8.50786C38.574 8.4777 38.583 8.44055 38.5779 8.40398C38.5727 8.3674 38.5539 8.33415 38.5251 8.31099C37.2916 7.32158 35.9037 6.84056 34.2804 6.84056C31.8944 6.84056 30.2268 8.27262 30.2268 10.3216C30.2268 12.5188 31.6652 13.2968 34.1505 13.8974C36.2645 14.3845 36.6221 14.7926 36.6221 15.5221C36.6221 16.3306 35.9007 16.8335 34.739 16.8335C33.4489 16.8335 32.3958 16.3979 31.2188 15.3799C31.1895 15.3551 31.1517 15.3425 31.1134 15.3447C31.0736 15.3478 31.0385 15.3661 31.014 15.3952L29.8034 16.835C29.753 16.8962 29.7591 16.9848 29.8172 17.0368C31.1867 18.2596 32.8712 18.9047 34.6901 18.9047C37.2611 18.9047 38.9225 17.4999 38.9225 15.3249C38.9271 13.4896 37.8281 12.4731 35.1364 11.8183L35.1318 11.8163ZM44.7401 9.63667C43.6258 9.63667 42.7117 10.0757 41.9566 10.9752V9.9627C41.9568 9.92441 41.9418 9.88763 41.9148 9.86043C41.8879 9.83323 41.8512 9.81784 41.813 9.81764H39.8335C39.7541 9.81764 39.6899 9.88276 39.6899 9.9627V21.2127C39.6899 21.2922 39.7541 21.3579 39.8335 21.3579H41.813C41.8924 21.3579 41.9566 21.2922 41.9566 21.2127V17.662C42.7117 18.5072 43.6258 18.9215 44.7401 18.9215C46.8112 18.9215 48.9083 17.3272 48.9083 14.2795C48.9114 11.2312 46.8143 9.63651 44.7416 9.63651L44.7401 9.63667ZM46.6064 14.2795C46.6064 15.8308 45.6511 16.9145 44.2815 16.9145C42.9288 16.9145 41.9077 15.7819 41.9077 14.2795C41.9077 12.777 42.9288 11.6447 44.2815 11.6447C45.6281 11.6445 46.6064 12.7524 46.6064 14.2794V14.2795ZM54.281 9.63667C51.6138 9.63667 49.5243 11.6904 49.5243 14.3127C49.5243 16.9069 51.6 18.9383 54.249 18.9383C56.9254 18.9383 59.021 16.8916 59.021 14.2795C59.021 11.6763 56.9391 9.63697 54.281 9.63697V9.63667ZM54.281 16.9298C52.8626 16.9298 51.7926 15.7895 51.7926 14.2788C51.7926 12.7611 52.8259 11.6598 54.249 11.6598C55.6766 11.6598 56.7527 12.7996 56.7527 14.3119C56.7527 15.8293 55.7133 16.9298 54.281 16.9298ZM64.7162 9.81764H62.5381V7.59121C62.5382 7.57226 62.5345 7.55348 62.5273 7.53594C62.5202 7.51841 62.5096 7.50245 62.4963 7.489C62.4829 7.47554 62.467 7.46485 62.4496 7.45752C62.4321 7.4502 62.4133 7.44639 62.3944 7.44631H60.415C60.3355 7.44631 60.2698 7.51142 60.2698 7.59121V9.81764H59.319C59.2395 9.81764 59.1754 9.88276 59.1754 9.9627V11.6635C59.1754 11.7433 59.2395 11.8085 59.319 11.8085H60.2698V16.2099C60.2698 17.9875 61.1548 18.8894 62.9019 18.8894C63.6111 18.8894 64.1996 18.7426 64.7544 18.4278C64.8003 18.4033 64.8278 18.3544 64.8278 18.3024V16.6822C64.8278 16.6333 64.8018 16.5859 64.759 16.5599C64.7382 16.5466 64.7142 16.539 64.6895 16.5379C64.6648 16.5369 64.6403 16.5423 64.6184 16.5538C64.2378 16.7449 63.8694 16.8335 63.4567 16.8335C62.8224 16.8335 62.5381 16.5446 62.5381 15.8996V11.8093H64.7162C64.7957 11.8093 64.8599 11.7442 64.8599 11.6642V9.96361C64.8605 9.94464 64.8573 9.92573 64.8504 9.90803C64.8436 9.89033 64.8332 9.87421 64.8199 9.86065C64.8066 9.84709 64.7907 9.83637 64.7731 9.82913C64.7556 9.8219 64.7367 9.8183 64.7177 9.81856L64.7162 9.81764ZM72.3037 9.82635V9.5529C72.3037 8.74845 72.6125 8.3897 73.3034 8.3897C73.7161 8.3897 74.0478 8.47163 74.4192 8.59544C74.4651 8.60981 74.5125 8.60263 74.5491 8.57526C74.5678 8.56184 74.5829 8.54414 74.5933 8.52366C74.6036 8.50319 74.6089 8.48052 74.6087 8.45757V6.78996C74.6091 6.75882 74.5993 6.7284 74.5808 6.70333C74.5623 6.67826 74.5362 6.65989 74.5063 6.65102C74.115 6.53439 73.6137 6.41471 72.8617 6.41471C71.0351 6.41471 70.0675 7.44401 70.0675 9.39027V9.80908H69.1168C69.0373 9.80908 68.9716 9.8742 68.9716 9.95398V11.6635C68.9716 11.7433 69.0373 11.8085 69.1168 11.8085H70.0675V18.5959C70.0675 18.6769 70.1333 18.7411 70.2127 18.7411H72.1906C72.2717 18.7411 72.3358 18.6769 72.3358 18.5959V11.809H74.1838L77.0146 18.5959C76.6936 19.3082 76.3772 19.4503 75.9462 19.4503C75.5977 19.4503 75.2293 19.3464 74.8548 19.14C74.8194 19.1221 74.7784 19.1183 74.7402 19.1293C74.702 19.1431 74.6699 19.1706 74.6546 19.2073L73.9836 20.6793C73.9515 20.7496 73.979 20.8306 74.0463 20.8673C74.7463 21.2463 75.3776 21.4084 76.1587 21.4084C77.6199 21.4084 78.4285 20.7266 79.1393 18.8955L82.5723 10.0244C82.5812 10.0025 82.5845 9.9787 82.5819 9.95517C82.5792 9.93164 82.5706 9.90916 82.557 9.88979C82.5441 9.8704 82.5266 9.8545 82.5061 9.84352C82.4855 9.83253 82.4626 9.82679 82.4393 9.82681H80.3789C80.3162 9.82681 80.2612 9.86609 80.2413 9.92403L78.1304 15.9516L75.8193 9.92005C75.809 9.89272 75.7906 9.86917 75.7666 9.85252C75.7426 9.83587 75.7141 9.8269 75.6848 9.82681H72.3037V9.82635ZM67.9047 9.81764H65.9253C65.8458 9.81764 65.7801 9.88276 65.7801 9.9627V18.5959C65.7801 18.6769 65.8458 18.7411 65.9253 18.7411H67.9047C67.9842 18.7411 68.0499 18.6769 68.0499 18.5959V9.96331C68.0499 9.94423 68.0462 9.92534 68.0389 9.90771C68.0316 9.89009 68.0209 9.87407 68.0074 9.86059C67.9939 9.84711 67.9779 9.83643 67.9603 9.82917C67.9427 9.8219 67.9238 9.81819 67.9047 9.81825V9.81764ZM66.9264 5.88646C66.1423 5.88646 65.5065 6.5211 65.5065 7.30507C65.5065 8.0895 66.1423 8.72491 66.9264 8.72491C67.7106 8.72491 68.3449 8.0895 68.3449 7.30507C68.3449 6.52125 67.709 5.88646 66.9264 5.88646ZM84.2628 12.5936C83.4802 12.5936 82.8704 11.9646 82.8704 11.2008C82.8704 10.437 83.4879 9.80083 84.2705 9.80083C85.0531 9.80083 85.663 10.4297 85.663 11.1928C85.663 11.9566 85.0454 12.5936 84.2628 12.5936ZM84.2705 9.93931C83.5567 9.93931 83.0171 10.5064 83.0171 11.2008C83.0171 11.8949 83.5536 12.4543 84.2628 12.4543C84.9767 12.4543 85.5162 11.8877 85.5162 11.1928C85.5162 10.4987 84.9797 9.93931 84.2705 9.93931ZM84.5792 11.3361L84.9736 11.8876H84.6404L84.2858 11.3816H83.9816V11.8876H83.7034V10.4257H84.3546C84.6954 10.4257 84.9186 10.5995 84.9186 10.892C84.9201 11.1317 84.781 11.2781 84.5808 11.3361H84.5792ZM84.3438 10.6765H83.9816V11.1389H84.3438C84.5242 11.1389 84.6327 11.0504 84.6327 10.9075C84.6327 10.7571 84.5242 10.6765 84.3438 10.6765Z" fill="#919EAB"/>
</svg>
