<svg width="101" height="22" viewBox="0 0 101 22" fill="none" xmlns="http://www.w3.org/2000/svg">
<path d="M100.516 9.64616V7.88971H98.3343V5.15908L98.2609 5.18169L96.2122 5.80853L96.1718 5.8208V7.8898H92.9382V6.73719C92.9382 6.20049 93.0582 5.78979 93.2947 5.51588C93.5296 5.24526 93.8655 5.10768 94.294 5.10768C94.602 5.10768 94.9209 5.18024 95.2419 5.32333L95.3224 5.35927V3.50948L95.2845 3.49557C94.9851 3.38794 94.5779 3.33374 94.0731 3.33374C93.4369 3.33374 92.8588 3.47219 92.3547 3.74658C91.8502 4.02135 91.4534 4.4136 91.1755 4.91233C90.8985 5.41048 90.7579 5.98582 90.7579 6.62251V7.88971H89.2391V9.64616H90.7579V17.0458H92.9382V9.64616H96.1718V14.3485C96.1718 16.2851 97.0853 17.2666 98.8869 17.2666C99.1829 17.2666 99.4945 17.2319 99.8126 17.164C100.136 17.0942 100.357 17.0245 100.487 16.9501L100.516 16.9331V15.1605L100.427 15.2191C100.309 15.2979 100.161 15.3624 99.9885 15.4103C99.815 15.4591 99.67 15.4835 99.5578 15.4835C99.1358 15.4835 98.8235 15.3698 98.6298 15.1454C98.4338 14.9189 98.3344 14.5229 98.3344 13.9689V9.64616H100.516ZM84.3701 15.4838C83.5788 15.4838 82.9548 15.2214 82.5151 14.7045C82.0727 14.185 81.8486 13.4444 81.8486 12.5034C81.8486 11.5325 82.0728 10.7726 82.5153 10.2439C82.9553 9.71872 83.5733 9.45216 84.3524 9.45216C85.1084 9.45216 85.7102 9.70674 86.1413 10.2092C86.5745 10.7143 86.7944 11.4681 86.7944 12.4503C86.7944 13.4446 86.5876 14.2083 86.1799 14.7192C85.775 15.2262 85.1662 15.4838 84.3701 15.4838ZM84.467 7.66914C82.9573 7.66914 81.7581 8.11154 80.903 8.98406C80.0486 9.85669 79.6154 11.0643 79.6154 12.5736C79.6154 14.0072 80.0382 15.1603 80.8724 16.0003C81.7066 16.8407 82.8418 17.2664 84.2463 17.2664C85.7098 17.2664 86.8851 16.8178 87.7398 15.9332C88.5943 15.0495 89.0273 13.8534 89.0273 12.3793C89.0273 10.9233 88.621 9.76162 87.8194 8.92716C87.0174 8.09231 85.8893 7.66914 84.467 7.66914ZM76.1 7.66914C75.073 7.66914 74.2235 7.93183 73.5745 8.44978C72.9216 8.97083 72.5904 9.65418 72.5904 10.4811C72.5904 10.9109 72.6619 11.2928 72.8026 11.6166C72.9441 11.9415 73.1631 12.2276 73.4541 12.4677C73.7429 12.7059 74.1887 12.9553 74.7794 13.2091C75.276 13.4135 75.6463 13.5863 75.8816 13.7225C76.1115 13.8561 76.2747 13.9903 76.3669 14.121C76.4564 14.2489 76.5019 14.424 76.5019 14.64C76.5019 15.2551 76.0412 15.5545 75.0933 15.5545C74.7417 15.5545 74.3407 15.481 73.9014 15.3363C73.4652 15.1938 73.0535 14.985 72.6807 14.7174L72.5902 14.6525V16.7516L72.6235 16.7671C72.9319 16.9095 73.3209 17.0296 73.7794 17.1241C74.2369 17.2186 74.6527 17.2668 75.0138 17.2668C76.1283 17.2668 77.0257 17.0028 77.6805 16.4818C78.3396 15.9571 78.6736 15.2576 78.6736 14.4021C78.6736 13.7849 78.4938 13.2557 78.1394 12.8288C77.7874 12.4055 77.1765 12.0168 76.3245 11.6732C75.6457 11.4008 75.2108 11.1746 75.0314 11.001C74.8584 10.8333 74.7706 10.5961 74.7706 10.2957C74.7706 10.0294 74.879 9.81611 75.1015 9.64336C75.3258 9.46975 75.6379 9.38144 76.0294 9.38144C76.3927 9.38144 76.7644 9.43883 77.134 9.55129C77.5034 9.66375 77.8278 9.81437 78.0986 9.99862L78.1877 10.0595V8.06825L78.1535 8.05357C77.9036 7.94642 77.5742 7.85473 77.174 7.78034C76.7757 7.70643 76.4143 7.66914 76.1 7.66914ZM66.9065 15.4838C66.1153 15.4838 65.4912 15.2214 65.0516 14.7045C64.6091 14.185 64.3853 13.4446 64.3853 12.5034C64.3853 11.5325 64.6094 10.7726 65.0521 10.2439C65.4917 9.71872 66.1095 9.45216 66.889 9.45216C67.6447 9.45216 68.2465 9.70674 68.6777 10.2092C69.111 10.7143 69.3308 11.4681 69.3308 12.4503C69.3308 13.4446 69.124 14.2083 68.7163 14.7192C68.3113 15.2262 67.7028 15.4838 66.9065 15.4838ZM67.0037 7.66914C65.4935 7.66914 64.2942 8.11154 63.4397 8.98406C62.5852 9.85669 62.1517 11.0643 62.1517 12.5736C62.1517 14.0077 62.5749 15.1603 63.409 16.0003C64.2432 16.8407 65.3783 17.2664 66.7828 17.2664C68.2461 17.2664 69.4217 16.8178 70.2764 15.9332C71.1308 15.0495 71.5639 13.8534 71.5639 12.3793C71.5639 10.9233 71.1575 9.76162 70.3557 8.92716C69.5535 8.09231 68.4256 7.66914 67.0037 7.66914ZM58.8421 9.47535V7.88971H56.6883V17.0456H58.8421V12.362C58.8421 11.5656 59.0226 10.9113 59.3789 10.4172C59.7307 9.92886 60.1995 9.68143 60.7718 9.68143C60.9658 9.68143 61.1836 9.71341 61.4194 9.77669C61.6529 9.83959 61.8219 9.90789 61.9216 9.97978L62.0122 10.0454V7.87406L61.9773 7.85908C61.7767 7.77387 61.493 7.73087 61.1339 7.73087C60.5927 7.73087 60.1084 7.90478 59.6935 8.24718C59.3294 8.54814 59.0662 8.96078 58.865 9.47535H58.8421ZM52.8314 7.66914C51.8433 7.66914 50.962 7.88101 50.2123 8.29868C49.4612 8.71731 48.8802 9.31497 48.485 10.0749C48.0915 10.8331 47.8917 11.7186 47.8917 12.7062C47.8917 13.5713 48.0854 14.3652 48.4683 15.0649C48.8513 15.7657 49.3935 16.314 50.0799 16.6943C50.7653 17.0741 51.5574 17.2667 52.4345 17.2667C53.458 17.2667 54.3319 17.062 55.0325 16.6585L55.0608 16.6422V14.6691L54.9703 14.7352C54.6529 14.9664 54.2983 15.1509 53.9166 15.2838C53.536 15.4167 53.1889 15.4838 52.8846 15.4838C52.0395 15.4838 51.3611 15.2194 50.8686 14.6981C50.3751 14.176 50.1249 13.443 50.1249 12.5206C50.1249 11.5925 50.3859 10.8406 50.9001 10.2859C51.4129 9.73273 52.0926 9.45216 52.9202 9.45216C53.6281 9.45216 54.3179 9.69186 54.9705 10.1653L55.0608 10.2309V8.15182L55.0317 8.1354C54.7861 7.99792 54.4511 7.88439 54.0353 7.79831C53.6212 7.71242 53.2162 7.66914 52.8314 7.66914ZM46.4083 7.8898H44.2546V17.0456H46.4083V7.8898ZM45.3535 3.98937C44.999 3.98937 44.6899 4.11004 44.4359 4.34916C44.1808 4.58896 44.0514 4.89088 44.0514 5.2472C44.0514 5.59791 44.1792 5.89432 44.4319 6.12774C44.6829 6.36049 44.993 6.47846 45.3536 6.47846C45.7141 6.47846 46.0254 6.36049 46.2794 6.12813C46.535 5.89432 46.6647 5.598 46.6647 5.2472C46.6647 4.90334 46.5385 4.60451 46.2899 4.35882C46.0415 4.11362 45.7263 3.98937 45.3535 3.98937ZM39.9798 7.21427V17.0456H42.1778V4.26965H39.1357L35.269 13.7593L31.5166 4.26965H28.3506V17.0455H30.4161V7.21331H30.487L34.4495 17.0456H36.0083L39.9089 7.21427H39.9798Z" fill="#919EAB"/>
<path d="M10.7724 10.1318H0.640625V0H10.7724V10.1318Z" fill="#919EAB"/>
<path d="M21.959 10.1324H11.8274V0.000610352H21.959V10.1324Z" fill="#919EAB"/>
<path d="M10.7721 21.323H0.640625V11.1913H10.7721V21.323Z" fill="#919EAB"/>
<path d="M21.959 21.323H11.8274V11.1913H21.959V21.323Z" fill="#919EAB"/>
</svg>
