<svg width="58" height="64" viewBox="0 0 58 64" fill="none" xmlns="http://www.w3.org/2000/svg">
<path d="M19.2371 4.89426C19.0756 4.51151 18.6862 4.25888 18.2695 4.27663C17.8585 4.29401 17.4882 4.57201 17.3604 4.96351C17.0789 5.82513 18.0429 6.60338 18.8239 6.13838C19.2492 5.88488 19.4199 5.35088 19.2371 4.89426Z" fill="#FA541C"/>
<path d="M23.5127 4.89426C23.3502 4.50913 22.9573 4.25551 22.5374 4.27688C22.1199 4.29813 21.7486 4.58601 21.6282 4.98676C21.5084 5.38501 21.6512 5.82538 21.9826 6.07651C22.3356 6.34401 22.8379 6.34388 23.1909 6.07651C23.5528 5.80226 23.6806 5.31388 23.5127 4.89426Z" fill="#FA541C"/>
<path d="M14.9609 4.89425C14.7949 4.50088 14.3891 4.24613 13.961 4.27875C13.542 4.31088 13.1816 4.60725 13.0695 5.01188C12.8256 5.89113 13.8531 6.6275 14.607 6.1C14.9911 5.83113 15.1345 5.32775 14.9609 4.89425Z" fill="#FA541C"/>
<path d="M20.4485 57.7203H16.1728C15.6195 57.7203 15.1707 58.1689 15.1707 58.7224C15.1707 59.2758 15.6193 59.7245 16.1728 59.7245H20.4485C21.0018 59.7245 21.4506 59.2759 21.4506 58.7224C21.4506 58.1689 21.0018 57.7203 20.4485 57.7203Z" fill="#FA541C"/>
<path d="M14.0354 42.7557H8.69094C8.13756 42.7557 7.68881 43.2043 7.68881 43.7578C7.68881 44.3113 8.13744 44.76 8.69094 44.76H14.0354C14.5888 44.76 15.0376 44.3113 15.0376 43.7578C15.0376 43.2043 14.5888 42.7557 14.0354 42.7557Z" fill="#FA541C"/>
<path d="M17.2421 45.9624H8.69094C8.13756 45.9624 7.68881 46.411 7.68881 46.9645C7.68881 47.5179 8.13744 47.9667 8.69094 47.9667H17.2421C17.7954 47.9667 18.2442 47.518 18.2442 46.9645C18.2442 46.4112 17.7956 45.9624 17.2421 45.9624Z" fill="#FA541C"/>
<path d="M18.3107 23.5156C16.5794 23.5156 15.1709 24.9241 15.1709 26.6555C15.1709 28.3869 16.5794 29.7954 18.3107 29.7954C20.0421 29.7954 21.4506 28.3869 21.4506 26.6555C21.4506 24.9241 20.042 23.5156 18.3107 23.5156ZM18.3107 27.7913C17.6845 27.7913 17.175 27.2817 17.175 26.6555C17.175 26.0293 17.6845 25.5198 18.3107 25.5198C18.937 25.5198 19.4465 26.0293 19.4465 26.6555C19.4465 27.2817 18.9369 27.7913 18.3107 27.7913Z" fill="#FA541C"/>
<path d="M24.7293 14.4045C22.7628 13.3722 20.5434 12.8266 18.311 12.8266C16.0786 12.8266 13.8593 13.3721 11.8928 14.4045C11.4028 14.6617 11.214 15.2675 11.4713 15.7575C11.7286 16.2476 12.3343 16.4362 12.8243 16.179C14.5046 15.297 16.4019 14.8309 18.3111 14.8309C20.2204 14.8309 22.1176 15.297 23.7979 16.179C23.9466 16.257 24.1059 16.294 24.2628 16.294C24.7374 16.294 25.1576 15.9476 25.2479 15.4815C25.3305 15.0525 25.1158 14.6075 24.7293 14.4045Z" fill="#FA541C"/>
<path d="M21.752 20.0875C20.6961 19.5332 19.506 19.2402 18.3106 19.2402C17.1153 19.2402 15.9251 19.5332 14.8693 20.0875C14.3793 20.3447 14.1905 20.9505 14.4478 21.4405C14.705 21.9305 15.3108 22.1194 15.8008 21.862C16.5816 21.4523 17.426 21.2444 18.3108 21.2444C19.1955 21.2444 20.04 21.4521 20.8208 21.862C21.3048 22.116 21.9201 21.9238 22.1738 21.4405C22.4308 20.9505 22.2421 20.3445 21.752 20.0875Z" fill="#FA541C"/>
<path d="M23.2403 17.2469C21.7278 16.4532 20.0231 16.0334 18.3108 16.0334C16.5984 16.0334 14.8938 16.453 13.3814 17.2469C12.8914 17.5042 12.7026 18.1098 12.9599 18.5999C13.217 19.0899 13.8228 19.2788 14.3129 19.0214C15.5566 18.3685 16.9016 18.0376 18.3106 18.0376C19.7198 18.0376 21.0648 18.3688 22.3084 19.0214C22.4573 19.0994 22.6165 19.1364 22.7735 19.1364C23.2481 19.1364 23.6684 18.79 23.7586 18.3239C23.8415 17.8949 23.6269 17.4499 23.2403 17.2469Z" fill="#FA541C"/>
<path d="M56.8418 13.3663L53.7988 13.2107C52.3548 13.137 47.2331 12.2054 43.7083 10.443L42.2743 9.72587C41.9923 9.58475 41.6601 9.58475 41.3781 9.72587L39.9441 10.443C38.8668 10.9816 37.6401 11.4423 36.4149 11.825V5.27763C36.4149 2.36762 34.0473 0 31.1372 0H5.4838C2.57368 0 0.206055 2.36762 0.206055 5.27763V19.2178C0.206055 19.7711 0.654679 20.2199 1.20818 20.2199C1.76155 20.2199 2.2103 19.7712 2.2103 19.2178V10.5553H34.4107V12.3875C32.3864 12.896 30.6121 13.1719 29.8534 13.2106L26.8104 13.3661C26.2776 13.3934 25.8596 13.8334 25.8596 14.3669V30.9977H7.62155C5.89018 30.9977 4.48168 32.4062 4.48168 34.1376V48.0332C4.48168 49.7646 5.89018 51.1731 7.62155 51.1731H28.9994C30.7308 51.1731 32.1393 49.7646 32.1393 48.0332V42.6651C32.8856 43.3678 33.6642 44.0305 34.4623 44.6445C34.4293 44.7439 34.4107 44.8498 34.4107 44.9603V53.4446H2.2103V23.4044C2.2103 22.851 1.76168 22.4023 1.20818 22.4023C0.654804 22.4023 0.206055 22.8509 0.206055 23.4044V58.7224C0.206055 61.6325 2.57368 64 5.48368 64H31.1372C34.0473 64 36.4148 61.6324 36.4148 58.7224V46.0234C37.6979 46.8503 38.9987 47.5384 40.2629 48.0441L41.4539 48.5205C41.6912 48.6155 41.9611 48.6155 42.1983 48.5205L43.3892 48.0441C46.5743 46.7701 49.9931 44.3537 52.7689 41.4146C55.0607 38.9881 57.7926 35.2653 57.7926 31.3097V14.367C57.7928 13.8335 57.3747 13.3935 56.8418 13.3663ZM34.4107 58.7224C34.4107 60.5274 32.9422 61.9959 31.1372 61.9959H5.4838C3.6788 61.9959 2.2103 60.5274 2.2103 58.7224V55.4489H34.4107V58.7224ZM2.2103 8.55112V5.27763C2.2103 3.47263 3.6788 2.00413 5.4838 2.00413H31.1373C32.9423 2.00413 34.4108 3.47263 34.4108 5.27763V8.55112H2.2103ZM6.4858 34.1377C6.4858 33.5115 6.9953 33.002 7.62155 33.002H26.0219C26.2379 34.1596 26.6571 35.2825 27.1957 36.3423H6.4858V34.1377ZM6.4858 38.3465H28.3908C28.6754 38.7635 28.9714 39.165 29.2727 39.549H6.4858V38.3465ZM30.1352 48.0334C30.1352 48.6596 29.6257 49.1691 28.9994 49.1691H7.62155C6.9953 49.1691 6.4858 48.6596 6.4858 48.0334V41.5532H30.1351L30.1352 48.0334ZM51.3121 40.0384C48.7288 42.7736 45.5697 45.0134 42.6449 46.1833L41.8262 46.5107L41.0074 46.1833C38.0827 45.0134 34.9237 42.7736 32.3404 40.0384C30.2982 37.8761 27.8638 34.6065 27.8638 31.3096V15.3193L29.9559 15.2124C31.3637 15.1404 36.7756 14.2679 40.8403 12.2355L41.8262 11.7426L42.8121 12.2355C46.8768 14.2679 52.2888 15.1404 53.6964 15.2124L55.7886 15.3193V31.3096C55.7886 34.6065 53.3542 37.8761 51.3121 40.0384Z" fill="#FA541C"/>
<path d="M44.0981 25.6311H40.691V24.1614H46.2358C47.8936 24.1614 49.2421 22.8129 49.2421 21.1551C49.2421 19.4974 47.8936 18.1489 46.2358 18.1489H44.9666V17.9485C44.9666 16.2907 43.6181 14.9422 41.9603 14.9422C40.3026 14.9422 38.9541 16.2907 38.9541 17.9485V18.2222C36.5296 18.6361 34.6785 20.7525 34.6785 23.293V26.4997C34.6785 29.3362 36.9861 31.6437 39.8224 31.6437H43.2296V33.1135H37.6847C36.027 33.1135 34.6785 34.462 34.6785 36.1197C34.6785 37.7775 36.027 39.126 37.6847 39.126H38.9539V39.3264C38.9539 40.9841 40.3025 42.3326 41.9602 42.3326C43.618 42.3326 44.9664 40.9841 44.9664 39.3264V39.0526C47.3909 38.6387 49.2421 36.5224 49.2421 33.9819V30.7752C49.2421 27.9387 46.9346 25.6311 44.0981 25.6311ZM47.2379 33.9819C47.2379 35.7132 45.8295 37.1217 44.0981 37.1217H43.9645C43.4111 37.1217 42.9623 37.5704 42.9623 38.1239V39.3264C42.9623 39.879 42.5128 40.3285 41.9602 40.3285C41.4076 40.3285 40.9581 39.879 40.9581 39.3264V38.1239C40.9581 37.5705 40.5095 37.1217 39.956 37.1217H37.6846C37.132 37.1217 36.6824 36.6722 36.6824 36.1196C36.6824 35.567 37.132 35.1175 37.6846 35.1175H44.0979C44.7242 35.1175 45.2337 34.608 45.2337 33.9817V30.7751C45.2337 30.1489 44.7242 29.6394 44.0979 29.6394H39.8224C38.0911 29.6394 36.6826 28.2309 36.6826 26.4995V23.2929C36.6826 21.5615 38.0911 20.153 39.8224 20.153H39.9561C40.5094 20.153 40.9582 19.7044 40.9582 19.1509V17.9484C40.9582 17.3957 41.4077 16.9462 41.9603 16.9462C42.513 16.9462 42.9625 17.3957 42.9625 17.9484V19.1509C42.9625 19.7042 43.4111 20.153 43.9646 20.153H46.236C46.7886 20.153 47.2381 20.6025 47.2381 21.1551C47.2381 21.7077 46.7886 22.1572 46.236 22.1572H39.8224C39.1962 22.1572 38.6867 22.6667 38.6867 23.293V26.4996C38.6867 27.1259 39.1962 27.6354 39.8224 27.6354H44.0981C45.8295 27.6354 47.2379 29.0439 47.2379 30.7752V33.9819Z" fill="#FA541C"/>
</svg>
