<svg width="62" height="64" viewBox="0 0 62 64" fill="none" xmlns="http://www.w3.org/2000/svg">
<path d="M23.393 14.589C23.5402 14.7325 23.6075 14.9394 23.5727 15.1421L22.7375 20.0116C22.383 21.8788 24.468 23.6511 26.3647 22.6469L30.7377 20.3477C30.9198 20.2521 31.1372 20.2519 31.3193 20.3477L35.6924 22.6469C37.3643 23.6 39.6916 22.0521 39.3197 20.0116L38.4844 15.1421C38.4497 14.9394 38.5168 14.7326 38.6642 14.589L42.2021 11.1403C42.8884 10.4711 43.1308 9.48925 42.8347 8.57763C42.5384 7.666 41.7652 7.014 40.8166 6.87625L35.9271 6.16575C35.7237 6.13625 35.5478 6.00837 35.4567 5.824L33.2703 1.3935C32.8461 0.534 31.9871 0 31.0286 0C30.0701 0 29.2111 0.534 28.7868 1.3935L26.6003 5.82387C26.5092 6.0085 26.3333 6.13625 26.1297 6.16575L21.2403 6.87625C19.311 7.09212 18.3626 9.7085 19.855 11.1404L23.393 14.589ZM21.0056 9.15713C21.0417 9.046 21.1631 8.78212 21.5101 8.73175L26.3992 8.02125C27.2136 7.90312 27.9173 7.392 28.2817 6.65387L30.4682 2.2235C30.6233 1.909 30.9117 1.87513 31.0286 1.87513C31.1455 1.87513 31.4338 1.909 31.589 2.2235L33.7756 6.654C34.1399 7.392 34.8436 7.90312 35.6578 8.02125L40.5471 8.73175C40.8941 8.78212 41.0156 9.04613 41.0516 9.15713C41.0876 9.26813 41.1446 9.553 40.8934 9.79762L37.3556 13.2463C36.7663 13.8206 36.4974 14.6479 36.6366 15.459L37.4718 20.3285C37.5311 20.6741 37.3177 20.8711 37.2232 20.9398C37.1287 21.0084 36.8756 21.1504 36.5651 20.9872L32.1919 18.6881C31.4636 18.3053 30.5938 18.3053 29.8653 18.6881L25.4922 20.9872C25.1818 21.1507 24.9286 21.0084 24.8341 20.9398C24.7396 20.8711 24.5262 20.6741 24.5855 20.3285L25.4207 15.459C25.5598 14.6479 25.291 13.8206 24.7017 13.2463L21.1638 9.79775C20.9127 9.553 20.9696 9.26825 21.0056 9.15713Z" fill="#FA541C"/>
<path d="M41.7871 17.3744C41.5437 18.1231 41.7428 18.9299 42.3067 19.4796L44.8339 21.943C44.8761 21.9841 44.8953 22.0432 44.8854 22.1012L44.2888 25.5799C43.9789 27.115 45.7309 28.5401 47.2686 27.7446L50.3924 26.1022C50.4446 26.0749 50.5068 26.0749 50.5588 26.1022L53.6827 27.7446C54.9224 28.5094 57.0116 27.3001 56.6624 25.5799L56.0658 22.1012C56.0558 22.0432 56.0752 21.984 56.1172 21.9431L58.6447 19.4795C59.7843 18.4467 59.2177 16.2077 57.5064 15.9767L54.0138 15.4692C53.9557 15.4609 53.9053 15.4242 53.8793 15.3715L52.3173 12.2067C51.6467 10.7915 49.4899 10.647 48.6342 12.2066L47.0723 15.3714C47.0463 15.4242 46.9959 15.4609 46.9378 15.4692L43.4451 15.9767C42.6656 16.09 42.0303 16.6255 41.7871 17.3744ZM43.5703 17.9537C43.5931 17.8836 43.6416 17.8427 43.7144 17.8321L47.2072 17.3246C47.8761 17.2274 48.4541 16.8074 48.7534 16.2012L50.3154 13.0364C50.3481 12.9704 50.4019 12.9367 50.4756 12.9367C50.5492 12.9367 50.6031 12.9702 50.6357 13.0362L52.1978 16.2014C52.4971 16.8075 53.0751 17.2274 53.7441 17.3246L57.2367 17.8321C57.3096 17.8427 57.3582 17.8836 57.3809 17.9537C57.4037 18.0239 57.3886 18.0855 57.3358 18.1369L54.8082 20.6006C54.3242 21.0725 54.1036 21.752 54.2177 22.4181L54.8143 25.8969C54.8268 25.9694 54.8029 26.0282 54.7433 26.0714C54.6837 26.1147 54.6204 26.1192 54.5552 26.0849L51.4311 24.4425C50.8328 24.128 50.1184 24.128 49.5199 24.4425L46.3959 26.0849C46.3307 26.119 46.2674 26.1146 46.2078 26.0714C46.1482 26.0281 46.1243 25.9694 46.1368 25.8967L46.7334 22.4181C46.8477 21.7519 46.6268 21.0724 46.1428 20.6004L43.6156 18.137C43.5627 18.0854 43.5474 18.0237 43.5703 17.9537Z" fill="#FA541C"/>
<path d="M5.81481 21.9441C5.85694 21.9852 5.87619 22.0443 5.86631 22.1023L5.26969 25.581C5.00981 27.0918 6.61806 28.5717 8.24944 27.7457L11.3733 26.1033C11.4254 26.076 11.4877 26.076 11.5397 26.1033L14.6637 27.7457C15.9981 28.5103 17.9524 27.2798 17.6434 25.581L17.0468 22.1022C17.0368 22.0443 17.0561 21.9852 17.0982 21.9442L19.6253 19.4806C20.7649 18.4478 20.1983 16.2088 18.4871 15.9778L14.9946 15.4703C14.9363 15.462 14.8859 15.4253 14.8599 15.3726L13.2979 12.2077C12.6531 10.783 10.3671 10.6628 9.61481 12.2077L8.05281 15.3725C8.02681 15.4253 7.97644 15.462 7.91831 15.4703L4.42556 15.9778C2.86981 16.1576 2.05569 18.2642 3.28744 19.4807L5.81481 21.9441ZM4.55106 17.9548C4.57381 17.8847 4.62231 17.8438 4.69519 17.8332L8.18794 17.3257C8.85681 17.2285 9.43481 16.8085 9.73419 16.2023L11.2962 13.0373C11.3288 12.9713 11.3827 12.9378 11.4563 12.9378C11.5299 12.9378 11.5839 12.9713 11.6164 13.0375L13.1784 16.2025C13.4777 16.8086 14.0557 17.2285 14.7247 17.3257L18.2173 17.8332C18.2902 17.8438 18.3388 17.8847 18.3616 17.9548C18.3843 18.025 18.3692 18.0866 18.3164 18.138L15.7889 20.6016C15.3048 21.0735 15.0841 21.7531 15.1984 22.4192L15.7951 25.8978C15.8076 25.9705 15.7836 26.0293 15.7241 26.0725C15.6646 26.1158 15.6012 26.1203 15.5359 26.086L12.4119 24.4436C11.8136 24.1291 11.0992 24.1291 10.5007 24.4436L7.37669 26.086C7.31156 26.1203 7.24819 26.1157 7.18869 26.0725C7.12919 26.0292 7.10519 25.9705 7.11769 25.8978L7.71431 22.4193C7.82869 21.7531 7.60781 21.0735 7.12369 20.6015L4.59644 18.1381C4.54356 18.0865 4.52831 18.0248 4.55106 17.9548Z" fill="#FA541C"/>
<path d="M28.953 15.2002C29.3778 15.4732 29.7217 15.6147 30.0911 15.6852V15.9771C30.0911 16.4905 30.4866 16.9381 30.9997 16.9535C31.5306 16.9695 31.9661 16.5439 31.9661 16.0164V15.5527C32.7718 15.2217 33.38 14.497 33.5317 13.593C33.7286 12.4206 33.094 11.3621 31.9525 10.9591C31.7627 10.882 31.4875 10.8326 30.8863 10.607C30.721 10.526 30.6253 10.3429 30.6656 10.1631C30.685 10.0882 30.7381 9.94035 30.9433 9.80035C31.2247 9.65648 31.5736 9.95123 31.5888 9.96385C32.0097 10.3114 32.6429 10.2296 32.9592 9.77048C33.2463 9.35373 33.1247 8.7841 32.7259 8.47248C32.5096 8.30335 32.251 8.15323 31.9661 8.04623V7.77698C31.9661 7.2636 31.5706 6.81598 31.0575 6.8006C30.5266 6.7846 30.0911 7.21023 30.0911 7.73773V8.1241C30.0863 8.12648 30.0816 8.12823 30.0768 8.1306C29.4301 8.46123 28.974 9.0706 28.8255 9.80273C28.6875 10.483 28.8448 11.1749 29.2463 11.6532C29.8198 12.3027 30.4847 12.4681 31.3283 12.7271C31.4328 12.764 31.7508 12.8762 31.6827 13.2822C31.6461 13.5005 31.4578 13.8705 30.9848 13.8736C30.4436 13.877 30.3287 13.8594 29.9408 13.606C29.477 13.3031 28.8442 13.4636 28.5882 13.9741C28.3705 14.4082 28.5443 14.9377 28.953 15.2002Z" fill="#FA541C"/>
<path d="M58.7848 55.0978L54.0633 53.1523V51.3258C55.6435 49.7659 56.969 47.1059 57.1985 44.9062C58.8006 40.7872 57.0658 37.3097 55.2907 35.6909C55.7888 32.8922 53.4356 30.0696 50.5418 30.1256C47.6651 30.1333 45.328 32.7278 45.7903 35.6751C44.7386 36.5898 43.8795 37.9849 43.4421 39.5173C42.8821 41.4793 43.0561 43.4901 43.9261 45.2021C44.2522 47.3504 45.4586 49.7388 47.0225 51.3218V53.1524L43.2865 54.6919C42.8511 54.1529 42.2977 53.7057 41.6516 53.4002C41.1836 53.1789 40.6247 53.3788 40.4033 53.8468C40.182 54.3149 40.382 54.8738 40.85 55.0952C41.829 55.5582 42.4616 56.5574 42.4616 57.6409V62.1252H31.9651V57.4012C32.935 57.3677 33.7135 56.5684 33.7135 55.5907V53.0548C33.9928 52.8881 34.2566 52.6937 34.5026 52.4758L36.8497 53.4431C37.1927 53.5737 37.7896 53.5123 38.0737 52.9334C38.2711 52.4547 38.0428 51.9067 37.5641 51.7094L35.2196 50.7433V47.1886C37.4171 45.3697 38.7205 42.4147 39.1272 39.2348C40.2233 37.3892 42.0313 32.5447 38.8508 29.3243C37.5397 27.9969 35.6835 27.7378 34.1718 28.0506C32.9527 25.3789 28.933 25.0581 25.5331 27.0461C25.0876 27.3098 24.9403 27.8849 25.2042 28.3304C25.468 28.7758 26.0432 28.9232 26.4886 28.6593C29.1763 27.1886 31.9963 27.2169 32.558 29.1287L31.3566 32.3346C30.6931 33.0714 29.8548 33.6406 28.9191 33.9811C26.5987 34.8256 25.0306 36.1732 24.1061 37.1847C23.639 35.6508 23.3905 33.3552 24.0918 31.4463C24.2703 30.9602 24.0212 30.4216 23.5351 30.2429C23.0493 30.0646 22.5105 30.3137 22.3318 30.7996C21.2433 33.7623 21.9535 37.4646 22.9298 39.2422C23.3602 42.4089 24.5173 45.2121 26.8378 47.1901V50.7434L20.6251 53.3033C19.873 53.6132 19.2356 54.1017 18.7503 54.7067L14.9786 53.1524V51.1089C16.754 49.1703 18.2155 45.6092 18.1701 43.2204C18.1701 38.8651 15.6606 36.2648 11.4572 36.2648C9.79247 36.2648 8.38534 36.6714 7.27534 37.4732C6.85559 37.7764 6.76109 38.3624 7.06434 38.7822C7.36759 39.2019 7.95359 39.2964 8.37322 38.9932C9.15709 38.4269 10.1947 38.1398 11.4572 38.1398C15.4557 38.1398 16.2951 40.9027 16.2951 43.2204C16.4381 45.6112 13.8797 50.9874 11.4572 51.2277C8.60834 50.6928 6.14222 44.9872 6.68559 42.1573C6.75284 41.6439 6.39122 41.1732 5.87784 41.1059C5.36459 41.0401 4.89384 41.4003 4.82647 41.9137C4.39034 44.8803 5.73134 48.5484 7.93759 51.1099V53.1522L3.21609 55.0977C1.68722 55.7276 0.699219 57.2032 0.699219 58.8568V61.8112C0.699219 63.0181 1.68109 64.0001 2.88797 64.0001H59.113C60.3198 64.0001 61.3017 63.0182 61.3017 61.8112V58.8568C61.3016 57.2033 60.3137 55.7277 58.7848 55.0978ZM37.5167 30.6418C39.4283 32.5773 38.7615 35.5303 38.0061 37.2969C37.3221 36.6071 36.3002 35.6848 35.0472 34.8828C34.1983 34.3393 33.5313 33.6008 33.1762 32.8216L34.2465 29.9657C35.1486 29.7062 36.5816 29.6951 37.5167 30.6418ZM24.825 39.2713C25.2581 38.6482 26.7492 36.7659 29.5601 35.7429C30.4172 35.4309 31.2128 34.9728 31.9113 34.3956C32.432 35.1886 33.1571 35.8989 34.0363 36.4618C35.578 37.4487 36.749 38.6691 37.2376 39.2168C36.7211 42.9198 34.5846 46.8234 31.0275 46.8234C27.4898 46.8234 25.3541 42.9536 24.825 39.2713ZM31.0275 48.6984C31.837 48.6984 32.6123 48.5547 33.3445 48.2764V50.9967C32.183 52.1596 29.9971 52.2374 28.7127 50.9974V48.2773C29.4442 48.5551 30.2188 48.6984 31.0275 48.6984ZM17.7208 62.1252H15.8478L17.7207 59.4624L17.7208 62.1252ZM7.93747 60.1004L5.25434 56.2859L7.93747 55.1804V60.1004ZM9.81247 56.8253C10.7251 57.2093 11.997 57.2753 13.1035 56.8252V62.1252H9.81247V56.8253ZM14.9785 55.1803L17.6626 56.2863L14.9785 60.1024V55.1803ZM13.1035 52.6522V54.6493C12.2855 55.4083 10.7792 55.5063 9.81247 54.6487C9.81247 54.1712 9.81247 53.1634 9.81247 52.6528C10.8002 53.1667 11.9042 53.3008 13.1035 52.6522ZM2.57409 61.8113V58.8569C2.57409 58.1292 2.92934 57.4658 3.50822 57.0622L7.06934 62.1252H2.88784C2.71484 62.1252 2.57409 61.9844 2.57409 61.8113ZM19.5958 57.6408C19.5958 56.4953 20.2802 55.4731 21.3392 55.0368L27.5546 52.4758C28.6983 53.4381 30.1745 53.9848 31.8383 53.7313V55.5283C30.8685 55.5618 30.09 56.3611 30.09 57.3389V62.1252H19.5958V57.6408ZM50.5418 32.0004C52.0273 32.0004 53.2577 33.1099 53.45 34.5436C51.646 33.8064 49.4802 33.8142 47.6307 34.5674C47.8123 33.1223 49.0481 32.0004 50.5418 32.0004ZM47.3226 36.8524C48.1891 36.2449 49.3998 35.8706 50.6357 35.8706C51.7236 35.8706 52.8311 36.1606 53.7406 36.8371C54.6733 37.5309 56.6857 39.9943 55.6995 43.4929C54.883 42.8953 53.757 41.3401 53.0246 39.9133C52.8821 39.6351 52.6102 39.4466 52.2998 39.4099C51.9896 39.3733 51.6811 39.4942 51.4777 39.7313C50.5431 40.8227 47.7675 43.5239 45.4003 43.9253C44.2777 41.1468 45.682 38.0028 47.3226 36.8524ZM45.9437 45.7267C48.3871 45.2053 50.7582 43.1459 52.0047 41.9052C52.6192 43.0102 54.2355 45.0086 55.224 45.3718C54.5853 48.4296 52.1535 51.2277 50.5417 51.2277C49.0297 51.2277 46.6961 48.6253 45.9437 45.7267ZM50.5418 53.1027C51.076 53.1027 51.6318 52.9637 52.1882 52.6998C52.1883 52.6932 52.1881 53.7131 52.1883 53.7929C52.2226 55.2431 51.6053 56.8691 50.545 57.9859C49.5575 56.9623 48.8772 55.3454 48.8968 53.8344C48.8976 53.7854 48.897 52.8632 48.8971 52.7027C49.4356 52.9582 49.9886 53.1027 50.5418 53.1027ZM47.1253 55.1378C47.3592 56.5609 47.9838 57.8997 48.9426 59.0008L49.6053 59.7621V62.1252H44.3365V57.6408C44.3365 57.2024 44.2732 56.7726 44.1556 56.3616L47.1253 55.1378ZM59.4266 61.8113C59.4266 61.9844 59.2858 62.1252 59.1128 62.1252H51.4802V59.7624L52.1207 59.0333C53.0951 57.9239 53.7275 56.5749 53.9618 55.1386L58.0706 56.8316C58.8943 57.1709 59.4267 57.9659 59.4267 58.8571L59.4266 61.8113Z" fill="#FA541C"/>
<path d="M35.5784 58.3614C35.0606 58.3614 34.6409 58.781 34.6409 59.2989C34.6409 59.8168 35.0606 60.2364 35.5784 60.2364H39.1195C39.6372 60.2364 40.057 59.8168 40.057 59.2989C40.057 58.781 39.6372 58.3614 39.1195 58.3614H35.5784Z" fill="#FA541C"/>
</svg>
