<svg width="56" height="64" viewBox="0 0 56 64" fill="none" xmlns="http://www.w3.org/2000/svg">
<path d="M1.048 29.8337H17.7838C18.951 29.8337 19.9005 30.7832 19.9005 31.9505V36.182C19.9005 36.7004 20.3208 37.1206 20.8392 37.1206C21.3575 37.1206 21.7778 36.7004 21.7778 36.182V33.2368L23.2311 30.1772C23.8606 28.8519 24.9511 27.806 26.3016 27.2321L27.4365 26.7498C27.4727 26.7344 27.5077 26.7168 27.5417 26.6971L34.4644 22.6664C34.6391 22.5646 34.7763 22.4092 34.8557 22.2232L36.6941 17.9098C37.0211 17.1428 37.7711 16.6471 38.6142 16.6471C40.0153 16.6471 41.2652 17.4846 41.7981 18.7805C42.0135 19.3044 42.1226 19.8571 42.1226 20.4234V21.6901C42.1226 22.2085 42.5427 22.6287 43.0612 22.6287C43.5797 22.6287 43.9998 22.2085 43.9998 21.6901V20.4234C43.9998 19.6111 43.8433 18.8182 43.5343 18.0666C42.7108 16.0639 40.7795 14.7697 38.605 14.7697C37.0176 14.7697 35.5897 15.7133 34.9672 17.1736L33.2507 21.2006L26.648 25.045L25.5673 25.5041C23.7941 26.2577 22.3621 27.6312 21.5355 29.3715L21.2506 29.971C20.5616 28.7685 19.2661 27.9562 17.7836 27.9562H1.048C0.529627 27.9562 0.109375 28.3764 0.109375 28.8948C0.109375 29.4132 0.529627 29.8337 1.048 29.8337Z" fill="#FA541C"/>
<path d="M55.1867 44.2305C55.1867 43.092 54.7872 41.9985 54.0819 41.132C55.2196 40.1571 55.8904 38.731 55.8904 37.1834C55.8904 34.3111 53.5536 31.9743 50.6814 31.9743H42.0026L42.9948 29.8025C43.5817 28.5174 43.9151 27.1497 43.9856 25.7372C44.0115 25.2195 43.6128 24.7788 43.095 24.7529C42.5754 24.7281 42.1366 25.1259 42.1108 25.6436C42.0521 26.8178 41.7751 27.9546 41.2872 29.0225L40.2418 31.311C39.9869 31.8693 40.0327 32.5108 40.3645 33.0271C40.6963 33.5433 41.2608 33.8516 41.8744 33.8516H50.6813C52.5185 33.8516 54.0131 35.3462 54.0131 37.1834C54.0131 38.4534 53.3062 39.5959 52.1682 40.1649C51.874 40.3119 51.6783 40.6024 51.6524 40.9303C51.6265 41.2583 51.7741 41.5758 52.0415 41.7674C52.8354 42.3361 53.3093 43.2568 53.3093 44.2303C53.3093 45.4728 52.53 46.6083 51.3704 47.0557C51.0669 47.1729 50.8458 47.4385 50.7857 47.7582C50.7257 48.0778 50.8353 48.4057 51.0755 48.6248C51.6456 49.1448 51.9725 49.8851 51.9725 50.6559C51.9725 51.9365 51.0662 53.0651 49.8175 53.3394C49.2766 53.4581 48.8839 53.9473 48.8839 54.51C48.8839 54.9441 49.1218 55.3451 49.5053 55.5567C50.3661 56.0313 50.9115 56.9345 50.9287 57.9139C50.9416 58.6388 50.6633 59.3284 50.1452 59.8559C49.6105 60.4002 48.8657 60.7123 48.1019 60.7123H43.5919C43.0734 60.7123 42.6532 61.1325 42.6532 61.6509C42.6532 62.1693 43.0734 62.5895 43.5919 62.5895H48.1019C49.3661 62.5895 50.599 62.0727 51.4843 61.1715C52.3582 60.2819 52.8275 59.1131 52.8057 57.8808C52.7845 56.6756 52.2889 55.5392 51.459 54.7032C52.8966 53.9026 53.8497 52.3592 53.8497 50.6559C53.8497 49.7842 53.6016 48.936 53.1477 48.2077C54.4014 47.298 55.1867 45.8181 55.1867 44.2305Z" fill="#FA541C"/>
<path d="M39.5919 60.7131H26.0667C25.2168 60.7131 24.3808 60.4848 23.6491 60.0528L21.7778 58.9482V40.1829C21.7778 39.6645 21.3575 39.2443 20.8392 39.2443C20.3208 39.2443 19.9005 39.6645 19.9005 40.1829V60.0061C19.9005 61.1734 18.951 62.1229 17.7838 62.1229H1.048C0.529627 62.1229 0.109375 62.5431 0.109375 63.0615C0.109375 63.5799 0.529627 64.0001 1.048 64.0001H17.7838C19.6262 64.0001 21.1804 62.7458 21.6395 61.0465L22.6949 61.6693C23.7155 62.2718 24.8815 62.5902 26.0667 62.5902H39.5919C40.1104 62.5902 40.5306 62.17 40.5306 61.6516C40.5306 61.1332 40.1104 60.7131 39.5919 60.7131Z" fill="#FA541C"/>
<path d="M32.7042 7.64239C32.7294 7.68243 32.7373 7.73199 32.7257 7.77792L32.3425 9.3105C32.1424 10.1106 32.4228 10.9219 33.0737 11.4283C33.7248 11.9345 34.5803 12.0061 35.3063 11.6151L37.1489 10.6229C37.2006 10.595 37.2628 10.5949 37.3147 10.6229L39.1574 11.6151C39.4683 11.7825 39.8028 11.8652 40.135 11.8652C40.5786 11.8652 41.0179 11.7178 41.3901 11.4283C42.041 10.9221 42.3212 10.1106 42.1212 9.31063L41.738 7.77792C41.7265 7.73199 41.7344 7.68268 41.7595 7.64251L42.907 5.81595C43.3043 5.18382 43.3267 4.38512 42.9655 3.73159C42.6042 3.07805 41.916 2.67219 41.1693 2.67219H40.0115C39.9474 2.67219 39.8886 2.63728 39.8578 2.58096L39.0333 1.06965C38.6736 0.409865 37.9834 0 37.232 0C36.4806 0 35.7902 0.40974 35.4302 1.0694L34.6059 2.58071C34.5752 2.63703 34.5163 2.67194 34.4522 2.67194H33.2943C32.5477 2.67194 31.8593 3.07793 31.4982 3.73134C31.137 4.38474 31.1594 5.18345 31.5566 5.8157L32.7042 7.64239ZM33.1412 4.63955C33.1744 4.5796 33.226 4.54931 33.2944 4.54931H34.4523C35.2037 4.54931 35.894 4.13957 36.254 3.47978L37.0783 1.96848C37.1114 1.90803 37.1631 1.87724 37.232 1.87724C37.3008 1.87724 37.3525 1.90791 37.3856 1.96848L38.2101 3.47991C38.57 4.13957 39.2603 4.54931 40.0117 4.54931H41.1696C41.238 4.54931 41.2895 4.57972 41.3228 4.63967C41.3558 4.69962 41.3542 4.75931 41.3178 4.81726L40.1703 6.64382C39.8745 7.11463 39.7822 7.69395 39.9171 8.23322L40.3003 9.7658C40.3072 9.79308 40.3281 9.8763 40.2381 9.94626C40.1477 10.0163 40.0725 9.97555 40.0477 9.96216L38.2052 8.9701C37.5959 8.64196 36.8685 8.64183 36.2592 8.9701L34.4166 9.96228C34.3919 9.97555 34.3164 10.0163 34.2263 9.94639C34.1363 9.87643 34.1572 9.79321 34.1641 9.76592L34.5473 8.23309C34.682 7.6937 34.5897 7.1145 34.2941 6.64394L33.1466 4.81738C33.1098 4.75919 33.1081 4.69949 33.1412 4.63955Z" fill="#FA541C"/>
<path d="M46.654 6.46871C46.654 6.98708 47.0741 7.40733 47.5926 7.40733H49.0081C49.5266 7.40733 49.9467 6.98708 49.9467 6.46871C49.9467 5.95034 49.5266 5.53009 49.0081 5.53009H47.5926C47.0741 5.53009 46.654 5.95034 46.654 6.46871Z" fill="#FA541C"/>
<path d="M46.1552 3.1525C46.375 3.1525 46.5957 3.07579 46.7738 2.91947L47.8377 1.98611C48.2273 1.6442 48.2661 1.05124 47.9242 0.661525C47.5823 0.271809 46.9892 0.233138 46.5996 0.575047L45.5357 1.50841C45.1461 1.85032 45.1073 2.44328 45.4492 2.833C45.6348 3.0445 45.8944 3.1525 46.1552 3.1525Z" fill="#FA541C"/>
<path d="M45.5358 11.4282L46.5997 12.3616C46.7779 12.5179 46.9986 12.5946 47.2183 12.5946C47.4791 12.5946 47.7387 12.4865 47.9243 12.275C48.266 11.8853 48.2274 11.2923 47.8378 10.9504L46.7739 10.017C46.3843 9.67524 45.7911 9.71391 45.4493 10.1035C45.1075 10.4931 45.1462 11.0863 45.5358 11.4282Z" fill="#FA541C"/>
<path d="M25.066 7.40733H26.4813C26.9996 7.40733 27.4199 6.98708 27.4199 6.46871C27.4199 5.95034 26.9996 5.53009 26.4813 5.53009H25.066C24.5476 5.53009 24.1273 5.95034 24.1273 6.46871C24.1273 6.98708 24.5476 7.40733 25.066 7.40733Z" fill="#FA541C"/>
<path d="M26.2361 1.98624L27.3 2.9196C27.4782 3.07592 27.6988 3.15263 27.9186 3.15263C28.1794 3.15263 28.439 3.0445 28.6244 2.833C28.9663 2.44328 28.9277 1.85033 28.5381 1.50842L27.4742 0.575052C27.0846 0.233393 26.4915 0.271939 26.1496 0.66153C25.8077 1.05125 25.8464 1.64433 26.2361 1.98624Z" fill="#FA541C"/>
<path d="M27.3 10.0178L26.2361 10.9513C25.8464 11.2932 25.8077 11.8862 26.1496 12.2759C26.3352 12.4874 26.5946 12.5955 26.8556 12.5955C27.0753 12.5955 27.2961 12.5188 27.4742 12.3625L28.5381 11.4291C28.9277 11.0872 28.9665 10.4943 28.6244 10.1046C28.2827 9.71472 27.6896 9.67592 27.3 10.0178Z" fill="#FA541C"/>
</svg>
