<svg width="466" height="466" viewBox="0 0 466 466" fill="none" xmlns="http://www.w3.org/2000/svg">
<path d="M426.257 310.321C394.692 346.144 342.009 342.608 342.123 359.492C342.251 378.134 406.48 381.277 407.679 398.825C409.302 422.604 294.904 468.331 175.474 449.607C134.328 443.156 95.3718 436.924 61.7659 406.561C-30.3276 323.355 37.1204 147.22 48.1129 118.066C69.8385 60.4478 96.7522 41.8707 105.07 36.0741C148.387 5.95018 198.231 10.9006 242.738 15.3214C276.44 18.6674 326.912 24.3621 372.983 62.3517C380.84 68.8369 398.171 84.2255 413.788 108.65C451.733 167.989 468.503 262.386 426.257 310.321Z" fill="#919EAB" fill-opacity="0.08"/>
<path d="M101.846 301.455C101.846 301.455 100.457 304.638 100.509 305.18C100.51 305.186 100.51 305.192 100.509 305.197C100.613 306.278 101.47 307.109 102.486 307.05C105.437 306.884 111.077 306.462 114.017 305.549C118.114 304.277 104.045 300.98 104.045 300.98L101.846 301.455Z" fill="#063963"/>
<path d="M101.938 296.744L102.164 302.136C102.164 302.136 102.983 303.438 104.998 301.784L106.079 296.051L101.938 296.744Z" fill="#FDBAB9"/>
<path d="M112.165 196.407C109.799 197.735 107.745 199.556 106.143 201.746C99.8894 210.299 103.727 219.587 103.412 234.318C102.975 254.757 95.149 257.394 96.0508 276.765C96.401 283.987 97.8147 291.118 100.246 297.927L107.825 296.922C108.99 284.373 112.086 264.959 121.641 243.754C131.627 221.591 142.934 210.203 138.426 201.613C134.697 194.509 121.238 191.393 112.165 196.407Z" fill="#116E95"/>
<path opacity="0.24" d="M138.426 201.613C134.697 194.51 121.239 191.393 112.166 196.406C111.831 196.592 111.519 196.788 111.21 196.984C117.806 208.189 117.924 215.874 116.449 221.072C114.942 226.391 111.789 229.032 111.045 236.715C110.22 245.265 113.67 246.713 112.348 253.663C110.688 262.409 104.83 262.23 103.222 270.803C101.695 278.945 106.28 282.865 103.407 288.123C102.303 290.146 100.531 291.562 98.5605 292.569C99.118 294.607 99.7016 296.406 100.242 297.93L107.821 296.925C108.986 284.374 112.082 264.962 121.637 243.755C131.628 221.591 142.933 210.203 138.426 201.613Z" fill="#063963"/>
<path d="M144.512 303.568C144.512 303.568 143.123 306.752 143.175 307.294C143.175 307.299 143.175 307.305 143.175 307.311C143.277 308.392 144.134 309.222 145.15 309.164C148.101 308.998 153.742 308.575 156.682 307.663C160.78 306.39 146.71 303.094 146.71 303.094L144.512 303.568Z" fill="#063963"/>
<path d="M143.396 298.879L144.766 304.393C144.766 304.393 145.586 305.695 147.6 304.041L147.544 298.188L143.396 298.879Z" fill="#FDBAB9"/>
<path d="M124.271 199.614C118.198 205.88 125.871 228.015 129.817 239.401C130.701 241.873 131.348 244.423 131.749 247.016C132.572 252.362 132.086 256.252 131.882 259.258C131.882 259.258 131.357 266.979 133.225 277.942C134.13 283.254 136.292 291.3 142.15 300.532L149.042 299.331C149.125 289.376 149.39 273.16 150.345 253.076C151.907 220.236 154.684 190.271 151.271 189.6C150.15 189.38 149.882 192.633 146.429 195.607C138.518 202.432 128.908 194.83 124.271 199.614Z" fill="#063963"/>
<path d="M130.004 121.754C122.194 122.217 96.0847 124.603 80.812 141.858C77.2003 145.939 68.3356 155.954 72.5711 164.736C76.6537 173.199 91.8322 178.291 109.833 175.467L113.47 170.867C103.521 169.851 96.639 165.19 96.2005 160.327C95.8222 156.078 100.462 152.655 102.791 150.937C110.723 145.085 120.721 145.203 124.147 145.379C126.101 137.504 128.053 129.629 130.004 121.754Z" fill="#FA541C"/>
<path d="M197.203 85.7904C200.25 83.8317 200.453 78.7156 197.656 74.3632C194.858 70.0108 190.12 68.0703 187.073 70.029C184.025 71.9877 183.822 77.1038 186.62 81.4562C189.417 85.8086 194.155 87.7491 197.203 85.7904Z" fill="#063963"/>
<path d="M155.764 104.678L186.132 73.5647C186.326 73.3649 186.564 73.2138 186.828 73.1237C187.091 73.0335 187.372 73.0069 187.648 73.0459C190.072 73.3949 196.449 75.0733 196.724 83.0826C196.735 83.4099 196.657 83.734 196.498 84.02C196.338 84.306 196.104 84.543 195.819 84.7055L157.657 106.277L155.764 104.678Z" fill="#063963"/>
<path d="M157.822 104.705C158.369 105.554 158.329 106.557 157.734 106.936C157.14 107.314 156.213 106.936 155.667 106.09C155.12 105.243 155.16 104.237 155.755 103.858C156.349 103.48 157.275 103.854 157.822 104.705Z" fill="#116E95"/>
<path d="M183.992 98.5567L178.566 94.4617C178.566 94.4617 181.267 93.6619 180.305 89.658C179.343 85.6541 181.963 86.4277 182.05 89.658C182.136 92.8883 182.976 95.1087 182.976 95.1087L186.287 97.4943L183.992 98.5567Z" fill="#FDBAB9"/>
<path d="M152.649 114.104C153.851 111.959 153.238 109.556 153.099 109.036C152.521 106.863 152.317 106.536 151.902 106.082L151.314 105.489L151.238 105.438C150.833 105.174 149.333 104.763 149.011 104.754C147.983 104.728 145.979 108.46 144.915 114.164C144.822 114.369 144.731 114.578 144.64 114.781C144.472 115.169 144.356 115.456 144.347 115.478C144.16 115.927 143.076 117.598 141.896 118.605C139.174 120.921 132.905 122.311 132.957 123.323C133.005 124.27 138.505 124.92 143.945 124.801C147.788 124.718 154.322 124.193 154.436 122.826C154.55 121.46 148.006 120.839 148.775 116.281C148.852 115.835 151.765 115.683 152.649 114.104Z" fill="#FDBAB9"/>
<path d="M153.726 104.377C153.298 106.122 152.028 107.786 151.535 107.984C151.241 108.12 150.971 108.302 150.735 108.523C150.675 108.576 150.623 108.637 150.581 108.705C149.932 109.712 151.368 111.429 150.913 111.84C150.581 112.138 149.508 111.376 149.291 111.647C149.075 111.917 149.931 112.745 149.696 113.056C149.518 113.291 148.969 112.902 148.489 113.211C148.249 113.365 148.266 113.537 147.916 114.1C147.736 114.398 147.529 114.68 147.298 114.94C146.447 115.819 144.648 115.78 144.418 115.291C144.355 115.155 144.457 115.078 144.455 114.673C144.443 114.385 144.391 114.1 144.301 113.827C144.089 113.154 143.337 112.528 142.627 111.701C141.31 110.167 141.112 109.085 141.063 108.722C141.044 108.594 141.038 108.498 141.032 108.429C140.929 107.039 141.384 105.152 142.243 104.13C143.682 102.418 145.64 103.869 147.899 102.373C150.499 100.646 150.005 97.3081 151.206 97.2432C152.537 97.1676 154.514 101.153 153.726 104.377Z" fill="#770508"/>
<path d="M150.388 111.279C150.103 110.588 149.218 110.959 149.03 111.717C148.841 112.475 149.388 113.447 150.138 113.468C150.889 113.49 150.773 112.21 150.388 111.279Z" fill="#FDBAB9"/>
<path d="M120.796 123.92C124.163 121.475 129.523 121.014 140.251 120.259C148.305 119.691 155.793 119.998 160.277 120.194C170.015 120.619 173.596 121.38 179.774 119.829C184.132 118.735 189.116 117.485 190.572 113.739C192.173 109.624 189.087 103.602 182.81 98.9383L186.599 95.8594C188.901 96.3658 196.24 98.2852 201.393 105.124C205.871 111.072 208.101 119.745 205.224 127.14C202.644 133.78 196.872 137.044 188.182 141.971C178.454 147.491 176.371 145.816 172.288 149.99C169.2 153.149 167.656 159.764 164.722 172.865C163.062 180.248 161.907 186.454 159.163 195.916C156.538 204.96 155.595 206.172 154.579 207.101C149.717 211.548 144.51 208.269 130.12 210.329C120.934 211.644 121.01 213.262 112.86 213.806C105.336 214.305 97.427 214.83 92.7468 209.584C88.7862 205.145 89.41 198.814 89.5181 197.912C90.3303 191.14 95.2668 188.194 100.072 182.144C104.386 176.712 106.363 170.328 110.316 157.56C117.076 135.69 113.947 128.891 120.796 123.92Z" fill="#FA541C"/>
<path opacity="0.24" d="M206.148 116.07C205.347 119.181 203.936 122.101 201.998 124.662C195.307 133.38 183.224 135.972 176.917 137.323C165.469 139.785 158.505 137.862 156.306 142.045C154.235 145.984 159.65 149.131 159.037 156.199C158.299 164.719 150.012 165 144.883 175.809C139.616 186.926 144.233 195.314 138.924 198.407C135.334 200.497 132.797 196.904 124.769 196.171C110.145 194.835 102.662 205.307 95.7152 201.635C93.9627 200.709 91.892 198.692 90.666 193.791C90.0642 195.094 89.6728 196.484 89.5064 197.909C89.3983 198.811 88.7745 205.142 92.7351 209.581C97.4153 214.831 105.324 214.302 112.849 213.803C120.997 213.261 120.923 211.641 130.109 210.326C144.498 208.266 149.705 211.545 154.567 207.098C155.583 206.172 156.525 204.957 159.152 195.913C161.902 186.444 163.057 180.245 164.71 172.862C167.658 159.761 169.188 153.146 172.277 149.987C176.359 145.818 178.434 147.488 188.17 141.968C196.86 137.041 202.632 133.77 205.212 127.137C206.605 123.599 206.801 119.762 206.148 116.07Z" fill="#B3200E"/>
<path d="M318.428 32.1613C337.14 22.8843 354.982 25.3857 363.89 29.3278C374.422 33.988 377.915 37.4854 387.238 39.2456C395.525 40.8098 404.128 30.645 410.587 37.8281C411.189 38.4733 411.716 39.1845 412.159 39.9482C416.791 47.9451 411.318 57.605 412.832 74.4821C413.604 83.1167 415.477 85.5132 417.209 102.108C417.867 108.418 417.73 109.348 417.546 110.078C414.716 121.276 392.264 119.159 376.462 114.328C354.678 107.666 347.663 96.4949 333.358 101.577C326.76 103.922 321.745 108.61 318.535 112.203C320 85.6444 316.969 58.7261 318.428 32.1613Z" fill="#22B8CF"/>
<path d="M318.665 243.14C318.557 243.14 318.451 243.119 318.351 243.078C318.252 243.036 318.162 242.976 318.086 242.9C318.01 242.824 317.949 242.733 317.908 242.634C317.867 242.534 317.846 242.428 317.846 242.32V24.4917C317.842 24.3812 317.859 24.2708 317.898 24.1672C317.937 24.0636 317.997 23.969 318.073 23.8891C318.15 23.8092 318.242 23.7455 318.344 23.7021C318.445 23.6586 318.555 23.6362 318.666 23.6362C318.776 23.6362 318.886 23.6586 318.988 23.7021C319.089 23.7455 319.181 23.8092 319.258 23.8891C319.334 23.969 319.394 24.0636 319.433 24.1672C319.472 24.2708 319.49 24.3812 319.485 24.4917V242.32C319.485 242.538 319.398 242.746 319.245 242.9C319.091 243.054 318.882 243.14 318.665 243.14Z" fill="#116E95"/>
<path d="M347.108 427.339L260.752 423.82V234.833L347.108 231.252V427.339Z" fill="#B3200E"/>
<path d="M409.772 423.126L347.107 427.339V231.252L409.772 235.863V423.126Z" fill="#FDAB76"/>
<path d="M250.318 433.85L166.945 430.054V271.186L250.318 268.453V433.85Z" fill="#B3200E"/>
<path d="M323.245 428.946L250.318 433.85V268.453L323.245 272.282V428.946Z" fill="#FDAB76"/>
<path d="M136.449 441.506L56.5859 437.387V306.755L136.449 305.113V441.506Z" fill="#B3200E"/>
<path d="M222.383 435.726L136.449 441.506V305.113L222.383 307.68V435.726Z" fill="#FDAB76"/>
</svg>
