<svg width="21" height="21" viewBox="0 0 21 21" fill="none" xmlns="http://www.w3.org/2000/svg">
<path d="M20.7492 19.6894L15.0851 14.0253C16.4462 12.3913 17.1249 10.2955 16.98 8.17387C16.8352 6.05224 15.878 4.06812 14.3075 2.63426C12.737 1.20041 10.6742 0.427212 8.54821 0.475524C6.42218 0.523836 4.39663 1.38993 2.89292 2.89365C1.3892 4.39736 0.523103 6.42292 0.474791 8.54894C0.426479 10.675 1.19967 12.7378 2.63353 14.3082C4.06738 15.8787 6.05151 16.8359 8.17314 16.9808C10.2948 17.1256 12.3906 16.4469 14.0246 15.0859L19.6886 20.7499L20.7492 19.6894ZM1.9992 8.74993C1.9992 7.41491 2.39508 6.10987 3.13678 4.99983C3.87848 3.8898 4.93269 3.02464 6.16609 2.51375C7.39949 2.00285 8.75669 1.86918 10.0661 2.12963C11.3754 2.39008 12.5782 3.03296 13.5222 3.97696C14.4662 4.92097 15.1091 6.1237 15.3695 7.43307C15.63 8.74245 15.4963 10.0996 14.9854 11.333C14.4745 12.5664 13.6093 13.6207 12.4993 14.3624C11.3893 15.1041 10.0842 15.4999 8.7492 15.4999C6.9596 15.4979 5.24386 14.7862 3.97842 13.5207C2.71298 12.2553 2.00119 10.5395 1.9992 8.74993Z" fill="#919EAB"/>
</svg>
