<svg width="11" height="11" viewBox="0 0 11 11" fill="none" xmlns="http://www.w3.org/2000/svg">
<path d="M10.3441 4.336C10.4241 4.336 10.4881 4.368 10.5361 4.432C10.6001 4.48 10.6321 4.544 10.6321 4.624V6.952C10.6321 7.032 10.6001 7.104 10.5361 7.168C10.4881 7.216 10.4241 7.24 10.3441 7.24H7.05606C6.97606 7.24 6.93606 7.28 6.93606 7.36V10.6C6.93606 10.68 6.90406 10.752 6.84006 10.816C6.79206 10.864 6.72806 10.888 6.64806 10.888H4.34406C4.26406 10.888 4.19206 10.864 4.12806 10.816C4.08006 10.752 4.05606 10.68 4.05606 10.6V7.36C4.05606 7.28 4.01606 7.24 3.93606 7.24H0.648063C0.568063 7.24 0.496063 7.216 0.432063 7.168C0.384063 7.104 0.360063 7.032 0.360063 6.952V4.624C0.360063 4.544 0.384063 4.48 0.432063 4.432C0.496063 4.368 0.568063 4.336 0.648063 4.336H3.93606C4.01606 4.336 4.05606 4.296 4.05606 4.216V0.904C4.05606 0.824 4.08006 0.76 4.12806 0.711999C4.19206 0.647999 4.26406 0.615999 4.34406 0.615999H6.64806C6.72806 0.615999 6.79206 0.647999 6.84006 0.711999C6.90406 0.76 6.93606 0.824 6.93606 0.904V4.216C6.93606 4.296 6.97606 4.336 7.05606 4.336H10.3441Z" fill="#FA541C"/>
</svg>
