<svg width="28" height="28" viewBox="0 0 28 28" fill="none" xmlns="http://www.w3.org/2000/svg">
<circle cx="14" cy="14" r="14" fill="#FA541C"/>
<path d="M12.733 19.092C12.709 19.116 12.697 19.14 12.697 19.164C12.709 19.188 12.733 19.2 12.769 19.2H17.899C17.959 19.2 18.007 19.224 18.043 19.272C18.091 19.308 18.115 19.356 18.115 19.416V20.784C18.115 20.844 18.091 20.898 18.043 20.946C18.007 20.982 17.959 21 17.899 21H10.159C10.099 21 10.045 20.982 9.99697 20.946C9.96097 20.898 9.94297 20.844 9.94297 20.784V19.488C9.94297 19.38 9.97897 19.29 10.051 19.218C10.963 18.246 12.019 17.052 13.219 15.636L14.065 14.646C15.169 13.362 15.721 12.39 15.721 11.73C15.721 11.238 15.547 10.836 15.199 10.524C14.851 10.212 14.401 10.056 13.849 10.056C13.297 10.056 12.847 10.212 12.499 10.524C12.163 10.836 11.995 11.25 11.995 11.766V12.234C11.995 12.294 11.971 12.348 11.923 12.396C11.887 12.432 11.839 12.45 11.779 12.45H10.105C10.045 12.45 9.99097 12.432 9.94297 12.396C9.90697 12.348 9.88897 12.294 9.88897 12.234V11.46C9.91297 10.812 10.099 10.248 10.447 9.768C10.795 9.288 11.263 8.916 11.851 8.652C12.451 8.388 13.117 8.256 13.849 8.256C14.653 8.256 15.355 8.406 15.955 8.706C16.555 9.006 17.017 9.42 17.341 9.948C17.665 10.464 17.827 11.046 17.827 11.694C17.827 12.678 17.305 13.812 16.261 15.096C15.685 15.816 14.737 16.896 13.417 18.336L12.733 19.092Z" fill="white"/>
</svg>
