<svg width="28" height="28" viewBox="0 0 28 28" fill="none" xmlns="http://www.w3.org/2000/svg">
<circle cx="14" cy="14" r="14" fill="#FA541C"/>
<path d="M13.88 8.454C13.976 8.418 14.066 8.4 14.15 8.4H15.878C15.938 8.4 15.986 8.424 16.022 8.472C16.07 8.508 16.094 8.556 16.094 8.616V20.784C16.094 20.844 16.07 20.898 16.022 20.946C15.986 20.982 15.938 21 15.878 21H14.222C14.162 21 14.108 20.982 14.06 20.946C14.024 20.898 14.006 20.844 14.006 20.784V10.56C14.006 10.536 13.994 10.518 13.97 10.506C13.946 10.482 13.922 10.476 13.898 10.488L12.098 11.046C12.074 11.058 12.044 11.064 12.008 11.064C11.96 11.064 11.918 11.046 11.882 11.01C11.858 10.974 11.846 10.926 11.846 10.866L11.792 9.678C11.792 9.558 11.84 9.474 11.936 9.426L13.88 8.454Z" fill="white"/>
</svg>
