<svg width="36" height="24" viewBox="0 0 36 24" fill="none" xmlns="http://www.w3.org/2000/svg">
<rect width="36" height="24" rx="4" fill="white"/>
<path d="M14.34 21.3199L14.69 19.1199H13.91H10.23L12.79 2.85993C12.7968 2.80955 12.8217 2.76336 12.86 2.72993C12.9002 2.69887 12.9492 2.68136 13 2.67993H19.21C21.28 2.67993 22.7 3.10993 23.45 3.95993C23.7818 4.31646 24.0131 4.75473 24.12 5.22993C24.2366 5.80744 24.2366 6.40243 24.12 6.97993V7.47993L24.47 7.67993C24.7364 7.81273 24.9769 7.99224 25.18 8.20993C25.4856 8.57893 25.683 9.02548 25.75 9.49993C25.8249 10.1201 25.7979 10.7484 25.67 11.3599C25.5381 12.1027 25.2775 12.8168 24.9 13.4699C24.5949 13.9936 24.1825 14.4468 23.69 14.7999C23.1942 15.138 22.6423 15.3852 22.06 15.5299C21.4063 15.6948 20.7342 15.7755 20.06 15.7699H19.57C19.2266 15.77 18.894 15.8903 18.63 16.1099C18.3646 16.3335 18.1903 16.6466 18.14 16.9899V17.1899L17.53 21.0699V21.2199C17.5372 21.2461 17.5372 21.2738 17.53 21.2999H17.47L14.34 21.3199Z" fill="#253D80"/>
<path d="M24.8 7.08008L24.74 7.45008C23.92 11.6501 21.11 13.1101 17.53 13.1101H15.71C15.2721 13.1095 14.8989 13.4276 14.83 13.8601L13.9 19.7801L13.63 21.4601C13.6097 21.5946 13.6488 21.7313 13.737 21.8349C13.8252 21.9384 13.954 21.9987 14.09 22.0001H17.33C17.7142 21.9997 18.0409 21.7197 18.1 21.3401V21.1801L18.71 17.3101V17.1001C18.7646 16.722 19.088 16.4411 19.47 16.4401H20C23.13 16.4401 25.59 15.1701 26.3 11.4401C26.6842 10.1652 26.4472 8.78395 25.66 7.71008C25.4102 7.45389 25.1196 7.24099 24.8 7.08008V7.08008Z" fill="#189BD7"/>
<path d="M23.9399 6.74009L23.5599 6.64009L23.1399 6.56009C22.6103 6.4809 22.0753 6.44412 21.5399 6.45009H16.6599C16.5459 6.44696 16.4328 6.47095 16.3299 6.52009C16.098 6.62865 15.9364 6.84667 15.8999 7.10009L14.8999 13.6701V13.8601C14.9688 13.4276 15.342 13.1096 15.7799 13.1101H17.5999C21.1799 13.1101 23.9899 11.6501 24.8099 7.45009L24.8699 7.08009C24.6545 6.96878 24.4304 6.87514 24.1999 6.80009L23.9399 6.74009Z" fill="#242E65"/>
<path d="M15.8999 7.1C15.9364 6.84658 16.098 6.62856 16.3299 6.52C16.4328 6.47086 16.5459 6.44687 16.6599 6.45H21.5399C22.0753 6.44403 22.6103 6.48081 23.1399 6.56L23.5599 6.64L23.9399 6.74L24.1299 6.8C24.3604 6.87505 24.5845 6.96869 24.7999 7.08C25.1249 5.83063 24.827 4.50118 23.9999 3.51C22.9999 2.45 21.3599 2 19.2199 2H12.9999C12.562 1.99947 12.1888 2.31756 12.1199 2.75L9.52989 19.16C9.5067 19.3148 9.55179 19.472 9.65346 19.5909C9.75514 19.7098 9.90342 19.7788 10.0599 19.78H13.8999L14.8999 13.67L15.8999 7.1Z" fill="#253D80"/>
</svg>
