<svg width="23" height="22" viewBox="0 0 23 22" fill="none" xmlns="http://www.w3.org/2000/svg">
<path d="M19 9.5H17.5V11H19C19.5965 11.0007 20.1685 11.2379 20.5903 11.6597C21.0121 12.0815 21.2493 12.6535 21.25 13.25V16.25H22.75V13.25C22.7488 12.2558 22.3534 11.3026 21.6504 10.5996C20.9474 9.89661 19.9942 9.50115 19 9.5Z" fill="#919EAB"/>
<path d="M17.5 2C17.945 2 18.38 2.13196 18.75 2.37919C19.12 2.62643 19.4084 2.97783 19.5787 3.38896C19.749 3.8001 19.7936 4.2525 19.7068 4.68895C19.62 5.12541 19.4057 5.52632 19.091 5.84099C18.7763 6.15566 18.3754 6.36995 17.939 6.45677C17.5025 6.54358 17.0501 6.49903 16.639 6.32873C16.2278 6.15843 15.8764 5.87004 15.6292 5.50003C15.382 5.13002 15.25 4.69501 15.25 4.25C15.25 3.65326 15.4871 3.08097 15.909 2.65901C16.331 2.23705 16.9033 2 17.5 2ZM17.5 0.5C16.7583 0.5 16.0333 0.719934 15.4166 1.13199C14.7999 1.54404 14.3193 2.12971 14.0355 2.81494C13.7516 3.50016 13.6774 4.25416 13.8221 4.98159C13.9667 5.70902 14.3239 6.3772 14.8483 6.90165C15.3728 7.4261 16.041 7.78325 16.7684 7.92795C17.4958 8.07264 18.2498 7.99838 18.9351 7.71455C19.6203 7.43072 20.206 6.95007 20.618 6.33339C21.0301 5.7167 21.25 4.99168 21.25 4.25C21.25 3.25544 20.8549 2.30161 20.1517 1.59835C19.4484 0.895088 18.4946 0.5 17.5 0.5Z" fill="#919EAB"/>
<path d="M16.75 21.5H15.25V20C15.2493 19.4035 15.0121 18.8315 14.5903 18.4097C14.1685 17.9879 13.5965 17.7507 13 17.75H10C9.40346 17.7507 8.83155 17.9879 8.40973 18.4097C7.98792 18.8315 7.75066 19.4035 7.75 20V21.5H6.25V20C6.25117 19.0058 6.64664 18.0527 7.34964 17.3496C8.05265 16.6466 9.0058 16.2512 10 16.25H13C13.9942 16.2512 14.9473 16.6466 15.6504 17.3496C16.3534 18.0527 16.7488 19.0058 16.75 20V21.5Z" fill="#919EAB"/>
<path d="M11.5 8.75C11.945 8.75 12.38 8.88196 12.75 9.12919C13.12 9.37643 13.4084 9.72783 13.5787 10.139C13.749 10.5501 13.7936 11.0025 13.7068 11.439C13.6199 11.8754 13.4057 12.2763 13.091 12.591C12.7763 12.9057 12.3754 13.12 11.939 13.2068C11.5025 13.2936 11.0501 13.249 10.639 13.0787C10.2278 12.9084 9.87643 12.62 9.62919 12.25C9.38196 11.88 9.25 11.445 9.25 11C9.25 10.4033 9.48705 9.83097 9.90901 9.40901C10.331 8.98705 10.9033 8.75 11.5 8.75ZM11.5 7.25C10.7583 7.25 10.0333 7.46993 9.41661 7.88199C8.79993 8.29404 8.31928 8.87971 8.03545 9.56494C7.75162 10.2502 7.67736 11.0042 7.82205 11.7316C7.96675 12.459 8.3239 13.1272 8.84835 13.6517C9.3728 14.1761 10.041 14.5333 10.7684 14.6779C11.4958 14.8226 12.2498 14.7484 12.9351 14.4645C13.6203 14.1807 14.206 13.7001 14.618 13.0834C15.0301 12.4667 15.25 11.7417 15.25 11C15.25 10.0054 14.8549 9.05161 14.1516 8.34835C13.4484 7.64509 12.4946 7.25 11.5 7.25Z" fill="#919EAB"/>
<path d="M5.5 9.5H4C3.0058 9.50117 2.05265 9.89664 1.34964 10.5996C0.646635 11.3027 0.251171 12.2558 0.25 13.25V16.25H1.75V13.25C1.75066 12.6535 1.98792 12.0815 2.40973 11.6597C2.83155 11.2379 3.40346 11.0007 4 11H5.5V9.5Z" fill="#919EAB"/>
<path d="M5.5 2C5.94501 2 6.38002 2.13196 6.75003 2.37919C7.12004 2.62643 7.40843 2.97783 7.57873 3.38896C7.74903 3.8001 7.79358 4.2525 7.70677 4.68895C7.61995 5.12541 7.40566 5.52632 7.09099 5.84099C6.77632 6.15566 6.37541 6.36995 5.93895 6.45677C5.5025 6.54358 5.0501 6.49903 4.63896 6.32873C4.22783 6.15843 3.87643 5.87004 3.62919 5.50003C3.38196 5.13002 3.25 4.69501 3.25 4.25C3.25 3.65326 3.48705 3.08097 3.90901 2.65901C4.33097 2.23705 4.90326 2 5.5 2ZM5.5 0.5C4.75832 0.5 4.0333 0.719934 3.41661 1.13199C2.79993 1.54404 2.31928 2.12971 2.03545 2.81494C1.75162 3.50016 1.67736 4.25416 1.82205 4.98159C1.96675 5.70902 2.3239 6.3772 2.84835 6.90165C3.3728 7.4261 4.04098 7.78325 4.76841 7.92795C5.49584 8.07264 6.24984 7.99838 6.93506 7.71455C7.62029 7.43072 8.20596 6.95007 8.61801 6.33339C9.03007 5.7167 9.25 4.99168 9.25 4.25C9.25 3.25544 8.85491 2.30161 8.15165 1.59835C7.44839 0.895088 6.49456 0.5 5.5 0.5Z" fill="#919EAB"/>
</svg>
