<svg width="80" height="24" viewBox="0 0 80 24" fill="none" xmlns="http://www.w3.org/2000/svg">
<rect x="12.5686" y="3.27026" width="10.21" height="16.68" fill="#F26122"/>
<path d="M13.6687 11.6102C13.6518 8.3637 15.1264 5.28922 17.6687 3.27017C13.3189 -0.15054 7.07064 0.346185 3.31599 4.41117C-0.438663 8.47616 -0.438663 14.7442 3.31599 18.8092C7.07064 22.8741 13.3189 23.3709 17.6687 19.9502C15.1264 17.9311 13.6518 14.8566 13.6687 11.6102Z" fill="#EA1D25"/>
<path d="M34.8287 11.6101C34.8261 15.6694 32.5076 19.3715 28.8566 21.1459C25.2056 22.9203 20.8622 22.4561 17.6687 19.9501C22.2688 16.328 23.0654 9.66439 19.4487 5.06009C18.9303 4.39336 18.3325 3.79227 17.6687 3.27009C20.8622 0.764088 25.2056 0.299837 28.8566 2.07427C32.5076 3.8487 34.8261 7.55075 34.8287 11.6101Z" fill="#F69E1E"/>
<rect x="44" width="36" height="24" rx="4" fill="white"/>
<path fill-rule="evenodd" clip-rule="evenodd" d="M68.19 14.44C68.1961 12.9153 66.9386 12.2567 65.9627 11.7456C65.3449 11.4221 64.84 11.1577 64.84 10.77C64.84 10.44 65.16 10.09 65.84 10C66.6493 9.91993 67.4651 10.0617 68.2 10.41L68.62 8.41C67.9036 8.14136 67.1451 8.00252 66.38 8C64.02 8 62.38 9.26 62.38 11.06C62.38 12.39 63.57 13.13 64.47 13.57C65.37 14.01 65.72 14.32 65.71 14.72C65.71 15.34 64.97 15.62 64.28 15.63C63.4289 15.641 62.589 15.4344 61.84 15.03L61.41 17.03C62.2575 17.3608 63.1603 17.5271 64.07 17.52C66.58 17.52 68.23 16.28 68.24 14.36L68.19 14.44ZM61.7 8.16L59.7 17.41H57.3L59.3 8.16H61.7ZM71.76 14.16L73.02 10.69L73.75 14.16H71.76ZM76.65 17.44H74.43L74.14 16.06H71.13L70.64 17.44H68.12L71.71 8.87C71.8755 8.46225 72.27 8.19402 72.71 8.19H74.71L76.65 17.44ZM54.45 17.38L58.33 8.13H55.73L53.24 14.42L52.24 9.07C52.1515 8.52635 51.6808 8.12776 51.13 8.13H47.06L47 8.4C47.8163 8.55972 48.6093 8.82179 49.36 9.18C49.6798 9.33034 49.8964 9.63826 49.93 9.99L51.84 17.38H54.45Z" fill="#2A2A6C"/>
</svg>
