<svg width="18" height="17" viewBox="0 0 18 17" fill="none" xmlns="http://www.w3.org/2000/svg">
<path d="M13.6336 16.4998C13.5004 16.5004 13.3689 16.4689 13.2503 16.4082L9.00029 14.1832L4.75029 16.4082C4.61228 16.4807 4.45669 16.5131 4.30119 16.5017C4.14569 16.4902 3.99652 16.4354 3.87065 16.3433C3.74477 16.2513 3.64724 16.1258 3.58914 15.9811C3.53103 15.8365 3.51469 15.6784 3.54196 15.5248L4.37529 10.8332L0.941957 7.49984C0.834838 7.39295 0.75885 7.2589 0.722147 7.11209C0.685444 6.96528 0.689411 6.81124 0.733624 6.66651C0.781924 6.51841 0.870771 6.38681 0.990082 6.28664C1.10939 6.18648 1.25439 6.12177 1.40862 6.09985L6.15862 5.40818L8.25029 1.13318C8.31853 0.992285 8.42507 0.873463 8.55772 0.790322C8.69036 0.707182 8.84374 0.663086 9.00029 0.663086C9.15684 0.663086 9.31022 0.707182 9.44286 0.790322C9.57551 0.873463 9.68205 0.992285 9.75029 1.13318L11.867 5.39984L16.617 6.09151C16.7712 6.11343 16.9162 6.17815 17.0355 6.27831C17.1548 6.37847 17.2437 6.51007 17.292 6.65818C17.3362 6.80291 17.3401 6.95694 17.3034 7.10376C17.2667 7.25057 17.1907 7.38462 17.0836 7.49151L13.6503 10.8248L14.4836 15.5165C14.5134 15.6727 14.4978 15.8342 14.4387 15.9819C14.3797 16.1296 14.2796 16.2572 14.1503 16.3498C13.9994 16.4556 13.8177 16.5083 13.6336 16.4998Z" fill="#FFC81A"/>
</svg>
