<svg width="36" height="36" viewBox="0 0 36 36" fill="none" xmlns="http://www.w3.org/2000/svg">
<rect width="36" height="36" rx="18" fill="#212B36" fill-opacity="0.24"/>
<path d="M22.032 11.75C22.487 11.7496 22.9376 11.8401 23.3572 12.0161C23.7768 12.1921 24.1571 12.4501 24.4757 12.775C25.1322 13.4415 25.5002 14.3395 25.5002 15.275C25.5002 16.2105 25.1322 17.1085 24.4757 17.775L18.0007 24.3313L11.5257 17.775C10.8692 17.1085 10.5012 16.2105 10.5012 15.275C10.5012 14.3395 10.8692 13.4415 11.5257 12.775C11.8445 12.4503 12.2248 12.1925 12.6444 12.0164C13.064 11.8404 13.5144 11.7497 13.9695 11.7497C14.4245 11.7497 14.8749 11.8404 15.2945 12.0164C15.7141 12.1925 16.0944 12.4503 16.4132 12.775L18.0007 14.4L19.582 12.7875C19.8996 12.4587 20.2803 12.1974 20.7013 12.0192C21.1222 11.8409 21.5748 11.7493 22.032 11.75ZM22.032 10.5C21.4105 10.4995 20.7951 10.623 20.222 10.8634C19.6489 11.1038 19.1296 11.4563 18.6945 11.9L18.0007 12.6L17.307 11.9C16.8713 11.4571 16.3518 11.1053 15.7788 10.8651C15.2058 10.625 14.5908 10.5013 13.9695 10.5013C13.3482 10.5013 12.7331 10.625 12.1601 10.8651C11.5871 11.1053 11.0676 11.4571 10.632 11.9C9.74564 12.8023 9.24902 14.0165 9.24902 15.2813C9.24902 16.546 9.74564 17.7602 10.632 18.6625L18.0007 26.125L25.3695 18.6625C26.2558 17.7602 26.7524 16.546 26.7524 15.2813C26.7524 14.0165 26.2558 12.8023 25.3695 11.9C24.9339 11.4568 24.4145 11.1048 23.8415 10.8644C23.2685 10.6241 22.6533 10.5002 22.032 10.5Z" fill="white"/>
</svg>
