<svg width="22" height="22" viewBox="0 0 22 22" fill="none" xmlns="http://www.w3.org/2000/svg">
<path d="M14.75 8V6.5H11.75V4.25H10.25V6.5H8.75001C8.3523 6.5004 7.971 6.65856 7.68979 6.93978C7.40857 7.221 7.2504 7.6023 7.25001 8V10.25C7.2504 10.6477 7.40857 11.029 7.68979 11.3102C7.971 11.5914 8.3523 11.7496 8.75001 11.75H13.25V14H7.25001V15.5H10.25V17.75H11.75V15.5H13.25C13.6477 15.4995 14.029 15.3414 14.3102 15.0602C14.5914 14.7789 14.7495 14.3977 14.75 14V11.75C14.7496 11.3523 14.5914 10.971 14.3102 10.6898C14.029 10.4086 13.6477 10.2504 13.25 10.25H8.75001V8H14.75Z" fill="#FA541C"/>
<path d="M11 2C12.78 2 14.5201 2.52784 16.0001 3.51677C17.4802 4.50571 18.6337 5.91131 19.3149 7.55585C19.9961 9.20038 20.1743 11.01 19.8271 12.7558C19.4798 14.5016 18.6226 16.1053 17.364 17.364C16.1053 18.6226 14.5016 19.4798 12.7558 19.8271C11.01 20.1743 9.20039 19.9961 7.55585 19.3149C5.91132 18.6337 4.50571 17.4802 3.51678 16.0001C2.52785 14.5201 2 12.78 2 11C2.00699 8.6152 2.95744 6.33007 4.64376 4.64375C6.33008 2.95744 8.6152 2.00698 11 2ZM11 0.5C8.9233 0.5 6.89323 1.11581 5.16652 2.26957C3.4398 3.42332 2.09399 5.0632 1.29927 6.98182C0.50455 8.90045 0.296614 11.0116 0.701759 13.0484C1.1069 15.0852 2.10693 16.9562 3.57538 18.4246C5.04383 19.8931 6.91476 20.8931 8.95156 21.2982C10.9884 21.7034 13.0996 21.4955 15.0182 20.7007C16.9368 19.906 18.5767 18.5602 19.7304 16.8335C20.8842 15.1068 21.5 13.0767 21.5 11C21.4919 8.21773 20.383 5.55175 18.4156 3.58438C16.4483 1.61702 13.7823 0.508152 11 0.5Z" fill="#FA541C"/>
</svg>
