<svg width="22" height="21" viewBox="0 0 22 21" fill="none" xmlns="http://www.w3.org/2000/svg">
<path fill-rule="evenodd" clip-rule="evenodd" d="M10.9929 0.00195312C11.3735 0.00195312 11.7211 0.218054 11.8896 0.559392L14.7428 6.34073L21.1223 7.26529C21.4992 7.31992 21.8123 7.58388 21.93 7.94609C22.0476 8.30831 21.9493 8.70589 21.6764 8.97153L17.0534 13.4715L18.1435 19.8259C18.2079 20.2012 18.0535 20.5805 17.7453 20.8042C17.4371 21.0279 17.0286 21.0572 16.6917 20.8796L10.9993 17.88L5.29323 20.8801C4.95631 21.0572 4.54803 21.0277 4.24008 20.804C3.93213 20.5802 3.7779 20.2011 3.84226 19.8259L4.9323 13.4715L0.309353 8.97153C0.0364568 8.70589 -0.0618673 8.30831 0.0557586 7.94609C0.173384 7.58388 0.486538 7.31992 0.863436 7.26529L7.2429 6.34073L10.0961 0.559392C10.2646 0.218054 10.6122 0.00195312 10.9929 0.00195312ZM10.9929 3.26153L8.8036 7.69751C8.65788 7.99278 8.37615 8.19739 8.05029 8.24461L3.15827 8.9536L6.70438 12.4054C6.94041 12.6351 7.04816 12.9664 6.99247 13.291L6.15607 18.1668L10.5345 15.8648C10.8261 15.7115 11.1746 15.7117 11.4661 15.8653L15.8293 18.1645L14.9933 13.291C14.9376 12.9664 15.0453 12.6351 15.2814 12.4054L18.8275 8.9536L13.9354 8.24461C13.6096 8.19739 13.3278 7.99278 13.1821 7.69751L10.9929 3.26153Z" fill="#FA541C"/>
</svg>
