<svg width="14" height="14" viewBox="0 0 14 14" fill="none" xmlns="http://www.w3.org/2000/svg">
<path d="M10.6033 4.20687C11.0506 4.20687 11.4133 3.84422 11.4133 3.39687C11.4133 2.94952 11.0506 2.58687 10.6033 2.58687C10.1559 2.58687 9.79329 2.94952 9.79329 3.39687C9.79329 3.84422 10.1559 4.20687 10.6033 4.20687Z" fill="#FA541C"/>
<path d="M7.00035 3.53375C6.31479 3.53375 5.64463 3.73704 5.07461 4.11791C4.50459 4.49879 4.06031 5.04014 3.79796 5.67351C3.53561 6.30688 3.46697 7.00383 3.60071 7.67621C3.73446 8.3486 4.06459 8.96622 4.54935 9.45098C5.03411 9.93575 5.65173 10.2659 6.32412 10.3996C6.9965 10.5334 7.69345 10.4647 8.32682 10.2024C8.96019 9.94002 9.50154 9.49574 9.88242 8.92572C10.2633 8.3557 10.4666 7.68554 10.4666 6.99998C10.4666 6.08068 10.1014 5.19903 9.45135 4.54898C8.8013 3.89894 7.91965 3.53375 7.00035 3.53375ZM7.00035 9.24998C6.55534 9.24998 6.12033 9.11802 5.75032 8.87079C5.38031 8.62356 5.09192 8.27215 4.92162 7.86102C4.75132 7.44989 4.70676 6.99749 4.79358 6.56103C4.8804 6.12457 5.09469 5.72366 5.40936 5.40899C5.72403 5.09432 6.12494 4.88003 6.5614 4.79322C6.99785 4.7064 7.45025 4.75096 7.86139 4.92125C8.27252 5.09155 8.62392 5.37994 8.87116 5.74995C9.11839 6.11996 9.25035 6.55498 9.25035 6.99998C9.25035 7.59672 9.0133 8.16902 8.59134 8.59097C8.16938 9.01293 7.59709 9.24998 7.00035 9.24998Z" fill="#FA541C"/>
<path d="M7 1.46624C8.80231 1.46624 9.01583 1.4731 9.72756 1.50561C10.1556 1.51071 10.5796 1.58933 10.981 1.73804C11.2721 1.85036 11.5364 2.02237 11.7571 2.24299C11.9777 2.46362 12.1497 2.72798 12.262 3.01907C12.4107 3.42048 12.4893 3.84446 12.4944 4.27249C12.5269 4.98423 12.5338 5.19775 12.5338 7.00006C12.5338 8.80236 12.527 9.01589 12.4944 9.72762C12.4893 10.1557 12.4107 10.5796 12.262 10.981C12.1497 11.2721 11.9777 11.5365 11.7571 11.7571C11.5364 11.9777 11.2721 12.1498 10.981 12.2621C10.5796 12.4108 10.1556 12.4894 9.72756 12.4945C9.01589 12.527 8.80247 12.5339 7 12.5339C5.19753 12.5339 4.98411 12.527 4.27244 12.4945C3.8444 12.4894 3.42042 12.4108 3.01902 12.2621C2.72792 12.1498 2.46356 11.9777 2.24294 11.7571C2.02231 11.5365 1.8503 11.2721 1.73798 10.981C1.58927 10.5796 1.51065 10.1557 1.50556 9.72762C1.4731 9.01589 1.46618 8.80236 1.46618 7.00006C1.46618 5.19775 1.47304 4.98423 1.50556 4.27249C1.51065 3.84446 1.58927 3.42048 1.73798 3.01907C1.8503 2.72797 2.0223 2.4636 2.24293 2.24296C2.46355 2.02233 2.72792 1.85031 3.01902 1.73798C3.42042 1.58927 3.8444 1.51065 4.27244 1.50556C4.98417 1.4731 5.19769 1.46624 7 1.46624ZM7 0.25C5.16681 0.25 4.93692 0.257762 4.21697 0.290612C3.65709 0.301853 3.10317 0.407944 2.57875 0.604375C2.13029 0.777801 1.72301 1.04301 1.38301 1.38301C1.04301 1.72301 0.777801 2.13029 0.604375 2.57875C0.407913 3.10325 0.301821 3.65728 0.290612 4.21726C0.257762 4.93692 0.25 5.16681 0.25 7C0.25 8.83319 0.257762 9.06308 0.290612 9.78302C0.301828 10.343 0.407919 10.897 0.604375 11.4215C0.777801 11.87 1.04301 12.2773 1.38301 12.6173C1.72301 12.9573 2.13029 13.2225 2.57875 13.3959C3.10325 13.5924 3.65728 13.6985 4.21726 13.7097C4.93692 13.7422 5.16681 13.75 7 13.75C8.83319 13.75 9.06308 13.7422 9.78302 13.7094C10.343 13.6982 10.897 13.5921 11.4215 13.3956C11.87 13.2222 12.2773 12.957 12.6173 12.617C12.9573 12.277 13.2225 11.8697 13.3959 11.4213C13.5924 10.8967 13.6985 10.3427 13.7097 9.78274C13.7422 9.06308 13.75 8.83319 13.75 7C13.75 5.16681 13.7422 4.93692 13.7094 4.21697C13.6981 3.65709 13.5921 3.10317 13.3956 2.57875C13.2222 2.13034 12.9569 1.72311 12.6169 1.38317C12.277 1.04322 11.8697 0.778051 11.4213 0.604656C10.8967 0.4082 10.3427 0.302109 9.78274 0.290894C9.06308 0.257763 8.83319 0.25 7 0.25Z" fill="#FA541C"/>
</svg>
