<svg width="18" height="17" viewBox="0 0 18 17" fill="none" xmlns="http://www.w3.org/2000/svg">
<path d="M13.0315 1.75C13.4866 1.74962 13.9371 1.84008 14.3568 2.01609C14.7764 2.1921 15.1567 2.45011 15.4753 2.775C16.1318 3.44149 16.4998 4.33947 16.4998 5.275C16.4998 6.21053 16.1318 7.10851 15.4753 7.775L9.00029 14.3313L2.52529 7.775C1.86878 7.10851 1.50078 6.21053 1.50078 5.275C1.50078 4.33947 1.86878 3.44149 2.52529 2.775C2.84409 2.45035 3.2244 2.19247 3.64398 2.01643C4.06357 1.8404 4.51402 1.74973 4.96904 1.74973C5.42405 1.74973 5.87451 1.8404 6.29409 2.01643C6.71368 2.19247 7.09398 2.45035 7.41279 2.775L9.00029 4.4L10.5815 2.7875C10.8992 2.45874 11.2799 2.19741 11.7008 2.01915C12.1218 1.84089 12.5744 1.74935 13.0315 1.75ZM13.0315 0.500002C12.41 0.499475 11.7947 0.623036 11.2216 0.86344C10.6485 1.10384 10.1292 1.45625 9.69404 1.9L9.00029 2.6L8.30654 1.9C7.87088 1.45705 7.35141 1.10526 6.7784 0.865121C6.2054 0.624984 5.59032 0.501311 4.96904 0.501311C4.34775 0.501311 3.73267 0.624984 3.15967 0.865121C2.58666 1.10526 2.06719 1.45705 1.63154 1.9C0.745211 2.80227 0.248596 4.01648 0.248596 5.28125C0.248596 6.54603 0.745211 7.76024 1.63154 8.6625L9.00029 16.125L16.369 8.6625C17.2554 7.76024 17.752 6.54603 17.752 5.28125C17.752 4.01648 17.2554 2.80227 16.369 1.9C15.9335 1.45682 15.4141 1.10478 14.8411 0.864415C14.268 0.624051 13.6529 0.500173 13.0315 0.500002Z" fill="#637381"/>
</svg>
