<svg width="18" height="22" viewBox="0 0 18 22" fill="none" xmlns="http://www.w3.org/2000/svg">
<path d="M9 12.5C8.25832 12.5 7.53329 12.2801 6.91661 11.868C6.29992 11.456 5.81927 10.8703 5.53545 10.1851C5.25162 9.49984 5.17735 8.74584 5.32205 8.01841C5.46674 7.29098 5.8239 6.6228 6.34834 6.09835C6.87279 5.5739 7.54098 5.21675 8.26841 5.07205C8.99584 4.92736 9.74984 5.00162 10.4351 5.28545C11.1203 5.56928 11.706 6.04993 12.118 6.66661C12.5301 7.2833 12.75 8.00832 12.75 8.75C12.7489 9.74421 12.3534 10.6974 11.6504 11.4004C10.9474 12.1034 9.99421 12.4989 9 12.5ZM9 6.5C8.55499 6.5 8.11997 6.63196 7.74996 6.87919C7.37995 7.12643 7.09156 7.47783 6.92127 7.88896C6.75097 8.3001 6.70641 8.75249 6.79323 9.18895C6.88004 9.62541 7.09434 10.0263 7.409 10.341C7.72367 10.6557 8.12458 10.8699 8.56104 10.9568C8.9975 11.0436 9.4499 10.999 9.86103 10.8287C10.2722 10.6584 10.6236 10.37 10.8708 10C11.118 9.63002 11.25 9.19501 11.25 8.75C11.2493 8.15346 11.0121 7.58155 10.5903 7.15973C10.1684 6.73792 9.59653 6.50065 9 6.5Z" fill="white"/>
<path d="M8.99999 21.5L2.67337 14.0385C2.63744 13.9957 2.41222 13.6999 2.41222 13.6999C1.33139 12.2763 0.74746 10.5374 0.749993 8.75C0.749993 6.56196 1.61919 4.46354 3.16636 2.91637C4.71354 1.36919 6.81196 0.5 8.99999 0.5C11.188 0.5 13.2864 1.36919 14.8336 2.91637C16.3808 4.46354 17.25 6.56196 17.25 8.75C17.2527 10.5367 16.6691 12.2749 15.5889 13.698L15.5878 13.6999C15.5878 13.6999 15.3628 13.9956 15.3292 14.0354L8.99999 21.5ZM3.60937 12.7963C3.61012 12.7968 3.78442 13.0274 3.82432 13.077L8.99999 19.1809L14.1825 13.0684C14.2154 13.027 14.3912 12.7948 14.3916 12.7942C15.2745 11.631 15.7517 10.2103 15.75 8.75C15.75 6.95979 15.0388 5.2429 13.773 3.97703C12.5071 2.71116 10.7902 2 8.99999 2C7.20978 2 5.49289 2.71116 4.22702 3.97703C2.96115 5.2429 2.24999 6.95979 2.24999 8.75C2.24833 10.2111 2.72585 11.6325 3.60937 12.7963Z" fill="white"/>
</svg>
