<svg width="75" height="20" viewBox="0 0 75 20" fill="none" xmlns="http://www.w3.org/2000/svg">
<ellipse cx="69.1667" cy="14.1667" rx="4.16669" ry="4.16666" fill="#FA541C"/>
<path d="M49.4448 18.3333H45.3604L38.5292 8.05314V18.3333H34.4448V1.66663H38.5292L45.3604 11.9943V1.66663H49.4448V18.3333Z" fill="white"/>
<path d="M55.6437 4.91924V8.29056H61.1114V11.4245H55.6437V15.0807H61.667V18.3333H51.667V1.66663H61.667V4.91924H55.6437Z" fill="white"/>
<path d="M23.9124 18.3333C22.3846 18.3333 20.9803 17.9779 19.6994 17.267C18.434 16.5561 17.4232 15.5671 16.667 14.2999C15.9263 13.0173 15.5559 11.5801 15.5559 9.98837C15.5559 8.39665 15.9263 6.9672 16.667 5.70001C17.4232 4.43281 18.434 3.44379 19.6994 2.73292C20.9803 2.02206 22.3846 1.66663 23.9124 1.66663C25.4401 1.66663 26.8367 2.02206 28.1022 2.73292C29.383 3.44379 30.3861 4.43281 31.1114 5.70001C31.8522 6.9672 32.2225 8.39665 32.2225 9.98837C32.2225 11.5801 31.8522 13.0173 31.1114 14.2999C30.3707 15.5671 29.3676 16.5561 28.1022 17.267C26.8367 17.9779 25.4401 18.3333 23.9124 18.3333ZM23.9124 14.7172C25.2087 14.7172 26.2426 14.2845 27.0142 13.4191C27.8013 12.5537 28.1948 11.4101 28.1948 9.98837C28.1948 8.55119 27.8013 7.40762 27.0142 6.55768C26.2426 5.69228 25.2087 5.25958 23.9124 5.25958C22.6006 5.25958 21.5513 5.68455 20.7642 6.5345C19.9926 7.38444 19.6068 8.53573 19.6068 9.98837C19.6068 11.4256 19.9926 12.5768 20.7642 13.4422C21.5513 14.2922 22.6006 14.7172 23.9124 14.7172Z" fill="white"/>
<path d="M6.23016 15.0095H13.3337V18.3333H1.66699V15.2469L8.72344 4.99046H1.66699V1.66663H13.3337V4.75305L6.23016 15.0095Z" fill="white"/>
</svg>
