<svg width="18" height="14" viewBox="0 0 18 14" fill="none" xmlns="http://www.w3.org/2000/svg">
<path d="M16.5 0.609863H1.5C1.16848 0.609863 0.850537 0.741559 0.616116 0.97598C0.381696 1.2104 0.25 1.52834 0.25 1.85986V11.8599C0.25 12.1914 0.381696 12.5093 0.616116 12.7437C0.850537 12.9782 1.16848 13.1099 1.5 13.1099H16.5C16.8315 13.1099 17.1495 12.9782 17.3839 12.7437C17.6183 12.5093 17.75 12.1914 17.75 11.8599V1.85986C17.75 1.52834 17.6183 1.2104 17.3839 0.97598C17.1495 0.741559 16.8315 0.609863 16.5 0.609863ZM15.125 1.85986L9 6.09736L2.875 1.85986H15.125ZM1.5 11.8599V2.42861L8.64375 7.37236C8.74837 7.44494 8.87267 7.48384 9 7.48384C9.12733 7.48384 9.25163 7.44494 9.35625 7.37236L16.5 2.42861V11.8599H1.5Z" fill="#212B36"/>
</svg>
