<svg width="18" height="18" viewBox="0 0 18 18" fill="none" xmlns="http://www.w3.org/2000/svg">
<path d="M17.1247 16.2411L12.4046 11.521C13.5388 10.1594 14.1044 8.41288 13.9837 6.64485C13.863 4.87682 13.0653 3.22339 11.7566 2.02851C10.4479 0.833631 8.72885 0.189302 6.95717 0.229562C5.18548 0.269822 3.49752 0.991571 2.24442 2.24467C0.991327 3.49776 0.269578 5.18572 0.229318 6.95741C0.189058 8.7291 0.833387 10.4481 2.02827 11.7568C3.22315 13.0655 4.87658 13.8632 6.64461 13.9839C8.41264 14.1046 10.1591 13.539 11.5208 12.4048L16.2408 17.1249L17.1247 16.2411ZM1.49966 7.1249C1.49966 6.01238 1.82956 4.92485 2.44764 3.99982C3.06573 3.0748 3.94423 2.35382 4.97207 1.92808C5.9999 1.50234 7.1309 1.39094 8.22204 1.60799C9.31319 1.82503 10.3155 2.36076 11.1021 3.14743C11.8888 3.9341 12.4245 4.93638 12.6416 6.02752C12.8586 7.11866 12.7472 8.24966 12.3215 9.2775C11.8957 10.3053 11.1748 11.1838 10.2497 11.8019C9.32472 12.42 8.23718 12.7499 7.12466 12.7499C5.63333 12.7483 4.20355 12.1551 3.14901 11.1006C2.09448 10.046 1.50131 8.61624 1.49966 7.1249Z" fill="white"/>
</svg>
