<svg width="17" height="18" viewBox="0 0 17 18" fill="none" xmlns="http://www.w3.org/2000/svg">
<path d="M13.3747 11.4999C12.9069 11.5022 12.4455 11.6096 12.0247 11.814C11.6039 12.0185 11.2344 12.3148 10.9434 12.6811L6.37469 9.82488C6.5412 9.28749 6.5412 8.71228 6.37469 8.17488L10.9434 5.31863C11.4072 5.89283 12.0591 6.28437 12.7839 6.42389C13.5086 6.56341 14.2594 6.4419 14.9031 6.0809C15.5469 5.7199 16.0421 5.14269 16.301 4.45154C16.5599 3.76039 16.5659 2.99989 16.3178 2.30478C16.0697 1.60966 15.5836 1.0248 14.9455 0.653777C14.3075 0.282759 13.5588 0.14954 12.8319 0.277719C12.1051 0.405897 11.447 0.787201 10.9744 1.35408C10.5018 1.92097 10.245 2.63684 10.2497 3.37488C10.2526 3.65437 10.2947 3.93207 10.3747 4.19988L5.80594 7.05613C5.40259 6.54837 4.85127 6.17866 4.22841 5.99826C3.60554 5.81785 2.94198 5.83568 2.3297 6.04927C1.71741 6.26286 1.18674 6.66164 0.811242 7.19032C0.435741 7.71901 0.234009 8.35142 0.234009 8.99988C0.234009 9.64835 0.435741 10.2808 0.811242 10.8094C1.18674 11.3381 1.71741 11.7369 2.3297 11.9505C2.94198 12.1641 3.60554 12.1819 4.22841 12.0015C4.85127 11.8211 5.40259 11.4514 5.80594 10.9436L10.3747 13.7999C10.2947 14.0677 10.2526 14.3454 10.2497 14.6249C10.2497 15.243 10.433 15.8471 10.7763 16.361C11.1197 16.8749 11.6078 17.2755 12.1788 17.512C12.7498 17.7485 13.3782 17.8104 13.9843 17.6898C14.5905 17.5693 15.1474 17.2716 15.5844 16.8346C16.0214 16.3976 16.3191 15.8407 16.4396 15.2345C16.5602 14.6284 16.4983 14 16.2618 13.429C16.0253 12.858 15.6247 12.3699 15.1108 12.0265C14.5969 11.6832 13.9928 11.4999 13.3747 11.4999ZM13.3747 1.49988C13.7455 1.49988 14.108 1.60985 14.4164 1.81588C14.7247 2.02191 14.965 2.31474 15.107 2.65735C15.2489 2.99996 15.286 3.37696 15.2137 3.74068C15.1413 4.10439 14.9627 4.43849 14.7005 4.70071C14.4383 4.96293 14.1042 5.14151 13.7405 5.21386C13.3768 5.2862 12.9998 5.24907 12.6572 5.10716C12.3145 4.96524 12.0217 4.72492 11.8157 4.41658C11.6097 4.10824 11.4997 3.74572 11.4997 3.37488C11.4997 2.8776 11.6972 2.40069 12.0489 2.04906C12.4005 1.69743 12.8774 1.49988 13.3747 1.49988ZM3.37469 10.8749C3.00385 10.8749 2.64134 10.7649 2.33299 10.5589C2.02465 10.3529 1.78433 10.06 1.64241 9.71742C1.5005 9.3748 1.46337 8.9978 1.53572 8.63409C1.60806 8.27038 1.78664 7.93628 2.04886 7.67406C2.31109 7.41184 2.64518 7.23326 3.00889 7.16091C3.37261 7.08856 3.74961 7.1257 4.09222 7.26761C4.43483 7.40952 4.72767 7.64985 4.93369 7.95819C5.13972 8.26653 5.24969 8.62904 5.24969 8.99988C5.24969 9.49717 5.05214 9.97408 4.70051 10.3257C4.34888 10.6773 3.87197 10.8749 3.37469 10.8749ZM13.3747 16.4999C13.0038 16.4999 12.6413 16.3899 12.333 16.1839C12.0247 15.9779 11.7843 15.685 11.6424 15.3424C11.5005 14.9998 11.4634 14.6228 11.5357 14.2591C11.6081 13.8954 11.7866 13.5613 12.0489 13.2991C12.3111 13.0368 12.6452 12.8583 13.0089 12.7859C13.3726 12.7136 13.7496 12.7507 14.0922 12.8926C14.4348 13.0345 14.7277 13.2748 14.9337 13.5832C15.1397 13.8915 15.2497 14.254 15.2497 14.6249C15.2497 15.1222 15.0521 15.5991 14.7005 15.9507C14.3489 16.3023 13.872 16.4999 13.3747 16.4999Z" fill="#637381"/>
</svg>
