<svg width="18" height="17" viewBox="0 0 18 17" fill="none" xmlns="http://www.w3.org/2000/svg">
<path d="M13.6334 16.5001C13.5001 16.5006 13.3687 16.4692 13.25 16.4084L9.00005 14.1834L4.75005 16.4084C4.61204 16.481 4.45644 16.5134 4.30094 16.5019C4.14544 16.4905 3.99628 16.4356 3.8704 16.3436C3.74453 16.2516 3.647 16.1261 3.58889 15.9814C3.53079 15.8367 3.51444 15.6786 3.54171 15.5251L4.37505 10.8334L0.941713 7.50009C0.834594 7.39319 0.758606 7.25915 0.721903 7.11233C0.6852 6.96552 0.689167 6.81148 0.73338 6.66676C0.78168 6.51865 0.870527 6.38705 0.989838 6.28689C1.10915 6.18672 1.25415 6.12201 1.40838 6.10009L6.15838 5.40842L8.25005 1.13342C8.31828 0.992529 8.42483 0.873707 8.55747 0.790567C8.69012 0.707426 8.8435 0.66333 9.00005 0.66333C9.15659 0.66333 9.30997 0.707426 9.44262 0.790567C9.57526 0.873707 9.68181 0.992529 9.75005 1.13342L11.8667 5.40009L16.6167 6.09176C16.7709 6.11368 16.9159 6.17839 17.0353 6.27855C17.1546 6.37872 17.2434 6.51032 17.2917 6.65842C17.3359 6.80315 17.3399 6.95719 17.3032 7.104C17.2665 7.25081 17.1905 7.38486 17.0834 7.49176L13.65 10.8251L14.4834 15.5168C14.5131 15.673 14.4976 15.8345 14.4385 15.9821C14.3794 16.1298 14.2793 16.2575 14.15 16.3501C13.9991 16.4558 13.8174 16.5086 13.6334 16.5001Z" fill="#FFC81A"/>
</svg>
