<svg width="466" height="466" viewBox="0 0 466 466" fill="none" xmlns="http://www.w3.org/2000/svg">
<path d="M452.173 217.725C439.664 479.018 10.129 460.137 20.6025 198.766C33.1141 -62.5145 462.649 -43.6315 452.173 217.725Z" fill="#919EAB" fill-opacity="0.08"/>
<path d="M394.186 193.809C393.323 403.141 56.0443 403.117 55.2129 193.799C56.075 -15.5166 393.353 -15.4987 394.186 193.809Z" fill="#FDAB76"/>
<g style="mix-blend-mode:multiply" opacity="0.12">
<path d="M291.723 209.218C290.348 268.633 287.609 337.096 257.984 389.879C250.403 401.899 237.346 411.415 224.193 400.594C194.367 372.175 187.287 302.971 183.124 262.971C178.323 195.15 179.565 88.8433 212.943 29.0951C225.671 8.99415 242.167 10.0779 255.269 29.3766C286.438 81.5757 290.262 149.641 291.723 209.218ZM288.798 209.218C288.371 156.749 284.206 103.094 266.103 53.4664C259.671 37.0501 243.752 3.07077 222.32 19.8073C180.576 63.9334 182.405 202.588 186.014 262.742C189.767 302.243 196.235 370.986 225.221 399.309C237.453 409.629 249.484 400.21 256.49 388.899C285.282 336.475 287.399 268.004 288.798 209.218Z" fill="black"/>
<path d="M380.777 209.22C382.17 296.33 328.08 403.551 230.697 405.332C184.274 405.717 142.75 376.231 117.883 338.547C67.6924 262.635 67.7166 155.825 117.976 79.9538C142.838 42.3059 184.342 12.9624 230.698 13.2794C328.017 15.1573 382.081 122.11 380.777 209.22ZM377.426 209.22C377.437 142.872 351.743 71.2175 294.429 33.6295C256.498 8.41065 204.905 8.4058 167.004 33.6893C56.174 108.692 56.2031 309.671 167.088 384.615C204.994 409.799 256.412 409.835 294.343 384.673C351.659 347.14 377.379 275.542 377.427 209.22H377.426Z" fill="black"/>
<path d="M55.7744 131.625C172.768 130.517 298.819 130.52 415.913 131.698C415.95 131.702 415.984 131.719 416.008 131.746C416.033 131.774 416.046 131.809 416.046 131.846C416.046 131.883 416.033 131.918 416.008 131.945C415.984 131.973 415.95 131.99 415.913 131.994C299.256 132.73 171.005 134.017 55.7744 131.625Z" fill="black"/>
<path d="M107.999 56.2263C192.57 55.1134 279.119 55.0859 363.688 56.2974C363.87 56.2974 363.875 56.5983 363.688 56.5935C279.586 57.3666 190.786 58.6186 107.999 56.2263Z" fill="black"/>
<path d="M40.1289 207.026C165.513 205.946 306.175 205.918 431.557 207.097C431.743 207.097 431.746 207.4 431.557 207.393C306.637 208.133 163.719 209.389 40.1289 207.026Z" fill="black"/>
<path d="M55.7744 282.426C172.768 281.318 298.819 281.321 415.913 282.499C416.099 282.499 416.102 282.801 415.913 282.795C299.256 283.531 171.005 284.818 55.7744 282.426Z" fill="black"/>
<path d="M370.13 358.819C369.288 358.049 113.553 360.294 113.671 358.048C113.458 357.284 374.219 355.157 370.13 358.819Z" fill="black"/>
</g>
<path d="M376.159 427.241C376.077 435.28 369.17 441.799 360.728 441.819L156.668 442.26C148.166 442.278 141.107 435.764 140.905 427.693L131.404 47.618C131.177 38.5809 138.314 31.2729 147.341 31.3166L363.949 32.3518C372.908 32.3955 380.093 39.7407 380.003 48.7373L376.159 427.241Z" fill="#212B36"/>
<path d="M357.765 70.6765C357.825 61.992 350.701 54.9056 341.849 54.8668L169.928 54.1098C161.022 54.071 153.954 61.1202 154.144 69.8354L161.211 392.991C161.384 400.907 168.385 407.298 176.846 407.285L340.176 407.026C348.587 407.013 355.45 400.619 355.505 392.731L357.765 70.6765Z" fill="#454F5B"/>
<path d="M281.791 42.572C281.794 42.971 281.717 43.3664 281.565 43.7354C281.414 44.1045 281.19 44.4397 280.908 44.7218C280.626 45.0039 280.291 45.2272 279.922 45.3788C279.553 45.5304 279.158 45.6072 278.759 45.6049L234.016 45.4027C233.204 45.3934 232.428 45.0667 231.853 44.4923C231.279 43.918 230.952 43.1416 230.943 42.3294C230.936 41.9307 231.009 41.5347 231.157 41.1646C231.305 40.7944 231.526 40.4577 231.807 40.1741C232.087 39.8905 232.421 39.6658 232.789 39.5131C233.158 39.3605 233.553 39.283 233.951 39.2852L278.744 39.4955C279.554 39.5027 280.329 39.8297 280.899 40.4053C281.47 40.9809 281.79 41.7584 281.79 42.5688L281.791 42.572Z" fill="#454F5B"/>
<path d="M193.17 362.762C186.271 363.697 166.919 358.943 166.823 370.387V380.532H171.676C171.202 361.607 171.387 367.49 193.176 366.531C195.45 366.531 196.985 368.113 196.985 370.387V380.532H201.838C201.639 373.177 204.007 363.003 193.17 362.762Z" fill="#B3200E"/>
<path d="M174.361 377.944C174.39 378.97 173.654 380.532 172.692 380.532H165.969C165.03 380.532 164.13 379.025 164.13 378.014C164.088 376.977 165.004 376.22 165.969 376.223H172.692C173.632 376.223 174.361 376.931 174.361 377.944Z" fill="#B3200E"/>
<path d="M204.515 377.944C204.546 378.971 203.75 380.532 202.789 380.532H196.065C194.598 380.495 194.143 376.082 196.065 376.223H202.789C203.017 376.219 203.243 376.26 203.454 376.345C203.665 376.43 203.856 376.556 204.018 376.717C204.179 376.878 204.306 377.069 204.391 377.28C204.477 377.491 204.519 377.717 204.515 377.944Z" fill="#B3200E"/>
<path d="M222.34 378.375H143.617C136.805 378.375 131.283 383.897 131.283 390.709V439.276C131.283 446.088 136.805 451.61 143.617 451.61H222.34C229.152 451.61 234.674 446.088 234.674 439.276V390.709C234.674 383.897 229.152 378.375 222.34 378.375Z" fill="#FA541C"/>
<path d="M231.656 392.363C231.656 386.258 226.48 381.441 220.086 381.441H146.003C139.613 381.441 134.432 386.258 134.432 392.363V435.908C134.432 442.014 139.608 446.964 146.003 446.964H220.086C226.477 446.964 231.656 442.014 231.656 435.908V392.363Z" fill="#FDAB76"/>
<path d="M156.59 449.97C156.59 451.692 154.848 453.766 153.082 453.766H149.62C147.854 453.766 146.36 451.692 146.36 449.97V378.171C146.326 374.973 150.947 375.782 153.077 375.685C154.843 375.685 156.586 376.447 156.586 378.171L156.59 449.97Z" fill="#22B8CF"/>
<path d="M219.057 449.969C219.057 451.691 218.249 453.765 216.469 453.765C213.181 453.799 210.337 454.315 209.896 449.969V378.17C209.805 374.946 214.354 375.786 216.469 375.684C218.236 375.684 219.057 376.446 219.057 378.17V449.969Z" fill="#22B8CF"/>
<path d="M155.12 401.532H147.985C145.522 401.532 143.133 398.365 143.133 396.101V391.706C143.24 387.096 152.099 388.99 155.122 388.608C157.569 388.608 159.287 389.462 159.287 391.706C159.404 395.162 159.651 401.031 155.12 401.532ZM147.985 390.224C146.635 390.224 145.823 390.763 145.823 391.706V396.101C145.823 397.061 146.604 397.763 147.985 397.763H155.12C156.414 397.763 157.131 397.116 157.131 396.101V391.706C157.131 390.648 156.392 390.224 155.12 390.224H147.985Z" fill="#116E95"/>
<path d="M150.13 402.229C150.15 403.473 147.958 403.475 147.977 402.229V396.528C147.969 395.863 148.611 395.522 149.211 395.609C149.455 395.609 149.689 395.706 149.861 395.878C150.033 396.05 150.13 396.284 150.13 396.528V402.229Z" fill="#116E95"/>
<path d="M154.978 402.229C154.996 403.473 152.804 403.475 152.823 402.229V396.528C152.823 395.863 153.457 395.522 154.058 395.609C154.178 395.609 154.298 395.632 154.41 395.678C154.521 395.724 154.623 395.792 154.708 395.877C154.794 395.963 154.862 396.064 154.908 396.176C154.954 396.287 154.978 396.407 154.978 396.528V402.229Z" fill="#116E95"/>
<path d="M218.513 401.532H211.378C208.914 401.532 206.134 398.365 206.134 396.101V391.706C206.423 387.161 215.393 388.964 218.513 388.608C220.96 388.608 222.827 389.462 222.827 391.706C222.938 395.329 223.208 400.895 218.513 401.532ZM211.378 390.224C210.027 390.224 208.827 390.763 208.827 391.706V396.101C208.937 398.909 216.78 397.406 218.513 397.763C219.807 397.763 221.211 397.116 221.211 396.101V391.706C221.165 389.176 212.987 390.559 211.378 390.224Z" fill="#116E95"/>
<path d="M213.673 402.229C213.691 403.473 211.499 403.475 211.519 402.229V396.528C211.519 395.863 212.153 395.522 212.754 395.609C212.998 395.609 213.232 395.706 213.404 395.878C213.576 396.05 213.673 396.284 213.673 396.528V402.229Z" fill="#116E95"/>
<path d="M218.519 402.229C218.537 403.473 216.347 403.475 216.365 402.229V396.528C216.365 395.863 216.999 395.522 217.6 395.609C217.844 395.609 218.078 395.706 218.25 395.878C218.422 396.05 218.519 396.284 218.519 396.528V402.229Z" fill="#116E95"/>
<path d="M139.463 446.692C133.135 443.732 133.173 436.825 133.436 430.716C133.367 430.197 134.041 430.188 133.973 430.716C133.748 436.377 133.569 443.226 139.675 445.933C140.054 446.11 139.869 446.718 139.463 446.692Z" fill="#B3200E"/>
<path d="M232.518 435.644C232.296 435.644 231.979 435.465 231.979 435.245V412.599C231.979 412.379 232.303 412.2 232.518 412.2C232.733 412.2 233.055 412.379 233.055 412.599V435.245C233.055 435.468 232.738 435.644 232.518 435.644Z" fill="#B3200E"/>
<path d="M232.518 406.878C232.296 406.878 231.979 406.699 231.979 406.479V396.091C231.979 395.869 232.303 395.691 232.518 395.691C232.733 395.691 233.055 395.869 233.055 396.091V406.479C233.055 406.699 232.738 406.878 232.518 406.878Z" fill="#B3200E"/>
<path d="M175.791 81.7645L158.219 70.8592C157.857 70.6359 157.423 70.5584 157.006 70.6424L134.139 75.3187C132.834 75.5419 132.342 77.3341 133.358 78.1882L147.052 90.5121L175.791 81.7645Z" fill="#B3200E"/>
<path d="M85.191 91.7125C81.2604 88.7896 51.3362 74.7997 49.9807 70.0555L37.6018 47.6447C37.1236 46.7794 36.3806 46.0902 35.4819 45.6783C34.5832 45.2663 33.5761 45.1533 32.6085 45.3559C26.2532 46.692 13.0656 49.6456 13.0009 51.1418C12.9151 53.1135 19.3092 102.616 19.3092 102.616L85.191 91.7125Z" fill="#B3200E"/>
<path d="M23.5007 101.947C23.5007 101.947 236.623 63.89 244.94 66.5556C253.257 69.2213 268.113 78.0498 272.494 78.0692C276.876 78.0886 292.201 80.785 288.209 91.7211C284.217 102.657 107.481 136.066 86.9206 128.948C66.3603 121.831 14.2711 108.479 14.2711 108.479C14.2711 108.479 9.48325 101.009 23.5007 101.947Z" fill="#FA541C"/>
<path d="M25.4854 109.038L22.9249 119.473C22.7121 120.331 22.699 121.226 22.8866 122.09C23.0742 122.954 23.4575 123.763 24.007 124.455C24.5616 125.151 25.2675 125.711 26.0711 126.093C26.8747 126.475 27.7547 126.669 28.6445 126.66L39.4819 126.708C40.3225 126.724 41.1568 126.56 41.928 126.225C42.6992 125.89 43.3892 125.393 43.9511 124.767L63.3048 102.777L25.4854 109.038Z" fill="#FA541C"/>
<path d="M137.064 144.036C137.064 144.036 143.6 152.123 154.281 152.164C164.961 152.204 178.118 149.31 180.599 145.543C183.081 141.776 188.462 113.88 166.755 117.803C145.048 121.725 119.692 134.266 137.064 144.036Z" fill="#FA541C"/>
<path d="M125.035 115.153L175.683 106.418L132.996 160.89C132.701 161.268 132.33 161.58 131.907 161.807C131.484 162.035 131.019 162.172 130.541 162.21L100.209 164.646C99.5653 164.698 98.9199 164.569 98.3453 164.274C97.7707 163.98 97.2896 163.531 96.9561 162.978C96.6226 162.425 96.4498 161.79 96.4573 161.144C96.4647 160.498 96.652 159.867 96.9982 159.322L125.035 115.153Z" fill="#B3200E"/>
<path d="M177.817 146.302C182.863 144.953 183.733 130.547 180.102 124.375C179.577 123.39 178.81 122.554 177.874 121.947C176.937 121.339 175.862 120.98 174.748 120.902C163.544 120.412 173.385 144.109 177.817 146.302ZM175.447 121.932C176.257 122.107 177.02 122.454 177.683 122.951C178.346 123.448 178.894 124.083 179.289 124.812C182.747 131.99 181.865 141.472 178.08 145.403C174.216 143.276 164.7 120.042 175.447 121.932Z" fill="#B3200E"/>
<path d="M100.438 103.637C100.51 99.4912 106.864 99.5187 106.908 103.666V105.711C106.835 109.856 100.48 109.829 100.438 105.683V103.637Z" fill="#FDAB76"/>
<path d="M112.444 102.767C112.517 98.6193 118.871 98.6484 118.914 102.796V104.84C118.842 108.986 112.486 108.959 112.444 104.811V102.767Z" fill="#FDAB76"/>
<path d="M124.459 100.049C124.532 95.9035 130.886 95.931 130.921 100.078V102.123C130.849 106.27 124.493 106.243 124.451 102.095L124.459 100.049Z" fill="#FDAB76"/>
<path d="M135.546 98.2521C135.619 94.1048 141.974 94.1339 142.016 98.2796L142.006 100.326C141.933 104.472 135.58 104.444 135.536 100.297L135.546 98.2521Z" fill="#FDAB76"/>
<path d="M148.481 96.4615C148.552 92.3158 154.908 92.3433 154.943 96.4906L154.933 98.5368C154.862 102.683 148.507 102.655 148.463 98.5077L148.481 96.4615Z" fill="#FDAB76"/>
<path d="M160.491 94.6693C160.564 90.522 166.918 90.5495 166.953 94.6968V96.743C166.881 100.889 160.525 100.861 160.483 96.7139L160.491 94.6693Z" fill="#FDAB76"/>
<path d="M172.506 91.9519C172.579 87.8062 178.933 87.8336 178.968 91.981V94.0255C178.896 98.1713 172.54 98.1438 172.498 93.998L172.506 91.9519Z" fill="#FDAB76"/>
<path d="M183.59 91.0768C183.662 86.9311 190.016 86.9586 190.052 91.1059V93.1521C189.979 97.2978 183.624 97.2703 183.581 93.123L183.59 91.0768Z" fill="#FDAB76"/>
<path d="M195.6 89.283C195.672 85.1372 202.028 85.1647 202.07 89.3121L202.06 91.3582C201.987 95.504 195.634 95.4765 195.59 91.3291L195.6 89.283Z" fill="#FDAB76"/>
<path d="M207.615 86.5671C207.687 82.4198 214.043 82.4489 214.085 86.5946L214.075 88.6408C214.002 92.7865 207.649 92.759 207.605 88.6117L207.615 86.5671Z" fill="#FDAB76"/>
<path d="M218.698 85.692C218.771 81.5463 225.126 81.5738 225.168 85.7212L225.158 87.7657C225.086 91.913 218.732 91.8855 218.696 87.7382L218.698 85.692Z" fill="#FDAB76"/>
<path d="M259.783 73.2031L238.697 78.9648C237.932 79.1743 237.263 79.6446 236.808 80.2942C236.352 80.9439 236.138 81.7323 236.201 82.5233C236.363 84.4643 236.649 86.6658 237.083 86.483C237.851 86.1595 270.904 77.9101 270.904 77.9101L259.783 73.2031Z" fill="#FDAB76"/>
<path d="M326.6 261.928L216.906 259.947L216.862 266.453C216.858 266.661 216.812 266.866 216.727 267.055C216.642 267.245 216.519 267.416 216.367 267.558C216.215 267.7 216.035 267.809 215.84 267.881C215.644 267.952 215.437 267.983 215.229 267.973C215.019 267.976 214.811 267.938 214.616 267.861C214.422 267.783 214.244 267.668 214.094 267.522C213.944 267.376 213.824 267.202 213.741 267.01C213.658 266.817 213.614 266.61 213.611 266.401L213.653 259.889L181.19 259.301C178.865 259.259 177.107 261.291 177.104 263.437L177.02 341.921C177.02 344.024 178.75 345.38 181.046 345.362L213.111 345.108L213.147 339.374C213.16 338.958 213.338 338.563 213.641 338.278C213.944 337.992 214.348 337.838 214.764 337.85C215.672 337.85 216.366 338.52 216.361 339.354L216.322 345.084L324.729 344.226C326.832 344.21 328.541 342.884 328.588 340.883L330.329 266.011C330.38 263.965 328.722 261.967 326.6 261.928ZM216.416 331.784C216.456 333.74 213.145 333.779 213.199 331.797L213.254 323.184C213.213 321.22 216.531 321.194 216.474 323.184L216.416 331.784ZM216.526 315.569C216.565 317.539 213.244 317.552 213.302 315.569L213.357 306.915C213.32 304.935 216.646 304.938 216.592 306.926L216.526 315.569ZM216.646 299.272C216.681 301.257 213.354 301.242 213.411 299.251L213.466 290.557C213.432 288.562 216.765 288.592 216.701 290.584L216.646 299.272ZM216.757 282.901C216.79 284.9 213.454 284.86 213.522 282.866L213.577 274.131C213.547 272.122 216.887 272.18 216.812 274.176L216.757 282.901Z" fill="#D2FCF4"/>
<path d="M295.583 271.68C295.552 273.413 294.054 274.796 292.238 274.772L250.866 274.202C246.412 274.142 246.455 267.496 250.944 267.559L292.353 268.217C294.277 268.238 295.745 269.843 295.583 271.68Z" fill="#22B8CF"/>
<path d="M323.128 271.964C323.089 273.743 321.552 275.178 319.694 275.152L306.106 274.964C304.222 274.938 302.724 273.445 302.771 271.638C302.818 269.832 304.358 268.403 306.236 268.434L319.841 268.651C321.703 268.68 323.181 270.168 323.128 271.964Z" fill="#22B8CF"/>
<path d="M317.419 317.757C317.395 318.822 316.475 319.682 315.36 319.684L251.534 319.693C250.375 319.693 249.443 318.813 249.456 317.726C249.469 316.641 250.426 315.761 251.581 315.763L315.443 315.829C316.557 315.829 317.442 316.695 317.419 317.757Z" fill="#22B8CF"/>
<path d="M317.258 324.811C317.235 325.872 316.313 326.734 315.2 326.736L274.354 326.833C273.211 326.833 272.297 325.966 272.313 324.892C272.329 323.815 273.271 322.941 274.416 322.94L315.284 322.893C316.397 322.893 317.282 323.75 317.259 324.813L317.258 324.811Z" fill="#22B8CF"/>
<path d="M317.096 332.169C317.073 333.227 316.153 334.089 315.042 334.096L274.238 334.287C273.096 334.287 272.182 333.426 272.198 332.346C272.214 331.272 273.154 330.405 274.301 330.393L315.127 330.251C316.24 330.251 317.123 331.103 317.101 332.163L317.096 332.169Z" fill="#22B8CF"/>
<path d="M185.772 338.356C185.772 338.908 185.287 339.356 184.68 339.361C184.016 339.435 183.511 338.649 183.59 338.366C183.59 338.043 183.619 324.054 183.621 324.014C183.643 323.742 183.77 323.489 183.974 323.309C184.178 323.128 184.444 323.033 184.716 323.043C184.853 323.037 184.99 323.058 185.12 323.105C185.249 323.152 185.367 323.224 185.468 323.317C185.57 323.41 185.652 323.522 185.71 323.646C185.768 323.771 185.8 323.906 185.806 324.043L185.772 338.356Z" fill="#22B8CF"/>
<path d="M190.491 338.177C190.491 338.738 189.844 339.197 189.035 339.202C188.161 339.269 187.498 338.525 187.579 338.188C187.579 337.865 187.615 323.907 187.618 323.88C187.641 323.33 188.279 322.886 189.074 322.886C189.868 322.886 190.529 323.341 190.529 323.905L190.491 338.177Z" fill="#22B8CF"/>
<path d="M194.832 338.305C194.818 338.581 194.696 338.84 194.493 339.027C194.289 339.215 194.02 339.314 193.743 339.304C193.084 339.379 192.582 338.596 192.663 338.313C192.663 337.989 192.708 324.04 192.711 324.001C192.733 323.73 192.859 323.478 193.062 323.297C193.265 323.116 193.53 323.021 193.802 323.03C193.938 323.024 194.075 323.046 194.203 323.093C194.332 323.14 194.45 323.212 194.55 323.304C194.651 323.397 194.732 323.509 194.789 323.633C194.846 323.757 194.879 323.892 194.884 324.028L194.832 338.305Z" fill="#22B8CF"/>
<path d="M205.28 338.245C205.265 338.52 205.144 338.778 204.941 338.964C204.739 339.151 204.471 339.25 204.196 339.241C203.539 339.316 203.043 338.534 203.123 338.253C203.123 337.929 203.191 324.019 203.193 323.985C203.214 323.714 203.338 323.462 203.541 323.281C203.743 323.1 204.007 323.005 204.278 323.014C204.414 323.008 204.55 323.029 204.678 323.076C204.805 323.123 204.922 323.195 205.022 323.287C205.122 323.379 205.203 323.491 205.259 323.614C205.316 323.738 205.348 323.871 205.352 324.007L205.28 338.245Z" fill="#22B8CF"/>
<path d="M198.803 338.282C198.789 338.558 198.667 338.817 198.464 339.004C198.26 339.191 197.992 339.29 197.716 339.282C197.058 339.354 196.558 338.573 196.639 338.29C196.639 337.967 196.692 324.035 196.695 323.994C196.717 323.724 196.842 323.472 197.044 323.291C197.247 323.11 197.511 323.015 197.782 323.024C197.919 323.018 198.055 323.039 198.183 323.086C198.312 323.133 198.429 323.205 198.53 323.298C198.63 323.39 198.711 323.502 198.768 323.626C198.826 323.75 198.858 323.884 198.863 324.02L198.803 338.282Z" fill="#22B8CF"/>
<path d="M201.322 338.762C201.315 338.9 201.254 339.03 201.153 339.123C201.052 339.217 200.918 339.267 200.78 339.262C200.403 339.317 200.186 338.791 200.241 338.766C200.526 338.229 199.655 322.417 200.854 323.024C202.075 322.466 201.029 338.525 201.322 338.762Z" fill="#22B8CF"/>
<path d="M432.214 178.097C431.604 213.795 378.512 213.789 377.899 178.097C378.509 142.398 431.615 142.403 432.214 178.097Z" fill="#FA541C"/>
<path d="M432.165 175.371H377.899C377.899 175.371 375.737 191.08 399.975 232.368C401.033 234.17 402.964 235.564 405.054 235.566C407.144 235.567 409.079 234.031 410.135 232.229C434.365 190.935 432.165 175.371 432.165 175.371Z" fill="#FA541C"/>
<path opacity="0.8" d="M420.823 178.006C420.472 198.618 389.81 198.615 389.461 178.006C389.814 157.392 420.475 157.395 420.823 178.006Z" fill="#FEE9D1"/>
<path d="M405.143 194.567C383.383 194.177 383.386 161.84 405.143 161.453C426.902 161.843 426.899 194.181 405.143 194.567ZM405.143 163.205C385.686 163.553 385.689 192.469 405.143 192.815C424.601 192.466 424.597 163.551 405.143 163.205Z" fill="#B3200E"/>
<path d="M390.268 161.68C390.215 161.679 390.163 161.662 390.12 161.631C390.076 161.6 390.043 161.557 390.025 161.507C390.006 161.457 390.003 161.403 390.016 161.352C390.029 161.3 390.057 161.253 390.096 161.218C394.42 157.659 400.74 154.712 406.208 155.613C400.662 156.221 394.705 157.711 390.268 161.68Z" fill="#B3200E"/>
<path d="M381.871 179.95C380.765 177.736 383.506 168.084 385.611 166.793C385.64 166.811 385.666 166.835 385.686 166.863C385.706 166.891 385.72 166.923 385.728 166.956C385.736 166.99 385.737 167.024 385.731 167.058C385.726 167.092 385.713 167.125 385.695 167.154C383.364 170.919 382.132 175.26 382.136 179.688C382.137 179.723 382.13 179.757 382.117 179.789C382.103 179.822 382.084 179.851 382.059 179.875C382.034 179.9 382.005 179.919 381.973 179.932C381.94 179.945 381.906 179.951 381.871 179.95Z" fill="#B3200E"/>
<path d="M237.409 219.395C239.387 219.542 241.954 219.215 241.888 217.177C242.1 215.074 238.95 214.84 237.409 215.189V219.395Z" fill="#FDAB76"/>
<path d="M237.409 226.478C239.298 226.74 242.392 226.494 242.3 223.964C242.387 221.57 239.437 221.324 237.409 221.451V226.478Z" fill="#FDAB76"/>
<path fill-rule="evenodd" clip-rule="evenodd" d="M286.232 230.398C288.737 227.893 290.143 224.497 290.143 220.956C290.164 219.189 289.834 217.435 289.173 215.797C288.511 214.158 287.531 212.667 286.289 211.41C285.047 210.153 283.568 209.155 281.938 208.474C280.307 207.793 278.558 207.442 276.791 207.441H232.375C228.812 207.441 225.395 208.857 222.876 211.376C220.357 213.895 218.941 217.312 218.941 220.875C218.941 224.438 220.357 227.855 222.876 230.374C225.395 232.893 228.812 234.308 232.375 234.308H276.791C280.332 234.308 283.728 232.902 286.232 230.398ZM234.622 213.316C236.589 212.944 241.53 212.619 243.122 213.979C245.559 215.39 245.145 219.256 242.163 220.194V220.241C245.302 220.792 246.412 225.219 243.78 227.233C242.603 228.775 236.784 228.875 234.617 228.466L234.622 213.316ZM250.56 216.698C250.363 220.947 250.094 226.734 253.723 226.5C255.756 226.5 256.968 225.108 256.968 222.091V213.111H259.778C259.727 214.129 259.763 215.334 259.803 216.617C259.971 222.139 260.183 229.098 253.631 228.763C247.35 229.236 247.568 221.988 247.733 216.5C247.771 215.239 247.806 214.071 247.759 213.111H250.569C250.691 213.895 250.63 215.201 250.56 216.698ZM266.495 222.091V228.511H269.305V222.021L274.423 213.111H271.247C271.008 213.632 270.704 214.275 270.376 214.969C269.542 216.737 268.55 218.839 268.048 220.126H268.003C267.47 218.732 266.439 216.544 265.589 214.739L265.588 214.738C265.305 214.138 265.043 213.582 264.826 213.111H261.628L266.495 222.091Z" fill="#FDAB76"/>
<path d="M290.465 131.871C290.015 131.318 289.308 131.088 288.561 131.104L220.424 132.534L218.703 127.067C218.583 126.697 218.346 126.377 218.027 126.155C217.709 125.933 217.326 125.822 216.938 125.837L207.589 126.083C205.242 126.083 205.163 129.532 207.589 129.443L215.583 129.254L230.048 175.478C230.172 175.86 230.412 176.193 230.735 176.431C231.059 176.669 231.449 176.799 231.85 176.802L279.676 177.449C280.798 177.464 281.709 176.76 281.709 175.699C281.709 174.638 280.798 173.92 279.676 173.899L233.253 173.399L229.532 161.397C230.862 160.537 284.122 163.477 282.814 159.846C282.663 158.812 292.412 132.243 290.465 131.871Z" fill="#22B8CF"/>
<path d="M238.841 179.654C229.421 179.61 229.642 193.372 238.841 193.605C248.414 193.628 248.189 179.913 238.841 179.654ZM238.841 189.885C234.514 189.723 234.409 183.395 238.841 183.374C243.189 183.507 243.294 189.883 238.841 189.885Z" fill="#22B8CF"/>
<path d="M270.721 180.149C260.835 180.104 261.066 194.196 270.721 194.443C280.771 194.471 280.539 180.421 270.721 180.149ZM270.721 190.631C266.181 190.469 266.069 183.981 270.721 183.961C275.286 184.107 275.397 190.632 270.721 190.631Z" fill="#22B8CF"/>
<path d="M132.183 193.969C132.183 193.969 139.533 175.963 111.813 179.593C65.0215 186.828 120.745 204.37 42.4603 231.924C10.1098 244.541 19.6953 278.941 34.2319 290.359C48.7686 301.777 56.6929 294.18 60.0703 313.884C63.4477 333.589 76.9378 349.593 93.7633 332.889C155.255 276.51 100.167 264.493 135.516 237.642C145.961 225.765 123.828 214.264 132.183 193.969Z" fill="#770508"/>
<path d="M178.112 186.665C178.112 186.665 150.178 226.049 119.121 232.291C119.121 232.291 124.186 249.613 128.69 251.803C128.69 251.803 168.058 222.364 179.359 192.538L178.112 186.665Z" fill="#FDBAB9"/>
<path d="M177.489 195.045C177.522 195.89 174.366 196.306 173.56 192.668C173.918 191.126 174.766 184.339 176.016 183.344C182.669 178.044 194.338 172.305 194.338 172.305C195.502 174.307 193.771 175.493 193.771 175.493L187.913 179.008C188.946 182.338 190.25 186.702 187.229 189.539C184.508 192.478 180.705 196.076 177.489 195.045Z" fill="#FDBAB9"/>
<path d="M51.7028 441.843L50.8666 448.717C50.7048 450.021 47.6137 453.334 46.3084 453.483C44.1037 453.735 43.1494 454.235 39.6879 453.869C38.169 453.707 36.6696 449.647 37.1322 448.192C37.9765 445.539 39.5196 441.56 41.7437 439.209H49.3704C49.7029 439.21 50.0315 439.28 50.3347 439.417C50.6378 439.553 50.9086 439.753 51.129 440.001C51.3495 440.25 51.5146 440.543 51.6135 440.861C51.7124 441.178 51.7429 441.513 51.7028 441.843Z" fill="#063963"/>
<path d="M118.419 451.721C116.232 451.456 110.849 452.62 109.436 450.298C102.333 441.007 99.3034 439.89 99.5314 451.721H98.1145C97.8524 446.571 93.3768 436.691 99.7886 433.648C99.7886 433.648 100.366 437.92 103.499 439.811C106.632 441.702 116.247 448.468 116.247 448.468C117.069 448.372 117.901 448.394 118.717 448.535C120.635 448.881 120.368 451.721 118.419 451.721Z" fill="#063963"/>
<path d="M111.434 361.312C114.433 369.724 108.39 404.958 107.644 430.012C106.792 435.893 114.676 445.123 117.165 449.961L98.1156 438.721L97.7371 436.396L100.856 432.108C101.202 425.87 94.151 379.539 98.4779 374.896L102.418 367.493L111.434 361.312Z" fill="#FDBAB9"/>
<path d="M85.3436 364.91C82.2784 370.636 49.3909 431.13 50.604 444.672C51.1572 447.098 41.6236 448.806 40.0804 445.432C39.8432 445.041 39.7093 444.595 39.6915 444.138C39.6737 443.681 39.7724 443.227 39.9785 442.818C41.4343 439.863 46.075 430.415 47.7912 426.13C54.6834 407.883 52.5467 379.943 72.3484 364.91C72.35 364.91 79.5788 357.828 85.3436 364.91Z" fill="#FDBAB9"/>
<path d="M101.295 286.421C107.809 258.818 91.3086 243.207 91.3086 243.207C101.721 233.213 120.691 228.664 120.691 228.664C120.691 228.664 138.794 241.899 136.646 252.259C135.388 258.33 123.923 288.626 123.923 288.626C123.923 288.626 113.32 293.643 101.295 286.421Z" fill="#FA541C"/>
<path d="M86.8549 300.083C89.506 292.097 101.296 286.418 101.296 286.418C113.321 293.64 123.924 288.623 123.924 288.623C129.142 299.924 112.847 362.299 112.722 368.881C96.5002 372.173 71.5547 365.578 71.5547 365.578C81.8826 347.232 84.2037 308.072 86.8549 300.083Z" fill="#FDAB76"/>
<path d="M108.859 210.424L103.563 234.213C103.055 236.316 104.966 235.966 107.085 235.567C110.79 234.769 115.915 233.53 116.79 229.97L119.064 213.471C119.152 212.835 119.03 212.187 118.718 211.626C118.405 211.065 117.919 210.62 117.332 210.359C114.753 209.365 110.231 206.058 108.859 210.424Z" fill="#FDBAB9"/>
<path d="M115.066 187.773C115.066 187.773 121.339 190.421 125.604 199.484C133.447 216.56 116.458 216.89 106.372 207.94C100.049 202.085 106.918 184.634 115.066 187.773Z" fill="#FDBAB9"/>
<path d="M91.3109 243.207C91.3109 243.207 54.3472 269.652 86.5829 297.441C86.5829 297.441 87.8122 298.832 90.2304 299.553C91.4516 299.919 95.0619 302.651 96.893 304.082C97.0314 304.191 97.191 304.268 97.3614 304.311C97.5317 304.353 97.7092 304.359 97.8821 304.329C98.055 304.298 98.2196 304.232 98.3652 304.134C98.5108 304.036 98.6341 303.908 98.7272 303.759C99.9921 302.771 94.4376 293.53 94.2483 292.436C93.6332 291.863 92.8334 291.527 91.993 291.491C91.1526 291.454 90.3268 291.719 89.6643 292.237C89.4605 292.398 89.2234 292.511 88.9702 292.569C88.7171 292.626 88.4543 292.626 88.2012 292.569C87.948 292.512 87.7108 292.399 87.5069 292.238C87.3031 292.077 87.1377 291.873 87.0228 291.641C84.5318 286.565 79.8265 271.637 99.0847 254.771C101.826 252.602 94.3729 243.967 91.3109 243.207Z" fill="#FDBAB9"/>
<path d="M110.63 203.102C110.63 203.102 105.897 189.838 117.654 189.676L120.42 191.617C127.641 178.604 103.275 173.289 99.2745 189.676C96.2611 199.22 95.7467 205.601 100.759 210.164C105.772 214.727 107.838 209.552 107.838 209.552C107.838 209.552 105.109 205.284 106.22 203.002C107.331 200.719 109.894 203.474 109.894 203.474L110.63 203.102Z" fill="#770508"/>
<path d="M109.311 204.577C105.934 194.644 97.2041 202.758 108.585 207.939L109.311 204.577Z" fill="#FDBAB9"/>
<path d="M76.9849 221.171C104.321 210.217 85.396 195.408 98.003 188.82C98.0377 188.812 98.0744 188.818 98.1049 188.836C98.1354 188.855 98.1572 188.885 98.1656 188.92C98.1739 188.954 98.1681 188.991 98.1495 189.022C98.1308 189.052 98.1008 189.074 98.0661 189.082C86.2355 194.918 103.867 211.956 76.9849 221.171Z" fill="#B3200E"/>
<path d="M52.6751 294.095C28.1858 282.258 23.4562 258.045 34.7756 243.382C34.7979 243.357 34.8292 243.341 34.863 243.337C34.8968 243.334 34.9307 243.343 34.9578 243.364C34.9849 243.384 35.0032 243.414 35.009 243.448C35.0148 243.481 35.0077 243.516 34.9891 243.544C23.351 259.52 28.9412 281.247 52.6751 294.095Z" fill="#B3200E"/>
</svg>
