<svg width="14" height="18" viewBox="0 0 14 18" fill="none" xmlns="http://www.w3.org/2000/svg">
<path d="M7.00001 10.25C6.38194 10.25 5.77776 10.0667 5.26385 9.72334C4.74995 9.37996 4.34941 8.8919 4.11288 8.32088C3.87636 7.74987 3.81448 7.12153 3.93505 6.51534C4.05563 5.90915 4.35326 5.35233 4.7903 4.91529C5.22734 4.47825 5.78416 4.18062 6.39035 4.06004C6.99654 3.93947 7.62488 4.00135 8.1959 4.23788C8.76691 4.4744 9.25497 4.87494 9.59835 5.38884C9.94173 5.90275 10.125 6.50693 10.125 7.125C10.1241 7.95351 9.79452 8.74782 9.20868 9.33367C8.62283 9.91951 7.82852 10.2491 7.00001 10.25ZM7.00001 5.25C6.62917 5.25 6.26666 5.35997 5.95831 5.56599C5.64997 5.77202 5.40965 6.06486 5.26773 6.40747C5.12582 6.75008 5.08869 7.12708 5.16104 7.49079C5.23338 7.85451 5.41196 8.1886 5.67418 8.45082C5.93641 8.71305 6.2705 8.89162 6.63421 8.96397C6.99793 9.03632 7.37493 8.99919 7.71754 8.85727C8.06015 8.71536 8.35299 8.47504 8.55901 8.16669C8.76504 7.85835 8.87501 7.49584 8.87501 7.125C8.87446 6.62789 8.67674 6.15129 8.32523 5.79978C7.97372 5.44826 7.49712 5.25055 7.00001 5.25Z" fill="#212B36"/>
<path d="M7.00001 17.75L1.72782 11.5321C1.69788 11.4964 1.51019 11.2499 1.51019 11.2499C0.609508 10.0636 0.122896 8.6145 0.125007 7.125C0.125007 5.30164 0.849335 3.55295 2.13865 2.26364C3.42796 0.974328 5.17664 0.25 7.00001 0.25C8.82337 0.25 10.5721 0.974328 11.8614 2.26364C13.1507 3.55295 13.875 5.30164 13.875 7.125C13.8772 8.61389 13.391 10.0624 12.4908 11.2483L12.4898 11.2499C12.4898 11.2499 12.3023 11.4964 12.2744 11.5295L7.00001 17.75ZM2.50782 10.4969C2.50844 10.4973 2.65369 10.6895 2.68694 10.7309L7.00001 15.8174L11.3188 10.7237C11.3462 10.6892 11.4927 10.4956 11.493 10.4951C12.2288 9.5258 12.6264 8.34195 12.625 7.125C12.625 5.63316 12.0324 4.20242 10.9775 3.14752C9.92259 2.09263 8.49185 1.5 7.00001 1.5C5.50816 1.5 4.07742 2.09263 3.02253 3.14752C1.96764 4.20242 1.37501 5.63316 1.37501 7.125C1.37362 8.34261 1.77156 9.52708 2.50782 10.4969Z" fill="#212B36"/>
</svg>
