<svg width="18" height="14" viewBox="0 0 18 14" fill="none" xmlns="http://www.w3.org/2000/svg">
<path d="M16.5 0.610107H1.5C1.16848 0.610107 0.850537 0.741803 0.616116 0.976224C0.381696 1.21064 0.25 1.52859 0.25 1.86011V11.8601C0.25 12.1916 0.381696 12.5096 0.616116 12.744C0.850537 12.9784 1.16848 13.1101 1.5 13.1101H16.5C16.8315 13.1101 17.1495 12.9784 17.3839 12.744C17.6183 12.5096 17.75 12.1916 17.75 11.8601V1.86011C17.75 1.52859 17.6183 1.21064 17.3839 0.976224C17.1495 0.741803 16.8315 0.610107 16.5 0.610107ZM15.125 1.86011L9 6.09761L2.875 1.86011H15.125ZM1.5 11.8601V2.42886L8.64375 7.37261C8.74837 7.44519 8.87267 7.48408 9 7.48408C9.12733 7.48408 9.25163 7.44519 9.35625 7.37261L16.5 2.42886V11.8601H1.5Z" fill="white"/>
</svg>
