<svg width="10" height="17" viewBox="0 0 10 17" fill="none" xmlns="http://www.w3.org/2000/svg">
<path d="M8.75 0.5H1.25C0.918581 0.500331 0.600831 0.632133 0.366482 0.866482C0.132133 1.10083 0.000330923 1.41858 0 1.75V15.5C0.000380458 15.8314 0.132199 16.1491 0.366537 16.3835C0.600875 16.6178 0.918596 16.7496 1.25 16.75H8.75C9.08138 16.7496 9.39907 16.6177 9.63339 16.3834C9.86771 16.1491 9.99955 15.8314 10 15.5V1.75C9.99962 1.4186 9.8678 1.10087 9.63346 0.866537C9.39913 0.632199 9.0814 0.50038 8.75 0.5ZM8.75 1.75V3H1.25V1.75H8.75ZM1.25 15.5V4.25H8.75V15.5H1.25Z" fill="white"/>
</svg>
