<svg width="17" height="17" viewBox="0 0 17 17" fill="none" xmlns="http://www.w3.org/2000/svg">
<path d="M14.416 16.7766H1.91602C1.58463 16.7762 1.26695 16.6443 1.03263 16.41C0.798302 16.1757 0.666462 15.858 0.666016 15.5266V3.02661C0.666462 2.69523 0.798302 2.37754 1.03263 2.14322C1.26695 1.9089 1.58463 1.77706 1.91602 1.77661H8.16602V3.02661H1.91602V15.5266H14.416V9.27661H15.666V15.5266C15.6656 15.858 15.5337 16.1757 15.2994 16.41C15.0651 16.6443 14.7474 16.7762 14.416 16.7766Z" fill="#FA541C"/>
<path d="M10.666 0.526611V1.77661H14.7823L9.41602 7.14286L10.2998 8.02661L15.666 2.66036V6.77661H16.916V0.526611H10.666Z" fill="#FA541C"/>
</svg>
