<svg width="22" height="22" viewBox="0 0 22 22" fill="none" xmlns="http://www.w3.org/2000/svg">
<path d="M19.8879 21.082H21.5004L17.0004 9.83203H15.2379L10.7379 21.082H12.3504L13.5504 18.082H18.6879L19.8879 21.082ZM14.1504 16.582L16.1154 11.662L18.0879 16.582H14.1504Z" fill="#212B36"/>
<path d="M12.5 4.58203V3.08203H7.25V0.832031H5.75V3.08203H0.5V4.58203H8.555C8.13945 6.29606 7.31902 7.88548 6.1625 9.21703C5.4086 8.28216 4.82704 7.22062 4.445 6.08203H2.87C3.34211 7.60949 4.10624 9.03078 5.12 10.267C3.99958 11.3538 2.68742 12.2235 1.25 12.832L1.8125 14.227C3.42768 13.5451 4.89872 12.5627 6.1475 11.332C7.37362 12.5795 8.8444 13.56 10.4675 14.212L11 12.832C9.5543 12.2732 8.24497 11.4114 7.16 10.3045C8.59593 8.668 9.60579 6.70238 10.1 4.58203H12.5Z" fill="#212B36"/>
</svg>
