<svg width="80" height="80" viewBox="0 0 80 80" fill="none" xmlns="http://www.w3.org/2000/svg">
<path d="M18.4567 74.9758H4.93652V57.6405C4.93652 57.2075 5.28752 56.8567 5.72033 56.8567H17.6728C18.1057 56.8567 18.4566 57.2077 18.4566 57.6405V74.9758H18.4567Z" fill="#FDAB76"/>
<path d="M18.4564 57.641V73.6467H14.6266V57.641C14.6266 57.2067 14.2754 56.8572 13.8428 56.8572H17.6725C18.1052 56.8572 18.4564 57.2068 18.4564 57.641Z" fill="#FA541C"/>
<path d="M56.1951 74.9759H42.6748V34.5177C42.6748 34.0847 43.0258 33.7339 43.4586 33.7339H55.4111C55.8441 33.7339 56.1949 34.0849 56.1949 34.5177V74.9759H56.1951Z" fill="#FDAB76"/>
<path d="M56.1937 34.5182V73.6468H52.3639V34.5182C52.3639 34.0839 52.0127 33.7344 51.5801 33.7344H55.4099C55.8425 33.7344 56.1937 34.084 56.1937 34.5182Z" fill="#FA541C"/>
<path d="M75.0642 74.9758H61.5439V20.0428C61.5439 19.6099 61.8949 19.259 62.3278 19.259H74.2802C74.7132 19.259 75.064 19.61 75.064 20.0428V74.9758H75.0642Z" fill="#FDAB76"/>
<path d="M75.0628 20.0436V73.6469H71.233V20.0436C71.233 19.6092 70.8819 19.2598 70.4492 19.2598H74.279C74.7117 19.2596 75.0628 19.6092 75.0628 20.0436Z" fill="#FA541C"/>
<path d="M37.3259 74.9756H23.8057V43.1825C23.8057 42.7495 24.1567 42.3987 24.5895 42.3987H36.5419C36.9749 42.3987 37.3257 42.7497 37.3257 43.1825V74.9756H37.3259Z" fill="#FDAB76"/>
<path d="M37.3255 43.1832V73.6466H33.4957V43.1832C33.4957 42.7489 33.1446 42.3994 32.7119 42.3994H36.5417C36.9743 42.3993 37.3255 42.7489 37.3255 43.1832Z" fill="#FA541C"/>
<path d="M58.8291 1.07855L50.2494 2.5927C48.8149 2.8459 47.7999 4.23406 47.9936 5.67783C48.2037 7.24286 49.6478 8.29876 51.2028 8.02439L52.6825 7.76327L45.9277 18.4143C45.3931 19.257 44.2766 19.507 43.4338 18.9725L31.7624 12.8796C30.3068 11.9564 28.3782 12.3878 27.4547 13.8432L16.888 29.6777C15.9969 31.0817 16.4131 32.9423 17.8174 33.8329C19.2214 34.7234 21.0814 34.307 21.9719 32.903L30.0121 21.0398C30.5467 20.197 31.6632 19.947 32.506 20.4816L44.184 26.5786C45.6399 27.5019 47.5689 27.0702 48.4923 25.6142L57.777 10.9739L58.1098 12.8592C58.3744 14.3587 59.8046 15.3599 61.3041 15.0951C62.8038 14.8305 63.805 13.4002 63.5401 11.9005L62.0235 3.31421C61.7587 1.81483 60.3287 0.813931 58.8291 1.07855Z" fill="#22B8CF"/>
<path d="M63.5392 11.8998L62.0231 3.31429C61.7582 1.81522 60.3271 0.813555 58.828 1.07833L58.6904 1.10209C58.9535 2.14794 59.2795 3.18007 59.4002 4.25852C59.5227 5.35037 60.2026 7.3118 58.9741 8.02112C58.222 8.4553 57.3563 7.97922 56.5762 8.46962C55.89 8.90091 55.5204 9.53862 55.0946 10.2089C54.0454 11.8608 52.9996 13.511 51.9538 15.1612C50.4462 17.5381 49.0275 19.9737 47.431 22.2935C46.3065 23.9272 45.3728 24.0971 43.1221 22.852L31.4432 16.7553C30.601 16.2206 29.484 16.4701 28.9492 17.3121L20.9098 29.5818C20.0184 30.9858 18.1595 31.4019 16.7554 30.5122C16.6874 30.468 16.6213 30.4238 16.5584 30.3746C16.1527 31.6479 16.6347 33.0825 17.8164 33.833C18.3173 34.1505 18.8742 34.3016 19.426 34.3016C20.4226 34.3016 21.397 33.8059 21.9709 32.9026L30.0102 21.0388C30.5451 20.1966 31.6621 19.9471 32.5043 20.482L44.1831 26.5786C45.6382 27.5023 47.5669 27.0693 48.4904 25.6143L57.7753 10.9729L58.108 12.8591C58.3729 14.3582 59.8024 15.3598 61.3031 15.0951C62.641 14.8591 63.5814 13.6944 63.5814 12.3821C63.5817 12.2225 63.5682 12.0611 63.5392 11.8998Z" fill="#116E95"/>
<path d="M78.2162 78.9642H1.78381C1.35085 78.9642 1 78.6132 1 78.1804V74.431C1 73.9981 1.351 73.6472 1.78381 73.6472H78.216C78.649 73.6472 78.9998 73.9982 78.9998 74.431V78.1804C79 78.6132 78.6492 78.9642 78.2162 78.9642Z" fill="#DFE3E8"/>
</svg>
