<svg width="80" height="80" viewBox="0 0 80 80" fill="none" xmlns="http://www.w3.org/2000/svg">
<path d="M49.3525 75.4368C48.7215 75.4368 48.21 74.9252 48.21 74.2942V71.7375C48.21 71.1065 48.7215 70.595 49.3525 70.595C49.9835 70.595 50.4951 71.1065 50.4951 71.7375V74.2942C50.4951 74.9252 49.9835 75.4368 49.3525 75.4368Z" fill="#22B8CF"/>
<path d="M67.8359 75.4368C67.2049 75.4368 66.6934 74.9252 66.6934 74.2942V71.7375C66.6934 71.1065 67.2049 70.595 67.8359 70.595C68.4669 70.595 68.9785 71.1065 68.9785 71.7375V74.2942C68.9785 74.9252 68.4669 75.4368 67.8359 75.4368Z" fill="#22B8CF"/>
<path d="M13.8574 75.1321C13.2264 75.1321 12.7148 74.6205 12.7148 73.9895V71.4329C12.7148 70.8019 13.2264 70.2903 13.8574 70.2903C14.4884 70.2903 15 70.8019 15 71.4329V73.9895C15 74.6205 14.4884 75.1321 13.8574 75.1321Z" fill="#FA541C"/>
<path d="M44.5693 75.1321C43.9383 75.1321 43.4268 74.6205 43.4268 73.9895V71.4329C43.4268 70.8019 43.9383 70.2903 44.5693 70.2903C45.2003 70.2903 45.7119 70.8019 45.7119 71.4329V73.9895C45.7119 74.6205 45.2003 75.1321 44.5693 75.1321Z" fill="#FA541C"/>
<path d="M26.4902 41.6996C25.8592 41.6996 25.3477 40.9904 25.3477 40.1155V36.6395C25.3477 35.7646 25.8592 35.0554 26.4902 35.0554C27.1212 35.0554 27.6328 35.7646 27.6328 36.6395V40.1155C27.6328 40.9904 27.1212 41.6996 26.4902 41.6996Z" fill="#FA541C"/>
<path d="M36.3516 41.6996C35.7206 41.6996 35.209 40.9904 35.209 40.1155V36.6395C35.209 35.7646 35.7206 35.0554 36.3516 35.0554C36.9826 35.0554 37.4941 35.7646 37.4941 36.6395V40.1155C37.4941 40.9904 36.9826 41.6996 36.3516 41.6996Z" fill="#FA541C"/>
<path d="M50.668 28.0819C50.037 28.0819 49.5254 27.5704 49.5254 26.9394V9.4247C49.5254 7.85403 50.8032 6.57617 52.3739 6.57617H53.7686C54.3996 6.57617 54.9112 7.08774 54.9112 7.71875C54.9112 8.34976 54.3996 8.86133 53.7686 8.86133H52.3739C52.0633 8.86133 51.8105 9.11407 51.8105 9.4247V26.9395C51.8105 27.5704 51.299 28.0819 50.668 28.0819Z" fill="#77F0ED"/>
<path d="M65.7349 28.2669C65.1039 28.2669 64.5923 27.7553 64.5923 27.1243V9.4247C64.5923 9.11407 64.3396 8.86133 64.029 8.86133H62.8242C62.1932 8.86133 61.6816 8.34976 61.6816 7.71875C61.6816 7.08774 62.1932 6.57617 62.8242 6.57617H64.029C65.5996 6.57617 66.8775 7.85403 66.8775 9.4247V27.1243C66.8775 27.7553 66.3659 28.2669 65.7349 28.2669Z" fill="#77F0ED"/>
<path d="M47.7043 71.281H22.9083L20.3722 69.7576L17.8361 71.281H11.2873C10.3018 71.281 9.50293 70.4821 9.50293 69.4966V42.1533C9.50293 41.1678 10.3018 40.3689 11.2873 40.3689H17.8361L20.3722 41.8923L22.9083 40.3689H47.7043V71.281Z" fill="#FDAB76"/>
<path d="M37.7969 40.3689H47.7044V71.281H37.7969V40.3689Z" fill="#FA541C"/>
<path d="M17.8369 40.3689H22.909V71.281H17.8369V40.3689Z" fill="#FA541C"/>
<path d="M69.7261 71.5213H46.4206C44.3933 71.5213 42.75 69.8778 42.75 67.8506V30.6864C42.75 28.6592 44.3935 27.0159 46.4206 27.0159H69.7261C71.7534 27.0159 73.3967 28.6592 73.3967 30.6864V67.8506C73.3968 69.8778 71.7535 71.5213 69.7261 71.5213Z" fill="#22B8CF"/>
<path d="M69.7266 27.0159H65.1562C67.1835 27.0159 68.8268 28.6592 68.8268 30.6864V67.8506C68.8268 69.8778 67.1835 71.5213 65.1562 71.5213H69.7266C71.7538 71.5213 73.3971 69.8778 73.3971 67.8506V30.6864C73.3973 28.6592 71.754 27.0159 69.7266 27.0159Z" fill="#116E95"/>
<path d="M37.7998 37.203H25.108C24.5133 37.203 24.0312 36.7209 24.0312 36.1263V33.984C24.0312 33.3892 24.5134 32.9072 25.108 32.9072H37.7998C38.3945 32.9072 38.8765 33.3894 38.8765 33.984V36.1263C38.8765 36.7209 38.3944 37.203 37.7998 37.203Z" fill="#B3200E"/>
<path d="M50.4121 66.5785C49.7811 66.5785 49.2695 66.0669 49.2695 65.4359V33.2117C49.2695 32.5807 49.7811 32.0691 50.4121 32.0691C51.0431 32.0691 51.5547 32.5807 51.5547 33.2117V65.4359C51.5547 66.0669 51.0431 66.5785 50.4121 66.5785Z" fill="#116E95"/>
<path d="M58.0742 66.5784C57.4432 66.5784 56.9316 66.0668 56.9316 65.4358V50.6487C56.9316 50.0177 57.4432 49.5061 58.0742 49.5061C58.7052 49.5061 59.2168 50.0177 59.2168 50.6487V65.4358C59.2168 66.0668 58.7052 66.5784 58.0742 66.5784Z" fill="#116E95"/>
<path d="M58.0742 47.2209C57.4432 47.2209 56.9316 46.7093 56.9316 46.0783V33.2117C56.9316 32.5807 57.4432 32.0691 58.0742 32.0691C58.7052 32.0691 59.2168 32.5807 59.2168 33.2117V46.0783C59.2168 46.7095 58.7052 47.2209 58.0742 47.2209Z" fill="#116E95"/>
<path d="M65.7354 66.5785C65.1043 66.5785 64.5928 66.0669 64.5928 65.4359V33.2117C64.5928 32.5807 65.1043 32.0691 65.7354 32.0691C66.3664 32.0691 66.8779 32.5807 66.8779 33.2117V65.4359C66.8779 66.0669 66.3664 66.5785 65.7354 66.5785Z" fill="#116E95"/>
<path d="M60.7828 4.36499H55.6207C54.367 4.36499 53.3506 5.38128 53.3506 6.63506V8.64753C53.3506 9.90116 54.3669 10.9176 55.6207 10.9176H60.7828C62.0365 10.9176 63.0529 9.90131 63.0529 8.64753V6.63506C63.0527 5.38143 62.0365 4.36499 60.7828 4.36499Z" fill="#22B8CF"/>
<path d="M77.8574 76.385H2.14258C1.51157 76.385 1 75.8734 1 75.2424C1 74.6114 1.51157 74.0999 2.14258 74.0999H77.8574C78.4884 74.0999 79 74.6114 79 75.2424C79 75.8734 78.4884 76.385 77.8574 76.385Z" fill="#DFE3E8"/>
</svg>
