<svg width="80" height="80" viewBox="0 0 80 80" fill="none" xmlns="http://www.w3.org/2000/svg">
<path d="M70.6412 50.3313C70.6212 50.5333 70.6094 50.7388 70.6094 50.9475C70.6094 54.0679 73.0543 56.62 76.1321 56.7917C76.1902 56.7949 76.3063 56.7968 76.4091 56.7978C76.5157 56.7986 76.6015 56.8853 76.6015 56.992V63.7366C76.6015 66.8079 74.1118 69.2977 71.0405 69.2977H8.54854C5.47725 69.2977 2.98746 66.8079 2.98746 63.7366V57.5195C2.98746 57.126 3.27909 56.7963 3.66861 56.7419C3.95928 56.7013 4.2431 56.6394 4.51881 56.5572C6.93872 55.8374 8.70215 53.5996 8.70215 50.9476C8.70215 49.503 8.17939 48.1821 7.31264 47.1634C7.3093 47.1584 7.30436 47.1517 7.29768 47.1466C6.39383 46.0881 5.11686 45.3563 3.67052 45.1532C3.2802 45.0983 2.9873 44.7694 2.9873 44.3751V39.0789C2.9873 36.0076 5.47709 33.5178 8.54838 33.5178H71.0419C74.1124 33.5178 76.6014 36.0068 76.6014 39.0773V44.9044C76.6014 45.0106 76.5145 45.0975 76.4085 45.0973C76.3731 45.0973 76.3429 45.0973 76.3279 45.0976C73.3668 45.165 70.9456 47.4313 70.6412 50.3313Z" fill="#FA541C"/>
<path d="M76.6015 39.0771V44.9033C76.6015 45.0099 76.5159 45.0965 76.4093 45.0975C76.3032 45.0984 76.1819 45.1005 76.1213 45.104C73.2544 45.2691 70.9386 47.4989 70.6414 50.3314L13.268 66.8462C10.3155 67.6963 7.23591 65.9913 6.38587 63.0403L4.51881 56.5572C6.93872 55.8374 8.70215 53.5996 8.70215 50.9476C8.70215 49.503 8.17939 48.1821 7.31264 47.1633C7.3093 47.1584 7.30436 47.1517 7.29768 47.1466C6.39383 46.0881 5.11686 45.3563 3.67052 45.1532C3.2802 45.0983 2.9873 44.7694 2.9873 44.3751V39.0789C2.9873 36.0076 5.47709 33.5178 8.54838 33.5178H71.0419C74.1124 33.5178 76.6015 36.0068 76.6015 39.0771Z" fill="#B3200E"/>
<path d="M74.9757 44.6033L57.1185 49.7433L54.823 50.4039L14.9205 61.889C11.9692 62.7391 8.88904 61.0342 8.039 58.083L6.35102 52.2186C6.22638 51.7857 6.43284 51.3237 6.84147 51.1339C9.4118 49.9396 10.8012 47.02 9.99218 44.2119C9.18528 41.4059 6.46022 39.6713 3.65016 40.0233C3.20396 40.0791 2.78054 39.8155 2.65605 39.3835L1.21799 34.3869C0.369543 31.4356 2.07281 28.3538 5.02407 27.5054L44.9266 16.0203L47.222 15.3597L65.0792 10.2197C68.0305 9.36962 71.1107 11.0729 71.9607 14.0241L73.4898 19.3364C73.5647 19.5964 73.4227 19.8697 73.1667 19.9569C73.0121 20.0096 72.8547 20.0663 72.7573 20.1089C70.1094 21.2678 68.6639 24.2364 69.4854 27.0883C70.3377 30.0471 73.3211 31.8153 76.2881 31.2024C76.3152 31.1969 76.3502 31.1887 76.3897 31.179C76.6547 31.1141 76.9244 31.269 76.9998 31.5311L78.7816 37.7216C79.6302 40.6731 77.9269 43.7533 74.9757 44.6033Z" fill="#FDAB76"/>
<path d="M71.9062 13.8541C70.9891 11.0081 67.9723 9.38535 65.0782 10.2184L5.02284 27.5041C2.18237 28.3217 0.498686 31.2059 1.13351 34.0526L71.9062 13.8541Z" fill="#FEE9D1"/>
<path d="M46.0742 15.689L55.971 50.0731L14.9206 61.8886C11.9695 62.738 8.88847 61.0343 8.03906 58.0832L6.35124 52.219C6.2266 51.786 6.43306 51.3241 6.84169 51.1343C9.41218 49.9398 10.8014 47.0203 9.99304 44.2115C9.18518 41.4049 6.46028 39.6712 3.65038 40.0224C3.20418 40.0781 2.78076 39.8145 2.65643 39.3825L1.21837 34.3862C0.368967 31.4351 2.07271 28.3541 5.02381 27.5047L46.0742 15.689Z" fill="#FEE9D1"/>
<path d="M46.0739 15.689L5.02367 27.5045C3.23143 28.0231 1.65217 29.5125 1.18082 31.4467C0.964175 32.2764 0.936795 33.1656 1.13402 34.0514C1.13418 34.0519 1.13418 34.0525 1.13434 34.053L47.547 20.8069L46.0739 15.689Z" fill="#FDAB76"/>
<path fill-rule="evenodd" clip-rule="evenodd" d="M28.0087 36.837L22.8946 29.6387C22.6968 29.3603 22.8333 28.9698 23.1616 28.8753L25.8368 28.1053C26.0056 28.0567 26.1872 28.101 26.3147 28.2217L33.4531 34.9797C35.3718 34.3311 36.8384 33.8452 37.3607 33.6949C39.4995 33.0793 41.9022 35.238 41.9022 35.238C41.9022 35.238 41.0148 38.3439 38.876 38.9594C38.3538 39.1097 36.8536 39.4778 34.8841 39.9483L32.4302 49.4692C32.3864 49.6391 32.2561 49.7733 32.0873 49.8218L29.4121 50.5918C29.0839 50.6863 28.7606 50.4282 28.7801 50.0872L29.2851 41.2696C23.8562 42.5402 18.1917 43.8441 18.1917 43.8441L16.3515 44.4754C16.1282 44.552 15.8819 44.4605 15.7627 44.2567L13.5478 40.4674C13.3253 40.0866 13.6734 39.6267 14.1003 39.7375L17.2447 40.5538C17.2447 40.5538 22.7352 38.647 28.0087 36.837Z" fill="#22B8CF"/>
<path d="M65.0528 20.3798L54.7015 23.3592C54.2436 23.491 53.7654 23.2266 53.6336 22.7687L52.7751 19.7859C52.6433 19.3279 52.9077 18.8497 53.3657 18.7179L63.7169 15.7385C64.1749 15.6067 64.6531 15.8711 64.7849 16.329L65.6433 19.3118C65.7751 19.77 65.5107 20.248 65.0528 20.3798Z" fill="#FA541C"/>
<path d="M67.846 64.3321H56.4299C55.9421 64.3321 55.5469 63.9368 55.5469 63.4491V60.5927C55.5469 60.105 55.9421 59.7097 56.4299 59.7097H67.846C68.3336 59.7097 68.729 60.105 68.729 60.5927V63.4491C68.729 63.9368 68.3336 64.3321 67.846 64.3321Z" fill="#FDAB76"/>
<path fill-rule="evenodd" clip-rule="evenodd" d="M46.5361 18.4884C46.6459 18.4884 46.7574 18.4741 46.8672 18.4423C47.5008 18.2592 47.8669 17.5986 47.6838 16.965L47.2222 15.3589L44.9268 16.0195L45.39 17.6257C45.5396 18.1478 46.0172 18.4884 46.5361 18.4884ZM55.0703 42.6275L54.1947 39.5823C54.0117 38.9487 53.3495 38.5826 52.7175 38.7657C52.084 38.9471 51.7178 39.6093 51.8993 40.2429L52.7764 43.2881C52.926 43.8118 53.4036 44.1524 53.9225 44.1524C54.0324 44.1524 54.1438 44.1365 54.2536 44.1047C54.8872 43.9232 55.2533 43.261 55.0703 42.6275ZM52.6093 34.0729L51.7322 31.0278C51.5491 30.3942 50.8885 30.0297 50.255 30.2111C49.6214 30.3942 49.2553 31.0548 49.4383 31.6884L50.3138 34.7336C50.4651 35.2573 50.9426 35.5979 51.46 35.5979C51.5698 35.5979 51.6812 35.582 51.7911 35.5502C52.4246 35.3687 52.7907 34.7065 52.6093 34.0729ZM50.1467 25.5184L49.2696 22.4748C49.0881 21.8413 48.4243 21.4752 47.7924 21.6566C47.1588 21.8397 46.7927 22.5019 46.9758 23.1354L47.8513 26.179C48.0025 26.7027 48.4801 27.0434 48.999 27.0434C49.1072 27.0434 49.2187 27.0291 49.3285 26.9972C49.9621 26.8142 50.3282 26.152 50.1467 25.5184ZM57.1188 49.7432L54.8233 50.4038L54.3617 48.7976C54.1787 48.1641 54.5448 47.5019 55.1783 47.3204C55.8103 47.1373 56.4741 47.5035 56.6555 48.137L57.1188 49.7432Z" fill="#FA541C"/>
<path d="M64.7179 38.9513C64.1993 38.9513 63.7219 38.6106 63.5713 38.0874C63.3889 37.4537 63.7547 36.7923 64.3884 36.6098L70.8046 34.763C71.4369 34.5806 72.0996 34.9462 72.282 35.5801C72.4644 36.2138 72.0986 36.8752 71.4649 37.0576L65.0487 38.9045C64.9385 38.9361 64.8274 38.9513 64.7179 38.9513Z" fill="#FA541C"/>
<path d="M65.9015 43.0643C65.3829 43.0643 64.9055 42.7236 64.7549 42.2002C64.5725 41.5667 64.9383 40.9051 65.572 40.7227L71.9882 38.876C72.6206 38.6936 73.2832 39.0592 73.4656 39.6931C73.648 40.3267 73.2822 40.9882 72.6485 41.1706L66.2323 43.0173C66.122 43.0492 66.0107 43.0643 65.9015 43.0643Z" fill="#FA541C"/>
<path d="M13.9337 56.2395C13.4151 56.2395 12.9377 55.8989 12.7871 55.3756C12.6047 54.7419 12.9705 54.0805 13.6042 53.8981L22.6527 51.2937C23.2851 51.1114 23.9478 51.4769 24.1301 52.1108C24.3125 52.7445 23.9467 53.4059 23.313 53.5883L14.2645 56.1927C14.1542 56.2244 14.0431 56.2395 13.9337 56.2395Z" fill="#FDAB76"/>
<path d="M49.7003 62.9752H37.0083C36.3488 62.9752 35.8145 62.4406 35.8145 61.7813C35.8145 61.1219 36.3488 60.5874 37.0083 60.5874H49.7003C50.3598 60.5874 50.8942 61.1219 50.8942 61.7813C50.8942 62.4406 50.3598 62.9752 49.7003 62.9752Z" fill="#B3200E"/>
</svg>
